<?xml version="1.0" standalone="no"?>
<!DOCTYPE svg PUBLIC "-//W3C//DTD SVG 1.1//EN" "http://www.w3.org/Graphics/SVG/1.1/DTD/svg11.dtd" >
<svg xmlns="http://www.w3.org/2000/svg">
<metadata>
Created by FontPrep 20130207 at Sun Oct 16 09:52:27 2016
 By Callum Flack
Copyright (c) 2015 by Reto Moser. All rights reserved.
</metadata>
<defs>
<font id="d62caa230b08d881336b56292bf4501a" horiz-adv-x='1024' >
  <font-face 
    font-family="GTEestiProTextTrial-Regular"
    font-weight="400"
    font-stretch="normal"
    units-per-em="2048"
    panose-1="0 0 5 0 0 0 0 0 0 0"
    ascent="1536"
    descent="-512"
    x-height="946"
    cap-height="1434"
    bbox="-53 -440 2613 1516"
    underline-thickness="102"
    underline-position="-51"
    unicode-range="U+0020-FB01"
  />
<missing-glyph horiz-adv-x="1126" 
d="M782 406q0 -57 -49 -58q-35 0 -35 27t47 33l37 4v-6zM637 373q0 -68 78 -70q51 0 71 39q0 -23 2 -33h60q-6 31 -6 43v82q0 55 -20 80t-74 25q-100 0 -105 -76h59q2 31 41 31t39 -45q-66 -6 -102 -17q-43 -18 -43 -59zM770 700v324h-59v-324h59zM623 633h-66v-62h66v62z
M297 750q-84 0 -84 110t87 111q44 0 58 -47l62 24q-29 80 -112 80t-123 -47t-40 -120t37 -120t102 -47t87 41l8 -35h47v179h-137v-58h82v-4q-1 -25 -19 -47t-55 -20zM897 1024v-59h66v59h-66zM616 1024v-59h66v59h-66zM524 539q-41 0 -61 -43v36h-57v-223h61v101q0 72 57 71
q13 0 21 -2v58q-6 2 -21 2zM874 309h60v324h-60v-324zM182 629v-60h90v-260h62v260h90v60h-242zM899 926v-226h62v226h-62zM582 932q-37 0 -64 -43v37h-55v-226h59v103q0 72 62 71q14 0 20 -2v56q-12 4 -22 4zM621 532h-62v-223h62v223zM102 0v1434h922v-1434h-922zM618 926
v-226h62v226h-62zM864 700v324h-61v-324h61z" />
    <glyph glyph-name=".notdef" horiz-adv-x="1126" 
d="M782 406q0 -57 -49 -58q-35 0 -35 27t47 33l37 4v-6zM637 373q0 -68 78 -70q51 0 71 39q0 -23 2 -33h60q-6 31 -6 43v82q0 55 -20 80t-74 25q-100 0 -105 -76h59q2 31 41 31t39 -45q-66 -6 -102 -17q-43 -18 -43 -59zM770 700v324h-59v-324h59zM623 633h-66v-62h66v62z
M297 750q-84 0 -84 110t87 111q44 0 58 -47l62 24q-29 80 -112 80t-123 -47t-40 -120t37 -120t102 -47t87 41l8 -35h47v179h-137v-58h82v-4q-1 -25 -19 -47t-55 -20zM897 1024v-59h66v59h-66zM616 1024v-59h66v59h-66zM524 539q-41 0 -61 -43v36h-57v-223h61v101q0 72 57 71
q13 0 21 -2v58q-6 2 -21 2zM874 309h60v324h-60v-324zM182 629v-60h90v-260h62v260h90v60h-242zM899 926v-226h62v226h-62zM582 932q-37 0 -64 -43v37h-55v-226h59v103q0 72 62 71q14 0 20 -2v56q-12 4 -22 4zM621 532h-62v-223h62v223zM102 0v1434h922v-1434h-922zM618 926
v-226h62v226h-62zM864 700v324h-61v-324h61z" />
    <glyph glyph-name=".null" horiz-adv-x="0" 
 />
    <glyph glyph-name="nonmarkingreturn" horiz-adv-x="681" 
 />
    <glyph glyph-name="space" unicode=" " horiz-adv-x="614" 
 />
    <glyph glyph-name="exclam" unicode="!" horiz-adv-x="458" 
d="M113 0v254h233v-254h-233z" />
    <glyph glyph-name="comma" unicode="," horiz-adv-x="495" 
d="M82 -342l70 553h231l-190 -553h-111z" />
    <glyph glyph-name="hyphen" unicode="-" horiz-adv-x="813" 
d="M721 645v-192h-629v192h629z" />
    <glyph glyph-name="period" unicode="." horiz-adv-x="458" 
d="M113 0v254h233v-254h-233z" />
    <glyph glyph-name="zero" unicode="0" horiz-adv-x="1187" 
d="M594 1229q-139 1 -216 -141t-77 -396t78 -396t215 -142t215 142t78 396t-77 396t-216 141zM594 1413q240 0 371 -188q131 -189 131 -533t-132 -533t-370 -189t-370 188q-132 190 -132 534t131 532t371 189z" />
    <glyph glyph-name="one" unicode="1" horiz-adv-x="706" 
d="M512 1382v-1382h-201v870q0 109 17 179l-6 4q-20 -35 -76 -64l-174 -94v201l254 178l34 108h152z" />
    <glyph glyph-name="two" unicode="2" horiz-adv-x="1005" 
d="M504 1413q198 0 304 -97t107 -274q0 -177 -170 -397l-239 -315q-72 -96 -139 -148l4 -6q55 20 168 21h413l2 -4l-110 -193h-830l-4 8l568 740q129 166 129 286q-1 90 -53 142t-144 51q-135 0 -320 -133l-100 159q216 160 414 160z" />
    <glyph glyph-name="three" unicode="3" horiz-adv-x="987" 
d="M629 1046q1 184 -217 185q-110 0 -285 -103l-80 168q191 117 389 117t299 -85q100 -85 101 -234q0 -109 -54 -187t-153 -108q-39 -12 -103 -19v-8q63 0 101 -10q289 -72 288 -363q0 -201 -134 -315t-358 -115q-224 0 -403 101l68 186q174 -100 320 -100t222 66
q75 66 75 195q1 128 -97 188t-313 61v180q162 0 248 54t86 146z" />
    <glyph glyph-name="four" unicode="4" horiz-adv-x="1136" 
d="M645 457q25 0 37 -6l4 4q-4 10 -4 47v461q0 90 12 147l-8 2q-29 -86 -100 -188l-267 -377q-55 -78 -86 -103l5 -4q41 16 122 17h285zM879 1382v-880q0 -37 -5 -47l5 -4q12 6 39 6h198l-61 -191h-137q-27 0 -39 6l-5 -4q4 -8 5 -47v-221h-195v221q0 39 2 47l-2 4
q-12 -6 -39 -6h-614v170l669 946h179z" />
    <glyph glyph-name="five" unicode="5" horiz-adv-x="978" 
d="M547 1180q-41 0 -53 2l-2 -2q0 -27 -17 -93l-31 -104q-14 -45 -41 -82l3 -4q41 4 61 4q217 0 345 -120q128 -121 128 -335t-146 -346t-381 -131q-235 0 -403 99l70 184q178 -98 330 -98t236 78t85 214q0 272 -344 273q-121 0 -211 -25l-6 6l201 682h598l-78 -202h-344z
" />
    <glyph glyph-name="six" unicode="6" horiz-adv-x="1069" 
d="M819 438q-1 131 -75 202t-204 71t-205 -77t-75 -207t76 -204q76 -73 205 -73t203 78t75 210zM604 901q188 0 306 -129t118 -334t-137 -337t-354 -132q-217 -1 -351 139t-135 363q0 152 65 300t208 325l237 295h256l-352 -410q-109 -127 -156 -252l8 -2q99 174 287 174z
" />
    <glyph glyph-name="seven" unicode="7" horiz-adv-x="890" 
d="M428 1182h-418l84 200h795l2 -4l-574 -1378h-223l428 983q86 199 94 209l-4 4q-43 -14 -184 -14z" />
    <glyph glyph-name="eight" unicode="8" horiz-adv-x="1085" 
d="M543 150q121 0 191 64t69 180q0 114 -70 180q-71 66 -191 67q-120 0 -190 -67q-70 -68 -70 -182t70 -178t191 -64zM543 836q102 0 163 54q60 54 60 145t-60 145t-162 53q-102 0 -164 -53q-60 -52 -60 -144t60 -146q61 -54 163 -54zM543 -31q-221 0 -346 108t-125 296
q0 145 75 242q76 97 209 122v8q-110 23 -178 110t-67 206q0 160 118 256q119 96 314 96t313 -96t119 -256q0 -119 -68 -206t-178 -110v-8q133 -25 209 -122t76 -242q0 -188 -125 -296t-346 -108z" />
    <glyph glyph-name="nine" unicode="9" horiz-adv-x="1040" 
d="M515 1229q-128 0 -202 -76q-73 -76 -73 -204q0 -127 72 -199t202 -72q129 0 203 72t74 200t-74 204q-74 75 -202 75zM517 1413q216 0 349 -141t133 -373q0 -152 -54 -281t-179 -274l-281 -344h-239l383 465q102 125 135 190l-8 4q-111 -172 -296 -172t-307 131t-122 332
t135 332t351 131z" />
    <glyph glyph-name="colon" unicode=":" horiz-adv-x="458" 
d="M113 0v254h233v-254h-233z" />
    <glyph glyph-name="semicolon" unicode=";" horiz-adv-x="495" 
d="M82 -342l70 553h231l-190 -553h-111z" />
    <glyph glyph-name="question" unicode="?" horiz-adv-x="458" 
d="M113 0v254h233v-254h-233z" />
    <glyph glyph-name="A" unicode="A" horiz-adv-x="1425" 
d="M602 559h221q78 0 115 -4l2 2q-35 43 -66 117l-106 252q-45 109 -51 164h-8q-6 -55 -52 -164l-106 -252q-31 -74 -66 -117l2 -2q37 4 115 4zM20 0l682 1464h21l682 -1464h-240l-168 377h-569l-168 -377h-240z" />
    <glyph glyph-name="B" unicode="B" horiz-adv-x="1265" 
d="M416 201h280q254 0 254 213q0 227 -280 227h-254q-33 0 -51 8l-5 -4q6 -14 7 -51v-344q0 -37 -7 -53l5 -4q18 8 51 8zM629 838q113 0 176 54t63 148t-57 144t-166 49h-229q-33 0 -51 8l-5 -4q6 -16 7 -53v-299q0 -37 -7 -51l5 -5q18 8 51 9h213zM154 0v1434h530
q184 0 294 -98t109 -263q0 -211 -180 -282q-47 -20 -102 -23v-8q63 0 104 -12q125 -29 195 -122t70 -229q0 -181 -120 -289t-319 -108h-581z" />
    <glyph glyph-name="C" unicode="C" horiz-adv-x="1396" 
d="M840 -31q-342 0 -555 207t-213 541q0 335 213 541t555 206q287 0 506 -157l-132 -187q-174 127 -395 127t-367 -147t-146 -383t146 -383q146 -148 367 -148t395 127l132 -186q-219 -158 -506 -158z" />
    <glyph glyph-name="D" unicode="D" horiz-adv-x="1411" 
d="M367 248q0 -35 -7 -51l5 -4q18 8 51 8h188q236 0 369 136t133 379t-133 380t-369 137h-188q-33 0 -51 8l-5 -4q6 -16 7 -51v-938zM602 1434q336 0 537 -196t201 -522t-202 -520q-200 -196 -536 -196h-448v1434h448z" />
    <glyph glyph-name="E" unicode="E" 
d="M967 1434v-201h-551q-33 0 -51 8l-5 -4q6 -16 7 -53v-256q0 -35 -7 -51l5 -5q18 8 51 9h483v-201h-483q-33 0 -51 8l-5 -4q6 -14 7 -53v-381q0 -37 -7 -53l5 -4q18 8 51 8h559v-201h-821v1434h813z" />
    <glyph glyph-name="F" unicode="F" horiz-adv-x="1015" 
d="M975 1434v-201h-559q-33 0 -51 8l-5 -4q6 -16 7 -53v-281q0 -35 -7 -51l5 -4q18 8 51 8h512v-201h-512q-33 0 -51 9l-5 -5q6 -16 7 -51v-608h-213v1434h821z" />
    <glyph glyph-name="G" unicode="G" horiz-adv-x="1601" 
d="M72 712q0 332 210 542t541 210q330 0 557 -192l-143 -178q-167 154 -407 154t-383 -151q-142 -151 -142 -382q1 -231 147 -379t378 -150q232 0 359 130q128 130 132 288l-4 4q-29 -18 -137 -18h-342v201h712v-78q0 -295 -176 -512q-86 -107 -227 -169t-318 -63
q-329 0 -543 205t-214 538z" />
    <glyph glyph-name="H" unicode="H" horiz-adv-x="1458" 
d="M1305 1434v-1434h-213v608q0 35 6 51l-4 5q-18 -8 -52 -9h-626q-33 0 -51 9l-5 -5q6 -16 7 -51v-608h-213v1434h213v-527q0 -35 -7 -51l5 -4q18 8 51 8h626q33 0 52 -8l4 4q-6 16 -6 51v527h213z" />
    <glyph glyph-name="I" unicode="I" horiz-adv-x="520" 
d="M367 1434v-1434h-213v1434h213z" />
    <glyph glyph-name="J" unicode="J" horiz-adv-x="616" 
d="M463 1434v-1080q0 -188 -77 -276t-239 -88q-41 0 -96 6v201q31 -2 85 -2q54 1 84 33t30 118v1088h213z" />
    <glyph glyph-name="K" unicode="K" horiz-adv-x="1261" 
d="M367 0h-213v1434h213v-404q0 -143 -17 -237l6 -5l543 646h287l-490 -566q-68 -74 -108 -100v-8q39 -25 96 -92l567 -668h-286l-609 731l-6 -2q16 -98 17 -240v-489z" />
    <glyph glyph-name="L" unicode="L" horiz-adv-x="1001" 
d="M367 1434v-1182q0 -35 -7 -51l5 -4q18 8 51 8h565v-205h-827v1434h213z" />
    <glyph glyph-name="M" unicode="M" horiz-adv-x="1802" 
d="M483 969q0 -129 -30 -232l-211 -737h-222l426 1454h31l385 -901q25 -59 35 -166h8q10 106 35 166l385 901h31l426 -1454h-221l-211 737q-31 102 -31 232h-8q-10 -98 -68 -230l-332 -753h-20l-332 753q-57 131 -67 230h-9z" />
    <glyph glyph-name="N" unicode="N" horiz-adv-x="1511" 
d="M1145 682v752h213v-1454h-19l-872 872q-80 80 -113 160l-8 -2q20 -78 21 -256v-754h-213v1454h18l872 -872q80 -80 113 -160l8 2q-20 78 -20 258z" />
    <glyph glyph-name="O" unicode="O" horiz-adv-x="1638" 
d="M819 1247q-225 1 -369 -149t-144 -381t144 -381t369 -150t370 150q144 150 144 381t-144 381q-145 149 -370 149zM819 1464q326 0 537 -211t211 -537t-211 -536q-211 -211 -537 -211q-327 0 -537 211t-210 537q0 327 210 537t537 210z" />
    <glyph glyph-name="P" unicode="P" horiz-adv-x="1118" 
d="M367 870q0 -37 -7 -53l5 -4q18 8 51 8h200q106 1 164 55t58 150t-58 152t-164 55h-200q-33 0 -51 8l-5 -4q6 -16 7 -53v-314zM614 1434q211 0 332 -109t121 -298t-118 -298t-316 -108h-217q-33 0 -51 8l-5 -4q6 -14 7 -52v-573h-213v1434h460z" />
    <glyph glyph-name="Q" unicode="Q" horiz-adv-x="1630" 
d="M1325 736q0 228 -136 370q-137 142 -371 141q-234 0 -374 -144q-140 -143 -139 -371q-1 -228 147 -372t368 -145q220 0 363 146q142 147 142 375zM823 -10q-317 0 -534 210t-217 530t209 528q209 206 539 206t534 -204q205 -204 205 -512q0 -310 -248 -500
q-104 -74 -238 -111l2 -8q215 49 316 49h159v-188h-727z" />
    <glyph glyph-name="R" unicode="R" horiz-adv-x="1226" 
d="M367 893q0 -37 -7 -51l5 -4q18 8 51 8h209q100 0 154 50q55 50 55 139t-54 143t-155 55h-209q-33 0 -51 8l-5 -4q6 -16 7 -53v-291zM623 1434q203 0 321 -106t119 -282q0 -176 -113 -282t-243 -107q-35 0 -72 11v-9q74 -25 147 -116l435 -543h-277l-506 641h-20
q-33 0 -49 8l-5 -4q6 -18 7 -55v-590h-213v1434h469z" />
    <glyph glyph-name="S" unicode="S" horiz-adv-x="1013" 
d="M131 1118q1 160 107 253t295 93t378 -96l-96 -203q-147 84 -289 84q-164 0 -164 -123q0 -86 111 -172l256 -196q115 -88 169 -178t54 -209q0 -193 -125 -297t-333 -105q-254 0 -463 133l96 201q203 -117 369 -117q111 0 169 48t58 114t-35 118t-115 114l-243 192
q-199 156 -199 346z" />
    <glyph glyph-name="T" unicode="T" horiz-adv-x="1064" 
d="M1044 1434v-205h-356q-33 0 -51 8l-4 -4q6 -16 6 -51v-1182h-213v1182q0 35 6 51l-4 4q-18 -8 -51 -8h-357v205h1024z" />
    <glyph glyph-name="U" unicode="U" horiz-adv-x="1396" 
d="M1264 1434v-895q0 -262 -154 -415t-412 -153t-412 153t-153 415v895h221v-891q0 -166 93 -260q93 -95 251 -95t251 94t93 261v891h222z" />
    <glyph glyph-name="V" unicode="V" horiz-adv-x="1310" 
d="M1311 1434l-643 -1452h-25l-643 1452h250l328 -795q47 -115 73 -274h8q27 160 74 274l328 795h250z" />
    <glyph glyph-name="W" unicode="W" horiz-adv-x="1949" 
d="M989 1454l287 -766q66 -174 74 -268h8q8 92 69 266l259 748h243l-563 -1454h-25l-325 839q-31 80 -37 176h-8q-6 -96 -37 -176l-326 -839h-24l-564 1454h244l258 -748q61 -174 70 -266h8q8 94 74 268l287 766h28z" />
    <glyph glyph-name="X" unicode="X" horiz-adv-x="1286" 
d="M1204 1434l-346 -549q-47 -76 -86 -119v-4q41 -51 102 -150l392 -612h-250l-279 444q-82 131 -90 179h-8q-8 -47 -90 -179l-279 -444h-250l392 612q61 98 102 150v4q-39 43 -86 119l-346 549h250l217 -351q80 -127 90 -178h8q10 51 90 178l217 351h250z" />
    <glyph glyph-name="Y" unicode="Y" horiz-adv-x="1146" 
d="M680 0h-213v573l-457 861h252l211 -441q86 -178 98 -248h4q12 70 99 248l211 441h252l-457 -861v-573z" />
    <glyph glyph-name="Z" unicode="Z" horiz-adv-x="1196" 
d="M506 209h655l-108 -209h-1026l-7 10l795 1243l-4 7q-47 -35 -158 -35h-547l105 209h950l4 -11l-792 -1245l4 -6q39 37 129 37z" />
    <glyph glyph-name="underscore" unicode="_" horiz-adv-x="813" 
d="M721 645v-192h-629v192h629z" />
    <glyph glyph-name="a" unicode="a" horiz-adv-x="1026" 
d="M479 469q-92 0 -148 -47q-57 -47 -57 -123t56 -121t148 -45q93 0 154 46q60 46 60 121t-60 122q-61 47 -153 47zM524 977q188 0 284 -93q95 -93 95 -292v-592h-203q0 86 29 150l-8 4q-106 -184 -318 -185q-153 0 -247 91t-94 243t94 242t250 90q213 0 313 -158l6 4
q-10 37 -16 131q-12 178 -220 179q-113 0 -272 -52l-55 181q174 57 362 57z" />
    <glyph glyph-name="b" unicode="b" horiz-adv-x="1191" 
d="M632 158q134 0 210 84t76 231t-76 231t-210 84t-220 -88t-86 -227t86 -227t220 -88zM672 -31q-248 0 -348 215l-9 -2q12 -53 13 -182h-195v1464h201v-495q0 -137 -19 -205l9 -2q100 215 348 215q202 0 330 -141q128 -140 128 -362t-128 -364t-330 -141z" />
    <glyph glyph-name="c" unicode="c" horiz-adv-x="956" 
d="M582 -31q-232 1 -376 141t-145 363q1 223 145 363t376 141q178 0 323 -96l-94 -170q-109 71 -239 71t-214 -86t-84 -223t84 -223t214 -86t239 72l94 -170q-145 -97 -323 -97z" />
    <glyph glyph-name="d" unicode="d" horiz-adv-x="1191" 
d="M560 158q134 0 220 88t86 227t-86 227t-220 88t-210 -84t-76 -230q0 -148 76 -232t210 -84zM520 -31q-201 -1 -330 141t-129 363t129 363t330 141q248 0 348 -215l9 2q-18 68 -19 205v495h201v-1464h-195q0 131 13 182l-9 2q-100 -215 -348 -215z" />
    <glyph glyph-name="e" unicode="e" 
d="M536 795q-110 1 -182 -59t-86 -167l4 -4q37 20 117 21h240q125 0 151 -19l4 4q-10 106 -74 165t-174 59zM540 977q214 0 334 -134t121 -370v-39h-608q-94 0 -125 17l-4 -5l8 -24q16 -127 92 -195t201 -67q156 0 287 139l123 -133q-163 -197 -399 -197t-372 137
q-136 136 -136 364t132 368t346 139z" />
    <glyph glyph-name="f" unicode="f" horiz-adv-x="659" 
d="M608 1452v-188h-14q-86 0 -131 -44t-45 -149v-70q-4 -57 -8 -67l6 -4q18 16 84 16h106v-192h-106q-66 0 -84 16l-6 -4q8 -35 8 -111v-655h-201v655q0 76 8 111l-4 4q-23 -16 -86 -16h-84v192h84q63 0 86 -16l4 4q-2 8 -8 63v54q0 211 108 306t255 95h28z" />
    <glyph glyph-name="g" unicode="g" horiz-adv-x="1179" 
d="M559 788q-135 0 -210 -84t-75 -230q0 -148 75 -232t210 -84t221 88t86 227t-86 227t-221 88zM518 977q248 0 348 -215l8 2q-18 49 -18 182h201v-903q0 -483 -516 -483q-244 0 -418 112l98 181q157 -101 309 -101t242 71t90 181v41q0 88 12 137l-8 2q-104 -213 -348 -213
q-201 1 -329 141t-128 361t128 363t329 141z" />
    <glyph glyph-name="h" unicode="h" horiz-adv-x="1126" 
d="M803 565q0 221 -205 221q-127 0 -196 -87t-68 -244v-455h-201v1464h201v-512q0 -104 -21 -204l9 -3q104 231 348 232q158 0 246 -93t88 -261v-623h-201v565z" />
    <glyph glyph-name="i" unicode="i" horiz-adv-x="466" 
d="M334 946v-946h-201v946h201zM346 1434v-271h-225v271h225z" />
    <glyph glyph-name="j" unicode="j" horiz-adv-x="466" 
d="M334 946v-987q0 -203 -97 -301t-276 -98h-14v196h14q172 0 172 203v987h201zM346 1434v-271h-225v271h225z" />
    <glyph glyph-name="k" unicode="k" horiz-adv-x="1003" 
d="M334 1464v-747q0 -123 -17 -187l7 -2l364 418h262l-334 -352q-55 -59 -92 -78v-8q33 -16 86 -68l394 -440h-267l-413 481l-7 -4q16 -59 17 -182v-295h-201v1464h201z" />
    <glyph glyph-name="l" unicode="l" horiz-adv-x="466" 
d="M334 1464v-1464h-201v1464h201z" />
    <glyph glyph-name="m" unicode="m" horiz-adv-x="1658" 
d="M133 0v946h201q0 -106 -23 -203l8 -4q79 238 309 238t283 -227h9q29 106 110 166q82 60 214 60t212 -92q80 -93 80 -266v-618h-201v553q0 121 -46 177t-144 56q-213 0 -213 -311v-475h-195v553q0 121 -46 177t-144 56q-213 0 -213 -311v-475h-201z" />
    <glyph glyph-name="n" unicode="n" horiz-adv-x="1126" 
d="M803 565q0 221 -205 221q-127 0 -196 -87t-68 -244v-455h-201v946h201q0 -131 -21 -217l9 -2q98 250 344 250q162 0 250 -92t88 -262v-623h-201v565z" />
    <glyph glyph-name="o" unicode="o" horiz-adv-x="1159" 
d="M580 780q-138 0 -222 -85t-84 -222t84 -222t222 -85t221 85q84 85 84 222t-84 222t-221 85zM580 977q223 0 370 -143q148 -142 148 -360t-148 -361t-370 -143t-370 142q-148 144 -149 361q0 217 148 361t371 143z" />
    <glyph glyph-name="p" unicode="p" horiz-adv-x="1191" 
d="M918 473q0 147 -76 231t-210 84t-220 -88t-86 -227t86 -227t220 -88t210 84t76 231zM672 977q202 0 330 -141q128 -140 128 -362t-129 -363t-329 -142q-244 0 -348 215l-9 -2q18 -68 19 -198v-394h-201v1356h195q0 -131 -13 -182l9 -2q106 215 348 215z" />
    <glyph glyph-name="q" unicode="q" horiz-adv-x="1191" 
d="M560 788q-134 0 -210 -84t-76 -230q0 -148 76 -232t210 -84t220 88t86 227t-86 227t-220 88zM520 977q242 0 348 -215l9 2q-12 51 -13 182h195v-1356h-201v394q0 131 19 198l-9 2q-104 -215 -348 -215q-201 -1 -330 141t-129 363t129 363t330 141z" />
    <glyph glyph-name="r" unicode="r" horiz-adv-x="716" 
d="M651 975q20 0 35 -2v-232q-37 4 -65 4q-287 0 -287 -329v-416h-201v946h201q0 -117 -25 -250l10 -2q74 281 332 281z" />
    <glyph glyph-name="s" unicode="s" horiz-adv-x="845" 
d="M408 -31q-194 0 -367 101l90 178q156 -90 302 -90t147 90q0 59 -99 106l-172 84q-201 96 -200 275q0 125 88 195q89 70 247 69q158 0 328 -74l-82 -174q-147 61 -258 61t-110 -73q0 -61 106 -113l176 -84q190 -90 191 -264q-1 -135 -97 -211t-290 -76z" />
    <glyph glyph-name="t" unicode="t" horiz-adv-x="643" 
d="M416 1452v-410q0 -72 -8 -108l6 -4q23 16 84 16h94v-192h-94q-61 0 -84 16l-6 -4q8 -35 8 -111v-655h-201v655q0 76 8 111l-6 4q-18 -16 -84 -16h-82v192h82q66 0 84 -16l6 4q-8 37 -8 108v273l188 137h13z" />
    <glyph glyph-name="u" unicode="u" horiz-adv-x="1073" 
d="M950 946v-946h-198q0 106 22 197l-8 2q-96 -229 -326 -230q-154 1 -240 103t-87 282v592h204v-555q-1 -113 53 -172t158 -59t162 86q59 86 60 243v457h200z" />
    <glyph glyph-name="v" unicode="v" horiz-adv-x="1003" 
d="M983 946l-451 -956h-61l-451 956h234l170 -414q63 -156 76 -233h4q12 78 76 233l170 414h233z" />
    <glyph glyph-name="w" unicode="w" horiz-adv-x="1445" 
d="M410 -10l-390 956h226l153 -428q37 -104 41 -168h9q8 55 57 172l190 439h54l190 -439q49 -117 57 -172h9q4 63 41 168l153 428h225l-389 -956h-53l-213 477q-39 84 -43 139h-8q-4 -55 -43 -139l-213 -477h-53z" />
    <glyph glyph-name="x" unicode="x" horiz-adv-x="1028" 
d="M20 0l310 430q7 7 25 31t32 28v7q-18 8 -53 57l-273 393h238l129 -190q76 -111 82 -168h8q6 57 82 168l129 190h238l-273 -393q-35 -49 -53 -57v-7q17 -4 35 -30q18 -25 22 -29l310 -430h-238l-172 240q-70 96 -80 155h-8q-10 -59 -80 -155l-172 -240h-238z" />
    <glyph glyph-name="y" unicode="y" horiz-adv-x="1015" 
d="M995 946l-571 -1358h-209l201 473l-396 885h230l215 -522q41 -102 43 -184h8q2 72 35 151l225 555h219z" />
    <glyph glyph-name="z" unicode="z" horiz-adv-x="929" 
d="M395 756h-327l118 190h729l5 -8l-570 -778l4 -6q35 24 79 30t142 6h343l-117 -190h-785l-6 10l580 776l-4 7q-43 -25 -79 -31t-112 -6z" />
    <glyph glyph-name="Agrave" unicode="&#xc0;" horiz-adv-x="1425" 
d="M602 559h221q78 0 115 -4l2 2q-35 43 -66 117l-106 252q-45 109 -51 164h-8q-6 -55 -52 -164l-106 -252q-31 -74 -66 -117l2 -2q37 4 115 4zM20 0l682 1464h21l682 -1464h-240l-168 377h-569l-168 -377h-240z" />
    <glyph glyph-name="Aacute" unicode="&#xc1;" horiz-adv-x="1425" 
d="M602 559h221q78 0 115 -4l2 2q-35 43 -66 117l-106 252q-45 109 -51 164h-8q-6 -55 -52 -164l-106 -252q-31 -74 -66 -117l2 -2q37 4 115 4zM20 0l682 1464h21l682 -1464h-240l-168 377h-569l-168 -377h-240z" />
    <glyph glyph-name="Acircumflex" unicode="&#xc2;" horiz-adv-x="1425" 
d="M602 559h221q78 0 115 -4l2 2q-35 43 -66 117l-106 252q-45 109 -51 164h-8q-6 -55 -52 -164l-106 -252q-31 -74 -66 -117l2 -2q37 4 115 4zM20 0l682 1464h21l682 -1464h-240l-168 377h-569l-168 -377h-240z" />
    <glyph glyph-name="Atilde" unicode="&#xc3;" horiz-adv-x="1425" 
d="M602 559h221q78 0 115 -4l2 2q-35 43 -66 117l-106 252q-45 109 -51 164h-8q-6 -55 -52 -164l-106 -252q-31 -74 -66 -117l2 -2q37 4 115 4zM20 0l682 1464h21l682 -1464h-240l-168 377h-569l-168 -377h-240z" />
    <glyph glyph-name="Adieresis" unicode="&#xc4;" horiz-adv-x="1425" 
d="M602 559h221q78 0 115 -4l2 2q-35 43 -66 117l-106 252q-45 109 -51 164h-8q-6 -55 -52 -164l-106 -252q-31 -74 -66 -117l2 -2q37 4 115 4zM20 0l682 1464h21l682 -1464h-240l-168 377h-569l-168 -377h-240z" />
    <glyph glyph-name="Aring" unicode="&#xc5;" horiz-adv-x="1425" 
d="M602 559h221q78 0 115 -4l2 2q-35 43 -66 117l-106 252q-45 109 -51 164h-8q-6 -55 -52 -164l-106 -252q-31 -74 -66 -117l2 -2q37 4 115 4zM20 0l682 1464h21l682 -1464h-240l-168 377h-569l-168 -377h-240z" />
    <glyph glyph-name="AE" unicode="&#xc6;" horiz-adv-x="2482" 
d="M2392 1434v-201h-551q-33 0 -51 8l-4 -4q6 -16 6 -53v-256q0 -35 -6 -51l4 -5q18 8 51 9h483v-201h-483q-33 0 -51 8l-4 -4q6 -14 6 -53v-381q0 -37 -6 -53l4 -4q18 8 51 8h559v-201h-821v1434h813zM602 559h221q78 0 115 -4l2 2q-35 43 -66 117l-106 252
q-45 109 -51 164h-8q-6 -55 -52 -164l-106 -252q-31 -74 -66 -117l2 -2q37 4 115 4zM20 0l682 1464h21l682 -1464h-240l-168 377h-569l-168 -377h-240z" />
    <glyph glyph-name="Ccedilla" unicode="&#xc7;" horiz-adv-x="1396" 
d="M840 -31q-342 0 -555 207t-213 541q0 335 213 541t555 206q287 0 506 -157l-132 -187q-174 127 -395 127t-367 -147t-146 -383t146 -383q146 -148 367 -148t395 127l132 -186q-219 -158 -506 -158z" />
    <glyph glyph-name="Egrave" unicode="&#xc8;" 
d="M967 1434v-201h-551q-33 0 -51 8l-5 -4q6 -16 7 -53v-256q0 -35 -7 -51l5 -5q18 8 51 9h483v-201h-483q-33 0 -51 8l-5 -4q6 -14 7 -53v-381q0 -37 -7 -53l5 -4q18 8 51 8h559v-201h-821v1434h813z" />
    <glyph glyph-name="Eacute" unicode="&#xc9;" 
d="M967 1434v-201h-551q-33 0 -51 8l-5 -4q6 -16 7 -53v-256q0 -35 -7 -51l5 -5q18 8 51 9h483v-201h-483q-33 0 -51 8l-5 -4q6 -14 7 -53v-381q0 -37 -7 -53l5 -4q18 8 51 8h559v-201h-821v1434h813z" />
    <glyph glyph-name="Ecircumflex" unicode="&#xca;" 
d="M967 1434v-201h-551q-33 0 -51 8l-5 -4q6 -16 7 -53v-256q0 -35 -7 -51l5 -5q18 8 51 9h483v-201h-483q-33 0 -51 8l-5 -4q6 -14 7 -53v-381q0 -37 -7 -53l5 -4q18 8 51 8h559v-201h-821v1434h813z" />
    <glyph glyph-name="Edieresis" unicode="&#xcb;" 
d="M967 1434v-201h-551q-33 0 -51 8l-5 -4q6 -16 7 -53v-256q0 -35 -7 -51l5 -5q18 8 51 9h483v-201h-483q-33 0 -51 8l-5 -4q6 -14 7 -53v-381q0 -37 -7 -53l5 -4q18 8 51 8h559v-201h-821v1434h813z" />
    <glyph glyph-name="Igrave" unicode="&#xcc;" horiz-adv-x="520" 
d="M367 1434v-1434h-213v1434h213z" />
    <glyph glyph-name="Iacute" unicode="&#xcd;" horiz-adv-x="520" 
d="M367 1434v-1434h-213v1434h213z" />
    <glyph glyph-name="Icircumflex" unicode="&#xce;" horiz-adv-x="520" 
d="M367 1434v-1434h-213v1434h213z" />
    <glyph glyph-name="Idieresis" unicode="&#xcf;" horiz-adv-x="520" 
d="M367 1434v-1434h-213v1434h213z" />
    <glyph glyph-name="Eth" unicode="&#xd0;" horiz-adv-x="1411" 
d="M367 248q0 -35 -7 -51l5 -4q18 8 51 8h188q236 0 369 136t133 379t-133 380t-369 137h-188q-33 0 -51 8l-5 -4q6 -16 7 -51v-938zM602 1434q336 0 537 -196t201 -522t-202 -520q-200 -196 -536 -196h-448v1434h448z" />
    <glyph glyph-name="Ntilde" unicode="&#xd1;" horiz-adv-x="1511" 
d="M1145 682v752h213v-1454h-19l-872 872q-80 80 -113 160l-8 -2q20 -78 21 -256v-754h-213v1454h18l872 -872q80 -80 113 -160l8 2q-20 78 -20 258z" />
    <glyph glyph-name="Ograve" unicode="&#xd2;" horiz-adv-x="1638" 
d="M819 1247q-225 1 -369 -149t-144 -381t144 -381t369 -150t370 150q144 150 144 381t-144 381q-145 149 -370 149zM819 1464q326 0 537 -211t211 -537t-211 -536q-211 -211 -537 -211q-327 0 -537 211t-210 537q0 327 210 537t537 210z" />
    <glyph glyph-name="Oacute" unicode="&#xd3;" horiz-adv-x="1638" 
d="M819 1247q-225 1 -369 -149t-144 -381t144 -381t369 -150t370 150q144 150 144 381t-144 381q-145 149 -370 149zM819 1464q326 0 537 -211t211 -537t-211 -536q-211 -211 -537 -211q-327 0 -537 211t-210 537q0 327 210 537t537 210z" />
    <glyph glyph-name="Ocircumflex" unicode="&#xd4;" horiz-adv-x="1638" 
d="M819 1247q-225 1 -369 -149t-144 -381t144 -381t369 -150t370 150q144 150 144 381t-144 381q-145 149 -370 149zM819 1464q326 0 537 -211t211 -537t-211 -536q-211 -211 -537 -211q-327 0 -537 211t-210 537q0 327 210 537t537 210z" />
    <glyph glyph-name="Otilde" unicode="&#xd5;" horiz-adv-x="1638" 
d="M819 1247q-225 1 -369 -149t-144 -381t144 -381t369 -150t370 150q144 150 144 381t-144 381q-145 149 -370 149zM819 1464q326 0 537 -211t211 -537t-211 -536q-211 -211 -537 -211q-327 0 -537 211t-210 537q0 327 210 537t537 210z" />
    <glyph glyph-name="Odieresis" unicode="&#xd6;" horiz-adv-x="1638" 
d="M819 1247q-225 1 -369 -149t-144 -381t144 -381t369 -150t370 150q144 150 144 381t-144 381q-145 149 -370 149zM819 1464q326 0 537 -211t211 -537t-211 -536q-211 -211 -537 -211q-327 0 -537 211t-210 537q0 327 210 537t537 210z" />
    <glyph glyph-name="Oslash" unicode="&#xd8;" horiz-adv-x="1638" 
d="M819 1247q-225 1 -369 -149t-144 -381t144 -381t369 -150t370 150q144 150 144 381t-144 381q-145 149 -370 149zM819 1464q326 0 537 -211t211 -537t-211 -536q-211 -211 -537 -211q-327 0 -537 211t-210 537q0 327 210 537t537 210z" />
    <glyph glyph-name="Ugrave" unicode="&#xd9;" horiz-adv-x="1396" 
d="M1264 1434v-895q0 -262 -154 -415t-412 -153t-412 153t-153 415v895h221v-891q0 -166 93 -260q93 -95 251 -95t251 94t93 261v891h222z" />
    <glyph glyph-name="Uacute" unicode="&#xda;" horiz-adv-x="1396" 
d="M1264 1434v-895q0 -262 -154 -415t-412 -153t-412 153t-153 415v895h221v-891q0 -166 93 -260q93 -95 251 -95t251 94t93 261v891h222z" />
    <glyph glyph-name="Ucircumflex" unicode="&#xdb;" horiz-adv-x="1396" 
d="M1264 1434v-895q0 -262 -154 -415t-412 -153t-412 153t-153 415v895h221v-891q0 -166 93 -260q93 -95 251 -95t251 94t93 261v891h222z" />
    <glyph glyph-name="Udieresis" unicode="&#xdc;" horiz-adv-x="1396" 
d="M1264 1434v-895q0 -262 -154 -415t-412 -153t-412 153t-153 415v895h221v-891q0 -166 93 -260q93 -95 251 -95t251 94t93 261v891h222z" />
    <glyph glyph-name="Yacute" unicode="&#xdd;" horiz-adv-x="1146" 
d="M680 0h-213v573l-457 861h252l211 -441q86 -178 98 -248h4q12 70 99 248l211 441h252l-457 -861v-573z" />
    <glyph glyph-name="Thorn" unicode="&#xde;" horiz-adv-x="1118" 
d="M367 870q0 -37 -7 -53l5 -4q18 8 51 8h200q106 1 164 55t58 150t-58 152t-164 55h-200q-33 0 -51 8l-5 -4q6 -16 7 -53v-314zM614 1434q211 0 332 -109t121 -298t-118 -298t-316 -108h-217q-33 0 -51 8l-5 -4q6 -14 7 -52v-573h-213v1434h460z" />
    <glyph glyph-name="germandbls" unicode="&#xdf;" horiz-adv-x="1691" 
d="M1254 -31q-194 0 -367 101l90 178q156 -90 302 -90t146 90q0 59 -98 106l-172 84q-201 96 -201 275q0 125 88 195t247 69q159 0 329 -74l-82 -174q-147 61 -258 61t-111 -73q0 -61 107 -113l176 -84q190 -90 190 -264q0 -135 -96 -211t-290 -76zM408 -31q-194 0 -367 101
l90 178q156 -90 302 -90t147 90q0 59 -99 106l-172 84q-201 96 -200 275q0 125 88 195q89 70 247 69q158 0 328 -74l-82 -174q-147 61 -258 61t-110 -73q0 -61 106 -113l176 -84q190 -90 191 -264q-1 -135 -97 -211t-290 -76z" />
    <glyph glyph-name="agrave" unicode="&#xe0;" horiz-adv-x="1026" 
d="M479 469q-92 0 -148 -47q-57 -47 -57 -123t56 -121t148 -45q93 0 154 46q60 46 60 121t-60 122q-61 47 -153 47zM524 977q188 0 284 -93q95 -93 95 -292v-592h-203q0 86 29 150l-8 4q-106 -184 -318 -185q-153 0 -247 91t-94 243t94 242t250 90q213 0 313 -158l6 4
q-10 37 -16 131q-12 178 -220 179q-113 0 -272 -52l-55 181q174 57 362 57z" />
    <glyph glyph-name="aacute" unicode="&#xe1;" horiz-adv-x="1026" 
d="M479 469q-92 0 -148 -47q-57 -47 -57 -123t56 -121t148 -45q93 0 154 46q60 46 60 121t-60 122q-61 47 -153 47zM524 977q188 0 284 -93q95 -93 95 -292v-592h-203q0 86 29 150l-8 4q-106 -184 -318 -185q-153 0 -247 91t-94 243t94 242t250 90q213 0 313 -158l6 4
q-10 37 -16 131q-12 178 -220 179q-113 0 -272 -52l-55 181q174 57 362 57z" />
    <glyph glyph-name="acircumflex" unicode="&#xe2;" horiz-adv-x="1026" 
d="M479 469q-92 0 -148 -47q-57 -47 -57 -123t56 -121t148 -45q93 0 154 46q60 46 60 121t-60 122q-61 47 -153 47zM524 977q188 0 284 -93q95 -93 95 -292v-592h-203q0 86 29 150l-8 4q-106 -184 -318 -185q-153 0 -247 91t-94 243t94 242t250 90q213 0 313 -158l6 4
q-10 37 -16 131q-12 178 -220 179q-113 0 -272 -52l-55 181q174 57 362 57z" />
    <glyph glyph-name="atilde" unicode="&#xe3;" horiz-adv-x="1026" 
d="M479 469q-92 0 -148 -47q-57 -47 -57 -123t56 -121t148 -45q93 0 154 46q60 46 60 121t-60 122q-61 47 -153 47zM524 977q188 0 284 -93q95 -93 95 -292v-592h-203q0 86 29 150l-8 4q-106 -184 -318 -185q-153 0 -247 91t-94 243t94 242t250 90q213 0 313 -158l6 4
q-10 37 -16 131q-12 178 -220 179q-113 0 -272 -52l-55 181q174 57 362 57z" />
    <glyph glyph-name="adieresis" unicode="&#xe4;" horiz-adv-x="1026" 
d="M479 469q-92 0 -148 -47q-57 -47 -57 -123t56 -121t148 -45q93 0 154 46q60 46 60 121t-60 122q-61 47 -153 47zM524 977q188 0 284 -93q95 -93 95 -292v-592h-203q0 86 29 150l-8 4q-106 -184 -318 -185q-153 0 -247 91t-94 243t94 242t250 90q213 0 313 -158l6 4
q-10 37 -16 131q-12 178 -220 179q-113 0 -272 -52l-55 181q174 57 362 57z" />
    <glyph glyph-name="aring" unicode="&#xe5;" horiz-adv-x="1026" 
d="M479 469q-92 0 -148 -47q-57 -47 -57 -123t56 -121t148 -45q93 0 154 46q60 46 60 121t-60 122q-61 47 -153 47zM524 977q188 0 284 -93q95 -93 95 -292v-592h-203q0 86 29 150l-8 4q-106 -184 -318 -185q-153 0 -247 91t-94 243t94 242t250 90q213 0 313 -158l6 4
q-10 37 -16 131q-12 178 -220 179q-113 0 -272 -52l-55 181q174 57 362 57z" />
    <glyph glyph-name="ae" unicode="&#xe6;" horiz-adv-x="2082" 
d="M1562 795q-110 1 -182 -59t-86 -167l4 -4q37 20 117 21h240q125 0 151 -19l4 4q-10 106 -74 165t-174 59zM1566 977q214 0 335 -134t120 -370v-39h-608q-94 0 -125 17l-4 -5l8 -24q16 -127 92 -195t201 -67q156 0 287 139l123 -133q-163 -197 -399 -197t-372 137
q-136 136 -136 364t132 368t346 139zM479 469q-92 0 -148 -47q-57 -47 -57 -123t56 -121t148 -45q93 0 154 46q60 46 60 121t-60 122q-61 47 -153 47zM524 977q188 0 284 -93q95 -93 95 -292v-592h-203q0 86 29 150l-8 4q-106 -184 -318 -185q-153 0 -247 91t-94 243t94 242
t250 90q213 0 313 -158l6 4q-10 37 -16 131q-12 178 -220 179q-113 0 -272 -52l-55 181q174 57 362 57z" />
    <glyph glyph-name="ccedilla" unicode="&#xe7;" horiz-adv-x="956" 
d="M582 -31q-232 1 -376 141t-145 363q1 223 145 363t376 141q178 0 323 -96l-94 -170q-109 71 -239 71t-214 -86t-84 -223t84 -223t214 -86t239 72l94 -170q-145 -97 -323 -97z" />
    <glyph glyph-name="egrave" unicode="&#xe8;" 
d="M536 795q-110 1 -182 -59t-86 -167l4 -4q37 20 117 21h240q125 0 151 -19l4 4q-10 106 -74 165t-174 59zM540 977q214 0 334 -134t121 -370v-39h-608q-94 0 -125 17l-4 -5l8 -24q16 -127 92 -195t201 -67q156 0 287 139l123 -133q-163 -197 -399 -197t-372 137
q-136 136 -136 364t132 368t346 139z" />
    <glyph glyph-name="eacute" unicode="&#xe9;" 
d="M536 795q-110 1 -182 -59t-86 -167l4 -4q37 20 117 21h240q125 0 151 -19l4 4q-10 106 -74 165t-174 59zM540 977q214 0 334 -134t121 -370v-39h-608q-94 0 -125 17l-4 -5l8 -24q16 -127 92 -195t201 -67q156 0 287 139l123 -133q-163 -197 -399 -197t-372 137
q-136 136 -136 364t132 368t346 139z" />
    <glyph glyph-name="ecircumflex" unicode="&#xea;" 
d="M536 795q-110 1 -182 -59t-86 -167l4 -4q37 20 117 21h240q125 0 151 -19l4 4q-10 106 -74 165t-174 59zM540 977q214 0 334 -134t121 -370v-39h-608q-94 0 -125 17l-4 -5l8 -24q16 -127 92 -195t201 -67q156 0 287 139l123 -133q-163 -197 -399 -197t-372 137
q-136 136 -136 364t132 368t346 139z" />
    <glyph glyph-name="edieresis" unicode="&#xeb;" 
d="M536 795q-110 1 -182 -59t-86 -167l4 -4q37 20 117 21h240q125 0 151 -19l4 4q-10 106 -74 165t-174 59zM540 977q214 0 334 -134t121 -370v-39h-608q-94 0 -125 17l-4 -5l8 -24q16 -127 92 -195t201 -67q156 0 287 139l123 -133q-163 -197 -399 -197t-372 137
q-136 136 -136 364t132 368t346 139z" />
    <glyph glyph-name="igrave" unicode="&#xec;" horiz-adv-x="466" 
d="M334 946v-946h-201v946h201zM346 1434v-271h-225v271h225z" />
    <glyph glyph-name="iacute" unicode="&#xed;" horiz-adv-x="466" 
d="M334 946v-946h-201v946h201zM346 1434v-271h-225v271h225z" />
    <glyph glyph-name="icircumflex" unicode="&#xee;" horiz-adv-x="466" 
d="M334 946v-946h-201v946h201zM346 1434v-271h-225v271h225z" />
    <glyph glyph-name="idieresis" unicode="&#xef;" horiz-adv-x="466" 
d="M334 946v-946h-201v946h201zM346 1434v-271h-225v271h225z" />
    <glyph glyph-name="ntilde" unicode="&#xf1;" horiz-adv-x="1126" 
d="M803 565q0 221 -205 221q-127 0 -196 -87t-68 -244v-455h-201v946h201q0 -131 -21 -217l9 -2q98 250 344 250q162 0 250 -92t88 -262v-623h-201v565z" />
    <glyph glyph-name="ograve" unicode="&#xf2;" horiz-adv-x="1159" 
d="M580 780q-138 0 -222 -85t-84 -222t84 -222t222 -85t221 85q84 85 84 222t-84 222t-221 85zM580 977q223 0 370 -143q148 -142 148 -360t-148 -361t-370 -143t-370 142q-148 144 -149 361q0 217 148 361t371 143z" />
    <glyph glyph-name="oacute" unicode="&#xf3;" horiz-adv-x="1159" 
d="M580 780q-138 0 -222 -85t-84 -222t84 -222t222 -85t221 85q84 85 84 222t-84 222t-221 85zM580 977q223 0 370 -143q148 -142 148 -360t-148 -361t-370 -143t-370 142q-148 144 -149 361q0 217 148 361t371 143z" />
    <glyph glyph-name="ocircumflex" unicode="&#xf4;" horiz-adv-x="1159" 
d="M580 780q-138 0 -222 -85t-84 -222t84 -222t222 -85t221 85q84 85 84 222t-84 222t-221 85zM580 977q223 0 370 -143q148 -142 148 -360t-148 -361t-370 -143t-370 142q-148 144 -149 361q0 217 148 361t371 143z" />
    <glyph glyph-name="otilde" unicode="&#xf5;" horiz-adv-x="1159" 
d="M580 780q-138 0 -222 -85t-84 -222t84 -222t222 -85t221 85q84 85 84 222t-84 222t-221 85zM580 977q223 0 370 -143q148 -142 148 -360t-148 -361t-370 -143t-370 142q-148 144 -149 361q0 217 148 361t371 143z" />
    <glyph glyph-name="odieresis" unicode="&#xf6;" horiz-adv-x="1159" 
d="M580 780q-138 0 -222 -85t-84 -222t84 -222t222 -85t221 85q84 85 84 222t-84 222t-221 85zM580 977q223 0 370 -143q148 -142 148 -360t-148 -361t-370 -143t-370 142q-148 144 -149 361q0 217 148 361t371 143z" />
    <glyph glyph-name="oslash" unicode="&#xf8;" horiz-adv-x="1159" 
d="M580 780q-138 0 -222 -85t-84 -222t84 -222t222 -85t221 85q84 85 84 222t-84 222t-221 85zM580 977q223 0 370 -143q148 -142 148 -360t-148 -361t-370 -143t-370 142q-148 144 -149 361q0 217 148 361t371 143z" />
    <glyph glyph-name="ugrave" unicode="&#xf9;" horiz-adv-x="1073" 
d="M950 946v-946h-198q0 106 22 197l-8 2q-96 -229 -326 -230q-154 1 -240 103t-87 282v592h204v-555q-1 -113 53 -172t158 -59t162 86q59 86 60 243v457h200z" />
    <glyph glyph-name="uacute" unicode="&#xfa;" horiz-adv-x="1073" 
d="M950 946v-946h-198q0 106 22 197l-8 2q-96 -229 -326 -230q-154 1 -240 103t-87 282v592h204v-555q-1 -113 53 -172t158 -59t162 86q59 86 60 243v457h200z" />
    <glyph glyph-name="ucircumflex" unicode="&#xfb;" horiz-adv-x="1073" 
d="M950 946v-946h-198q0 106 22 197l-8 2q-96 -229 -326 -230q-154 1 -240 103t-87 282v592h204v-555q-1 -113 53 -172t158 -59t162 86q59 86 60 243v457h200z" />
    <glyph glyph-name="udieresis" unicode="&#xfc;" horiz-adv-x="1073" 
d="M950 946v-946h-198q0 106 22 197l-8 2q-96 -229 -326 -230q-154 1 -240 103t-87 282v592h204v-555q-1 -113 53 -172t158 -59t162 86q59 86 60 243v457h200z" />
    <glyph glyph-name="yacute" unicode="&#xfd;" horiz-adv-x="1015" 
d="M995 946l-571 -1358h-209l201 473l-396 885h230l215 -522q41 -102 43 -184h8q2 72 35 151l225 555h219z" />
    <glyph glyph-name="thorn" unicode="&#xfe;" horiz-adv-x="1191" 
d="M918 473q0 147 -76 231t-210 84t-220 -88t-86 -227t86 -227t220 -88t210 84t76 231zM672 977q202 0 330 -141q128 -140 128 -362t-129 -363t-329 -142q-244 0 -348 215l-9 -2q18 -68 19 -198v-394h-201v1356h195q0 -131 -13 -182l9 -2q106 215 348 215z" />
    <glyph glyph-name="ydieresis" unicode="&#xff;" horiz-adv-x="1015" 
d="M995 946l-571 -1358h-209l201 473l-396 885h230l215 -522q41 -102 43 -184h8q2 72 35 151l225 555h219z" />
    <glyph glyph-name="Amacron" unicode="&#x100;" horiz-adv-x="1425" 
d="M602 559h221q78 0 115 -4l2 2q-35 43 -66 117l-106 252q-45 109 -51 164h-8q-6 -55 -52 -164l-106 -252q-31 -74 -66 -117l2 -2q37 4 115 4zM20 0l682 1464h21l682 -1464h-240l-168 377h-569l-168 -377h-240z" />
    <glyph glyph-name="amacron" unicode="&#x101;" horiz-adv-x="1026" 
d="M479 469q-92 0 -148 -47q-57 -47 -57 -123t56 -121t148 -45q93 0 154 46q60 46 60 121t-60 122q-61 47 -153 47zM524 977q188 0 284 -93q95 -93 95 -292v-592h-203q0 86 29 150l-8 4q-106 -184 -318 -185q-153 0 -247 91t-94 243t94 242t250 90q213 0 313 -158l6 4
q-10 37 -16 131q-12 178 -220 179q-113 0 -272 -52l-55 181q174 57 362 57z" />
    <glyph glyph-name="Abreve" unicode="&#x102;" horiz-adv-x="1425" 
d="M602 559h221q78 0 115 -4l2 2q-35 43 -66 117l-106 252q-45 109 -51 164h-8q-6 -55 -52 -164l-106 -252q-31 -74 -66 -117l2 -2q37 4 115 4zM20 0l682 1464h21l682 -1464h-240l-168 377h-569l-168 -377h-240z" />
    <glyph glyph-name="abreve" unicode="&#x103;" horiz-adv-x="1026" 
d="M479 469q-92 0 -148 -47q-57 -47 -57 -123t56 -121t148 -45q93 0 154 46q60 46 60 121t-60 122q-61 47 -153 47zM524 977q188 0 284 -93q95 -93 95 -292v-592h-203q0 86 29 150l-8 4q-106 -184 -318 -185q-153 0 -247 91t-94 243t94 242t250 90q213 0 313 -158l6 4
q-10 37 -16 131q-12 178 -220 179q-113 0 -272 -52l-55 181q174 57 362 57z" />
    <glyph glyph-name="Aogonek" unicode="&#x104;" horiz-adv-x="1425" 
d="M602 559h221q78 0 115 -4l2 2q-35 43 -66 117l-106 252q-45 109 -51 164h-8q-6 -55 -52 -164l-106 -252q-31 -74 -66 -117l2 -2q37 4 115 4zM20 0l682 1464h21l682 -1464h-240l-168 377h-569l-168 -377h-240z" />
    <glyph glyph-name="aogonek" unicode="&#x105;" horiz-adv-x="1026" 
d="M479 469q-92 0 -148 -47q-57 -47 -57 -123t56 -121t148 -45q93 0 154 46q60 46 60 121t-60 122q-61 47 -153 47zM524 977q188 0 284 -93q95 -93 95 -292v-592h-203q0 86 29 150l-8 4q-106 -184 -318 -185q-153 0 -247 91t-94 243t94 242t250 90q213 0 313 -158l6 4
q-10 37 -16 131q-12 178 -220 179q-113 0 -272 -52l-55 181q174 57 362 57z" />
    <glyph glyph-name="Cacute" unicode="&#x106;" horiz-adv-x="1396" 
d="M840 -31q-342 0 -555 207t-213 541q0 335 213 541t555 206q287 0 506 -157l-132 -187q-174 127 -395 127t-367 -147t-146 -383t146 -383q146 -148 367 -148t395 127l132 -186q-219 -158 -506 -158z" />
    <glyph glyph-name="cacute" unicode="&#x107;" horiz-adv-x="956" 
d="M582 -31q-232 1 -376 141t-145 363q1 223 145 363t376 141q178 0 323 -96l-94 -170q-109 71 -239 71t-214 -86t-84 -223t84 -223t214 -86t239 72l94 -170q-145 -97 -323 -97z" />
    <glyph glyph-name="Ccircumflex" unicode="&#x108;" horiz-adv-x="1396" 
d="M840 -31q-342 0 -555 207t-213 541q0 335 213 541t555 206q287 0 506 -157l-132 -187q-174 127 -395 127t-367 -147t-146 -383t146 -383q146 -148 367 -148t395 127l132 -186q-219 -158 -506 -158z" />
    <glyph glyph-name="ccircumflex" unicode="&#x109;" horiz-adv-x="956" 
d="M582 -31q-232 1 -376 141t-145 363q1 223 145 363t376 141q178 0 323 -96l-94 -170q-109 71 -239 71t-214 -86t-84 -223t84 -223t214 -86t239 72l94 -170q-145 -97 -323 -97z" />
    <glyph glyph-name="Cdotaccent" unicode="&#x10a;" horiz-adv-x="1396" 
d="M840 -31q-342 0 -555 207t-213 541q0 335 213 541t555 206q287 0 506 -157l-132 -187q-174 127 -395 127t-367 -147t-146 -383t146 -383q146 -148 367 -148t395 127l132 -186q-219 -158 -506 -158z" />
    <glyph glyph-name="cdotaccent" unicode="&#x10b;" horiz-adv-x="956" 
d="M582 -31q-232 1 -376 141t-145 363q1 223 145 363t376 141q178 0 323 -96l-94 -170q-109 71 -239 71t-214 -86t-84 -223t84 -223t214 -86t239 72l94 -170q-145 -97 -323 -97z" />
    <glyph glyph-name="Ccaron" unicode="&#x10c;" horiz-adv-x="1396" 
d="M840 -31q-342 0 -555 207t-213 541q0 335 213 541t555 206q287 0 506 -157l-132 -187q-174 127 -395 127t-367 -147t-146 -383t146 -383q146 -148 367 -148t395 127l132 -186q-219 -158 -506 -158z" />
    <glyph glyph-name="ccaron" unicode="&#x10d;" horiz-adv-x="956" 
d="M582 -31q-232 1 -376 141t-145 363q1 223 145 363t376 141q178 0 323 -96l-94 -170q-109 71 -239 71t-214 -86t-84 -223t84 -223t214 -86t239 72l94 -170q-145 -97 -323 -97z" />
    <glyph glyph-name="Dcaron" unicode="&#x10e;" horiz-adv-x="1411" 
d="M367 248q0 -35 -7 -51l5 -4q18 8 51 8h188q236 0 369 136t133 379t-133 380t-369 137h-188q-33 0 -51 8l-5 -4q6 -16 7 -51v-938zM602 1434q336 0 537 -196t201 -522t-202 -520q-200 -196 -536 -196h-448v1434h448z" />
    <glyph glyph-name="dcaron" unicode="&#x10f;" horiz-adv-x="1191" 
d="M560 158q134 0 220 88t86 227t-86 227t-220 88t-210 -84t-76 -230q0 -148 76 -232t210 -84zM520 -31q-201 -1 -330 141t-129 363t129 363t330 141q248 0 348 -215l9 2q-18 68 -19 205v495h201v-1464h-195q0 131 13 182l-9 2q-100 -215 -348 -215z" />
    <glyph glyph-name="Dcroat" unicode="&#x110;" horiz-adv-x="1411" 
d="M367 248q0 -35 -7 -51l5 -4q18 8 51 8h188q236 0 369 136t133 379t-133 380t-369 137h-188q-33 0 -51 8l-5 -4q6 -16 7 -51v-938zM602 1434q336 0 537 -196t201 -522t-202 -520q-200 -196 -536 -196h-448v1434h448z" />
    <glyph glyph-name="dcroat" unicode="&#x111;" horiz-adv-x="1191" 
d="M560 158q134 0 220 88t86 227t-86 227t-220 88t-210 -84t-76 -230q0 -148 76 -232t210 -84zM520 -31q-201 -1 -330 141t-129 363t129 363t330 141q248 0 348 -215l9 2q-18 68 -19 205v495h201v-1464h-195q0 131 13 182l-9 2q-100 -215 -348 -215z" />
    <glyph glyph-name="Emacron" unicode="&#x112;" 
d="M967 1434v-201h-551q-33 0 -51 8l-5 -4q6 -16 7 -53v-256q0 -35 -7 -51l5 -5q18 8 51 9h483v-201h-483q-33 0 -51 8l-5 -4q6 -14 7 -53v-381q0 -37 -7 -53l5 -4q18 8 51 8h559v-201h-821v1434h813z" />
    <glyph glyph-name="emacron" unicode="&#x113;" 
d="M536 795q-110 1 -182 -59t-86 -167l4 -4q37 20 117 21h240q125 0 151 -19l4 4q-10 106 -74 165t-174 59zM540 977q214 0 334 -134t121 -370v-39h-608q-94 0 -125 17l-4 -5l8 -24q16 -127 92 -195t201 -67q156 0 287 139l123 -133q-163 -197 -399 -197t-372 137
q-136 136 -136 364t132 368t346 139z" />
    <glyph glyph-name="Ebreve" unicode="&#x114;" 
d="M967 1434v-201h-551q-33 0 -51 8l-5 -4q6 -16 7 -53v-256q0 -35 -7 -51l5 -5q18 8 51 9h483v-201h-483q-33 0 -51 8l-5 -4q6 -14 7 -53v-381q0 -37 -7 -53l5 -4q18 8 51 8h559v-201h-821v1434h813z" />
    <glyph glyph-name="ebreve" unicode="&#x115;" 
d="M536 795q-110 1 -182 -59t-86 -167l4 -4q37 20 117 21h240q125 0 151 -19l4 4q-10 106 -74 165t-174 59zM540 977q214 0 334 -134t121 -370v-39h-608q-94 0 -125 17l-4 -5l8 -24q16 -127 92 -195t201 -67q156 0 287 139l123 -133q-163 -197 -399 -197t-372 137
q-136 136 -136 364t132 368t346 139z" />
    <glyph glyph-name="Edotaccent" unicode="&#x116;" 
d="M967 1434v-201h-551q-33 0 -51 8l-5 -4q6 -16 7 -53v-256q0 -35 -7 -51l5 -5q18 8 51 9h483v-201h-483q-33 0 -51 8l-5 -4q6 -14 7 -53v-381q0 -37 -7 -53l5 -4q18 8 51 8h559v-201h-821v1434h813z" />
    <glyph glyph-name="edotaccent" unicode="&#x117;" 
d="M536 795q-110 1 -182 -59t-86 -167l4 -4q37 20 117 21h240q125 0 151 -19l4 4q-10 106 -74 165t-174 59zM540 977q214 0 334 -134t121 -370v-39h-608q-94 0 -125 17l-4 -5l8 -24q16 -127 92 -195t201 -67q156 0 287 139l123 -133q-163 -197 -399 -197t-372 137
q-136 136 -136 364t132 368t346 139z" />
    <glyph glyph-name="Eogonek" unicode="&#x118;" 
d="M967 1434v-201h-551q-33 0 -51 8l-5 -4q6 -16 7 -53v-256q0 -35 -7 -51l5 -5q18 8 51 9h483v-201h-483q-33 0 -51 8l-5 -4q6 -14 7 -53v-381q0 -37 -7 -53l5 -4q18 8 51 8h559v-201h-821v1434h813z" />
    <glyph glyph-name="eogonek" unicode="&#x119;" 
d="M536 795q-110 1 -182 -59t-86 -167l4 -4q37 20 117 21h240q125 0 151 -19l4 4q-10 106 -74 165t-174 59zM540 977q214 0 334 -134t121 -370v-39h-608q-94 0 -125 17l-4 -5l8 -24q16 -127 92 -195t201 -67q156 0 287 139l123 -133q-163 -197 -399 -197t-372 137
q-136 136 -136 364t132 368t346 139z" />
    <glyph glyph-name="Ecaron" unicode="&#x11a;" 
d="M967 1434v-201h-551q-33 0 -51 8l-5 -4q6 -16 7 -53v-256q0 -35 -7 -51l5 -5q18 8 51 9h483v-201h-483q-33 0 -51 8l-5 -4q6 -14 7 -53v-381q0 -37 -7 -53l5 -4q18 8 51 8h559v-201h-821v1434h813z" />
    <glyph glyph-name="ecaron" unicode="&#x11b;" 
d="M536 795q-110 1 -182 -59t-86 -167l4 -4q37 20 117 21h240q125 0 151 -19l4 4q-10 106 -74 165t-174 59zM540 977q214 0 334 -134t121 -370v-39h-608q-94 0 -125 17l-4 -5l8 -24q16 -127 92 -195t201 -67q156 0 287 139l123 -133q-163 -197 -399 -197t-372 137
q-136 136 -136 364t132 368t346 139z" />
    <glyph glyph-name="Gcircumflex" unicode="&#x11c;" horiz-adv-x="1601" 
d="M72 712q0 332 210 542t541 210q330 0 557 -192l-143 -178q-167 154 -407 154t-383 -151q-142 -151 -142 -382q1 -231 147 -379t378 -150q232 0 359 130q128 130 132 288l-4 4q-29 -18 -137 -18h-342v201h712v-78q0 -295 -176 -512q-86 -107 -227 -169t-318 -63
q-329 0 -543 205t-214 538z" />
    <glyph glyph-name="gcircumflex" unicode="&#x11d;" horiz-adv-x="1179" 
d="M559 788q-135 0 -210 -84t-75 -230q0 -148 75 -232t210 -84t221 88t86 227t-86 227t-221 88zM518 977q248 0 348 -215l8 2q-18 49 -18 182h201v-903q0 -483 -516 -483q-244 0 -418 112l98 181q157 -101 309 -101t242 71t90 181v41q0 88 12 137l-8 2q-104 -213 -348 -213
q-201 1 -329 141t-128 361t128 363t329 141z" />
    <glyph glyph-name="Gbreve" unicode="&#x11e;" horiz-adv-x="1601" 
d="M72 712q0 332 210 542t541 210q330 0 557 -192l-143 -178q-167 154 -407 154t-383 -151q-142 -151 -142 -382q1 -231 147 -379t378 -150q232 0 359 130q128 130 132 288l-4 4q-29 -18 -137 -18h-342v201h712v-78q0 -295 -176 -512q-86 -107 -227 -169t-318 -63
q-329 0 -543 205t-214 538z" />
    <glyph glyph-name="gbreve" unicode="&#x11f;" horiz-adv-x="1179" 
d="M559 788q-135 0 -210 -84t-75 -230q0 -148 75 -232t210 -84t221 88t86 227t-86 227t-221 88zM518 977q248 0 348 -215l8 2q-18 49 -18 182h201v-903q0 -483 -516 -483q-244 0 -418 112l98 181q157 -101 309 -101t242 71t90 181v41q0 88 12 137l-8 2q-104 -213 -348 -213
q-201 1 -329 141t-128 361t128 363t329 141z" />
    <glyph glyph-name="Gdotaccent" unicode="&#x120;" horiz-adv-x="1601" 
d="M72 712q0 332 210 542t541 210q330 0 557 -192l-143 -178q-167 154 -407 154t-383 -151q-142 -151 -142 -382q1 -231 147 -379t378 -150q232 0 359 130q128 130 132 288l-4 4q-29 -18 -137 -18h-342v201h712v-78q0 -295 -176 -512q-86 -107 -227 -169t-318 -63
q-329 0 -543 205t-214 538z" />
    <glyph glyph-name="gdotaccent" unicode="&#x121;" horiz-adv-x="1179" 
d="M559 788q-135 0 -210 -84t-75 -230q0 -148 75 -232t210 -84t221 88t86 227t-86 227t-221 88zM518 977q248 0 348 -215l8 2q-18 49 -18 182h201v-903q0 -483 -516 -483q-244 0 -418 112l98 181q157 -101 309 -101t242 71t90 181v41q0 88 12 137l-8 2q-104 -213 -348 -213
q-201 1 -329 141t-128 361t128 363t329 141z" />
    <glyph glyph-name="Gcommaaccent" unicode="&#x122;" horiz-adv-x="1601" 
d="M72 712q0 332 210 542t541 210q330 0 557 -192l-143 -178q-167 154 -407 154t-383 -151q-142 -151 -142 -382q1 -231 147 -379t378 -150q232 0 359 130q128 130 132 288l-4 4q-29 -18 -137 -18h-342v201h712v-78q0 -295 -176 -512q-86 -107 -227 -169t-318 -63
q-329 0 -543 205t-214 538z" />
    <glyph glyph-name="gcommaaccent" unicode="&#x123;" horiz-adv-x="1179" 
d="M559 788q-135 0 -210 -84t-75 -230q0 -148 75 -232t210 -84t221 88t86 227t-86 227t-221 88zM518 977q248 0 348 -215l8 2q-18 49 -18 182h201v-903q0 -483 -516 -483q-244 0 -418 112l98 181q157 -101 309 -101t242 71t90 181v41q0 88 12 137l-8 2q-104 -213 -348 -213
q-201 1 -329 141t-128 361t128 363t329 141z" />
    <glyph glyph-name="Hcircumflex" unicode="&#x124;" horiz-adv-x="1458" 
d="M1305 1434v-1434h-213v608q0 35 6 51l-4 5q-18 -8 -52 -9h-626q-33 0 -51 9l-5 -5q6 -16 7 -51v-608h-213v1434h213v-527q0 -35 -7 -51l5 -4q18 8 51 8h626q33 0 52 -8l4 4q-6 16 -6 51v527h213z" />
    <glyph glyph-name="hcircumflex" unicode="&#x125;" horiz-adv-x="1126" 
d="M803 565q0 221 -205 221q-127 0 -196 -87t-68 -244v-455h-201v1464h201v-512q0 -104 -21 -204l9 -3q104 231 348 232q158 0 246 -93t88 -261v-623h-201v565z" />
    <glyph glyph-name="Hbar" unicode="&#x126;" horiz-adv-x="1458" 
d="M1305 1434v-1434h-213v608q0 35 6 51l-4 5q-18 -8 -52 -9h-626q-33 0 -51 9l-5 -5q6 -16 7 -51v-608h-213v1434h213v-527q0 -35 -7 -51l5 -4q18 8 51 8h626q33 0 52 -8l4 4q-6 16 -6 51v527h213z" />
    <glyph glyph-name="hbar" unicode="&#x127;" horiz-adv-x="1126" 
d="M803 565q0 221 -205 221q-127 0 -196 -87t-68 -244v-455h-201v1464h201v-512q0 -104 -21 -204l9 -3q104 231 348 232q158 0 246 -93t88 -261v-623h-201v565z" />
    <glyph glyph-name="Itilde" unicode="&#x128;" horiz-adv-x="520" 
d="M367 1434v-1434h-213v1434h213z" />
    <glyph glyph-name="itilde" unicode="&#x129;" horiz-adv-x="466" 
d="M334 946v-946h-201v946h201zM346 1434v-271h-225v271h225z" />
    <glyph glyph-name="Imacron" unicode="&#x12a;" horiz-adv-x="520" 
d="M367 1434v-1434h-213v1434h213z" />
    <glyph glyph-name="imacron" unicode="&#x12b;" horiz-adv-x="466" 
d="M334 946v-946h-201v946h201zM346 1434v-271h-225v271h225z" />
    <glyph glyph-name="Ibreve" unicode="&#x12c;" horiz-adv-x="520" 
d="M367 1434v-1434h-213v1434h213z" />
    <glyph glyph-name="ibreve" unicode="&#x12d;" horiz-adv-x="466" 
d="M334 946v-946h-201v946h201zM346 1434v-271h-225v271h225z" />
    <glyph glyph-name="Iogonek" unicode="&#x12e;" horiz-adv-x="520" 
d="M367 1434v-1434h-213v1434h213z" />
    <glyph glyph-name="iogonek" unicode="&#x12f;" horiz-adv-x="466" 
d="M334 946v-946h-201v946h201zM346 1434v-271h-225v271h225z" />
    <glyph glyph-name="Idotaccent" unicode="&#x130;" horiz-adv-x="520" 
d="M367 1434v-1434h-213v1434h213z" />
    <glyph glyph-name="dotlessi" unicode="&#x131;" horiz-adv-x="466" 
d="M334 946v-946h-201v946h201zM346 1434v-271h-225v271h225z" />
    <glyph glyph-name="IJ" unicode="&#x132;" horiz-adv-x="1136" 
d="M983 1434v-1080q0 -188 -77 -276t-238 -88q-41 0 -97 6v201q31 -2 85 -2q54 1 84 33t30 118v1088h213zM367 1434v-1434h-213v1434h213z" />
    <glyph glyph-name="ij" unicode="&#x133;" horiz-adv-x="933" 
d="M801 946v-987q1 -203 -97 -301t-276 -98h-14v196h14q172 0 172 203v987h201zM813 1434v-271h-225v271h225zM334 946v-946h-201v946h201zM346 1434v-271h-225v271h225z" />
    <glyph glyph-name="Jcircumflex" unicode="&#x134;" horiz-adv-x="616" 
d="M463 1434v-1080q0 -188 -77 -276t-239 -88q-41 0 -96 6v201q31 -2 85 -2q54 1 84 33t30 118v1088h213z" />
    <glyph glyph-name="jcircumflex" unicode="&#x135;" horiz-adv-x="466" 
d="M334 946v-987q0 -203 -97 -301t-276 -98h-14v196h14q172 0 172 203v987h201zM346 1434v-271h-225v271h225z" />
    <glyph glyph-name="Kcommaaccent" unicode="&#x136;" horiz-adv-x="1261" 
d="M367 0h-213v1434h213v-404q0 -143 -17 -237l6 -5l543 646h287l-490 -566q-68 -74 -108 -100v-8q39 -25 96 -92l567 -668h-286l-609 731l-6 -2q16 -98 17 -240v-489z" />
    <glyph glyph-name="kcommaaccent" unicode="&#x137;" horiz-adv-x="1003" 
d="M334 1464v-747q0 -123 -17 -187l7 -2l364 418h262l-334 -352q-55 -59 -92 -78v-8q33 -16 86 -68l394 -440h-267l-413 481l-7 -4q16 -59 17 -182v-295h-201v1464h201z" />
    <glyph glyph-name="kgreenlandic" unicode="&#x138;" horiz-adv-x="1003" 
d="M334 1464v-747q0 -123 -17 -187l7 -2l364 418h262l-334 -352q-55 -59 -92 -78v-8q33 -16 86 -68l394 -440h-267l-413 481l-7 -4q16 -59 17 -182v-295h-201v1464h201z" />
    <glyph glyph-name="Lacute" unicode="&#x139;" horiz-adv-x="1001" 
d="M367 1434v-1182q0 -35 -7 -51l5 -4q18 8 51 8h565v-205h-827v1434h213z" />
    <glyph glyph-name="lacute" unicode="&#x13a;" horiz-adv-x="466" 
d="M334 1464v-1464h-201v1464h201z" />
    <glyph glyph-name="Lcommaaccent" unicode="&#x13b;" horiz-adv-x="1001" 
d="M367 1434v-1182q0 -35 -7 -51l5 -4q18 8 51 8h565v-205h-827v1434h213z" />
    <glyph glyph-name="lcommaaccent" unicode="&#x13c;" horiz-adv-x="466" 
d="M334 1464v-1464h-201v1464h201z" />
    <glyph glyph-name="Lcaron" unicode="&#x13d;" horiz-adv-x="1001" 
d="M367 1434v-1182q0 -35 -7 -51l5 -4q18 8 51 8h565v-205h-827v1434h213z" />
    <glyph glyph-name="lcaron" unicode="&#x13e;" horiz-adv-x="466" 
d="M334 1464v-1464h-201v1464h201z" />
    <glyph glyph-name="Ldot" unicode="&#x13f;" horiz-adv-x="1001" 
d="M367 1434v-1182q0 -35 -7 -51l5 -4q18 8 51 8h565v-205h-827v1434h213z" />
    <glyph glyph-name="ldot" unicode="&#x140;" horiz-adv-x="466" 
d="M334 1464v-1464h-201v1464h201z" />
    <glyph glyph-name="Lslash" unicode="&#x141;" horiz-adv-x="1001" 
d="M367 1434v-1182q0 -35 -7 -51l5 -4q18 8 51 8h565v-205h-827v1434h213z" />
    <glyph glyph-name="lslash" unicode="&#x142;" horiz-adv-x="466" 
d="M334 1464v-1464h-201v1464h201z" />
    <glyph glyph-name="Nacute" unicode="&#x143;" horiz-adv-x="1511" 
d="M1145 682v752h213v-1454h-19l-872 872q-80 80 -113 160l-8 -2q20 -78 21 -256v-754h-213v1454h18l872 -872q80 -80 113 -160l8 2q-20 78 -20 258z" />
    <glyph glyph-name="nacute" unicode="&#x144;" horiz-adv-x="1126" 
d="M803 565q0 221 -205 221q-127 0 -196 -87t-68 -244v-455h-201v946h201q0 -131 -21 -217l9 -2q98 250 344 250q162 0 250 -92t88 -262v-623h-201v565z" />
    <glyph glyph-name="Ncommaaccent" unicode="&#x145;" horiz-adv-x="1511" 
d="M1145 682v752h213v-1454h-19l-872 872q-80 80 -113 160l-8 -2q20 -78 21 -256v-754h-213v1454h18l872 -872q80 -80 113 -160l8 2q-20 78 -20 258z" />
    <glyph glyph-name="ncommaaccent" unicode="&#x146;" horiz-adv-x="1126" 
d="M803 565q0 221 -205 221q-127 0 -196 -87t-68 -244v-455h-201v946h201q0 -131 -21 -217l9 -2q98 250 344 250q162 0 250 -92t88 -262v-623h-201v565z" />
    <glyph glyph-name="Ncaron" unicode="&#x147;" horiz-adv-x="1511" 
d="M1145 682v752h213v-1454h-19l-872 872q-80 80 -113 160l-8 -2q20 -78 21 -256v-754h-213v1454h18l872 -872q80 -80 113 -160l8 2q-20 78 -20 258z" />
    <glyph glyph-name="ncaron" unicode="&#x148;" horiz-adv-x="1126" 
d="M803 565q0 221 -205 221q-127 0 -196 -87t-68 -244v-455h-201v946h201q0 -131 -21 -217l9 -2q98 250 344 250q162 0 250 -92t88 -262v-623h-201v565z" />
    <glyph glyph-name="napostrophe" unicode="&#x149;" horiz-adv-x="1126" 
d="M803 565q0 221 -205 221q-127 0 -196 -87t-68 -244v-455h-201v946h201q0 -131 -21 -217l9 -2q98 250 344 250q162 0 250 -92t88 -262v-623h-201v565z" />
    <glyph glyph-name="Eng" unicode="&#x14a;" horiz-adv-x="1511" 
d="M1145 682v752h213v-1454h-19l-872 872q-80 80 -113 160l-8 -2q20 -78 21 -256v-754h-213v1454h18l872 -872q80 -80 113 -160l8 2q-20 78 -20 258z" />
    <glyph glyph-name="eng" unicode="&#x14b;" horiz-adv-x="1126" 
d="M803 565q0 221 -205 221q-127 0 -196 -87t-68 -244v-455h-201v946h201q0 -131 -21 -217l9 -2q98 250 344 250q162 0 250 -92t88 -262v-623h-201v565z" />
    <glyph glyph-name="Omacron" unicode="&#x14c;" horiz-adv-x="1638" 
d="M819 1247q-225 1 -369 -149t-144 -381t144 -381t369 -150t370 150q144 150 144 381t-144 381q-145 149 -370 149zM819 1464q326 0 537 -211t211 -537t-211 -536q-211 -211 -537 -211q-327 0 -537 211t-210 537q0 327 210 537t537 210z" />
    <glyph glyph-name="omacron" unicode="&#x14d;" horiz-adv-x="1159" 
d="M580 780q-138 0 -222 -85t-84 -222t84 -222t222 -85t221 85q84 85 84 222t-84 222t-221 85zM580 977q223 0 370 -143q148 -142 148 -360t-148 -361t-370 -143t-370 142q-148 144 -149 361q0 217 148 361t371 143z" />
    <glyph glyph-name="Obreve" unicode="&#x14e;" horiz-adv-x="1638" 
d="M819 1247q-225 1 -369 -149t-144 -381t144 -381t369 -150t370 150q144 150 144 381t-144 381q-145 149 -370 149zM819 1464q326 0 537 -211t211 -537t-211 -536q-211 -211 -537 -211q-327 0 -537 211t-210 537q0 327 210 537t537 210z" />
    <glyph glyph-name="obreve" unicode="&#x14f;" horiz-adv-x="1159" 
d="M580 780q-138 0 -222 -85t-84 -222t84 -222t222 -85t221 85q84 85 84 222t-84 222t-221 85zM580 977q223 0 370 -143q148 -142 148 -360t-148 -361t-370 -143t-370 142q-148 144 -149 361q0 217 148 361t371 143z" />
    <glyph glyph-name="Ohungarumlaut" unicode="&#x150;" horiz-adv-x="1638" 
d="M819 1247q-225 1 -369 -149t-144 -381t144 -381t369 -150t370 150q144 150 144 381t-144 381q-145 149 -370 149zM819 1464q326 0 537 -211t211 -537t-211 -536q-211 -211 -537 -211q-327 0 -537 211t-210 537q0 327 210 537t537 210z" />
    <glyph glyph-name="ohungarumlaut" unicode="&#x151;" horiz-adv-x="1159" 
d="M580 780q-138 0 -222 -85t-84 -222t84 -222t222 -85t221 85q84 85 84 222t-84 222t-221 85zM580 977q223 0 370 -143q148 -142 148 -360t-148 -361t-370 -143t-370 142q-148 144 -149 361q0 217 148 361t371 143z" />
    <glyph glyph-name="OE" unicode="&#x152;" horiz-adv-x="2695" 
d="M2605 1434v-201h-551q-33 0 -51 8l-4 -4q6 -16 6 -53v-256q0 -35 -6 -51l4 -5q18 8 51 9h483v-201h-483q-33 0 -51 8l-4 -4q6 -16 6 -53v-381q0 -37 -6 -53l4 -4q18 8 51 8h559v-201h-821v1434h813zM819 1247q-225 1 -369 -149t-144 -381t144 -381t369 -150t370 150
q144 150 144 381t-144 381q-145 149 -370 149zM819 1464q326 0 537 -211t211 -537t-211 -536q-211 -211 -537 -211q-327 0 -537 211t-210 537q0 327 210 537t537 210z" />
    <glyph glyph-name="oe" unicode="&#x153;" horiz-adv-x="2215" 
d="M1695 795q-110 1 -182 -59t-86 -167l5 -4q37 20 116 21h240q125 0 151 -19l5 4q-10 106 -74 165t-175 59zM1221 470q0 228 132 368t346 139q214 0 335 -134t120 -370v-39h-608q-94 0 -125 17l-4 -5l8 -24q17 -127 93 -195t200 -67q156 0 287 139l123 -133
q-164 -197 -400 -197t-371 137q-136 136 -136 364zM580 780q-138 0 -222 -85t-84 -222t84 -222t222 -85t221 85q84 85 84 222t-84 222t-221 85zM580 977q223 0 370 -143q148 -142 148 -360t-148 -361t-370 -143t-370 142q-148 144 -149 361q0 217 148 361t371 143z" />
    <glyph glyph-name="Racute" unicode="&#x154;" horiz-adv-x="1226" 
d="M367 893q0 -37 -7 -51l5 -4q18 8 51 8h209q100 0 154 50q55 50 55 139t-54 143t-155 55h-209q-33 0 -51 8l-5 -4q6 -16 7 -53v-291zM623 1434q203 0 321 -106t119 -282q0 -176 -113 -282t-243 -107q-35 0 -72 11v-9q74 -25 147 -116l435 -543h-277l-506 641h-20
q-33 0 -49 8l-5 -4q6 -18 7 -55v-590h-213v1434h469z" />
    <glyph glyph-name="racute" unicode="&#x155;" horiz-adv-x="716" 
d="M651 975q20 0 35 -2v-232q-37 4 -65 4q-287 0 -287 -329v-416h-201v946h201q0 -117 -25 -250l10 -2q74 281 332 281z" />
    <glyph glyph-name="Rcommaaccent" unicode="&#x156;" horiz-adv-x="1226" 
d="M367 893q0 -37 -7 -51l5 -4q18 8 51 8h209q100 0 154 50q55 50 55 139t-54 143t-155 55h-209q-33 0 -51 8l-5 -4q6 -16 7 -53v-291zM623 1434q203 0 321 -106t119 -282q0 -176 -113 -282t-243 -107q-35 0 -72 11v-9q74 -25 147 -116l435 -543h-277l-506 641h-20
q-33 0 -49 8l-5 -4q6 -18 7 -55v-590h-213v1434h469z" />
    <glyph glyph-name="rcommaaccent" unicode="&#x157;" horiz-adv-x="716" 
d="M651 975q20 0 35 -2v-232q-37 4 -65 4q-287 0 -287 -329v-416h-201v946h201q0 -117 -25 -250l10 -2q74 281 332 281z" />
    <glyph glyph-name="Rcaron" unicode="&#x158;" horiz-adv-x="1226" 
d="M367 893q0 -37 -7 -51l5 -4q18 8 51 8h209q100 0 154 50q55 50 55 139t-54 143t-155 55h-209q-33 0 -51 8l-5 -4q6 -16 7 -53v-291zM623 1434q203 0 321 -106t119 -282q0 -176 -113 -282t-243 -107q-35 0 -72 11v-9q74 -25 147 -116l435 -543h-277l-506 641h-20
q-33 0 -49 8l-5 -4q6 -18 7 -55v-590h-213v1434h469z" />
    <glyph glyph-name="rcaron" unicode="&#x159;" horiz-adv-x="716" 
d="M651 975q20 0 35 -2v-232q-37 4 -65 4q-287 0 -287 -329v-416h-201v946h201q0 -117 -25 -250l10 -2q74 281 332 281z" />
    <glyph glyph-name="Sacute" unicode="&#x15a;" horiz-adv-x="1013" 
d="M131 1118q1 160 107 253t295 93t378 -96l-96 -203q-147 84 -289 84q-164 0 -164 -123q0 -86 111 -172l256 -196q115 -88 169 -178t54 -209q0 -193 -125 -297t-333 -105q-254 0 -463 133l96 201q203 -117 369 -117q111 0 169 48t58 114t-35 118t-115 114l-243 192
q-199 156 -199 346z" />
    <glyph glyph-name="sacute" unicode="&#x15b;" horiz-adv-x="845" 
d="M408 -31q-194 0 -367 101l90 178q156 -90 302 -90t147 90q0 59 -99 106l-172 84q-201 96 -200 275q0 125 88 195q89 70 247 69q158 0 328 -74l-82 -174q-147 61 -258 61t-110 -73q0 -61 106 -113l176 -84q190 -90 191 -264q-1 -135 -97 -211t-290 -76z" />
    <glyph glyph-name="Scircumflex" unicode="&#x15c;" horiz-adv-x="1013" 
d="M131 1118q1 160 107 253t295 93t378 -96l-96 -203q-147 84 -289 84q-164 0 -164 -123q0 -86 111 -172l256 -196q115 -88 169 -178t54 -209q0 -193 -125 -297t-333 -105q-254 0 -463 133l96 201q203 -117 369 -117q111 0 169 48t58 114t-35 118t-115 114l-243 192
q-199 156 -199 346z" />
    <glyph glyph-name="scircumflex" unicode="&#x15d;" horiz-adv-x="845" 
d="M408 -31q-194 0 -367 101l90 178q156 -90 302 -90t147 90q0 59 -99 106l-172 84q-201 96 -200 275q0 125 88 195q89 70 247 69q158 0 328 -74l-82 -174q-147 61 -258 61t-110 -73q0 -61 106 -113l176 -84q190 -90 191 -264q-1 -135 -97 -211t-290 -76z" />
    <glyph glyph-name="Scedilla" unicode="&#x15e;" horiz-adv-x="1013" 
d="M131 1118q1 160 107 253t295 93t378 -96l-96 -203q-147 84 -289 84q-164 0 -164 -123q0 -86 111 -172l256 -196q115 -88 169 -178t54 -209q0 -193 -125 -297t-333 -105q-254 0 -463 133l96 201q203 -117 369 -117q111 0 169 48t58 114t-35 118t-115 114l-243 192
q-199 156 -199 346z" />
    <glyph glyph-name="scedilla" unicode="&#x15f;" horiz-adv-x="845" 
d="M408 -31q-194 0 -367 101l90 178q156 -90 302 -90t147 90q0 59 -99 106l-172 84q-201 96 -200 275q0 125 88 195q89 70 247 69q158 0 328 -74l-82 -174q-147 61 -258 61t-110 -73q0 -61 106 -113l176 -84q190 -90 191 -264q-1 -135 -97 -211t-290 -76z" />
    <glyph glyph-name="Scaron" unicode="&#x160;" horiz-adv-x="1013" 
d="M131 1118q1 160 107 253t295 93t378 -96l-96 -203q-147 84 -289 84q-164 0 -164 -123q0 -86 111 -172l256 -196q115 -88 169 -178t54 -209q0 -193 -125 -297t-333 -105q-254 0 -463 133l96 201q203 -117 369 -117q111 0 169 48t58 114t-35 118t-115 114l-243 192
q-199 156 -199 346z" />
    <glyph glyph-name="scaron" unicode="&#x161;" horiz-adv-x="845" 
d="M408 -31q-194 0 -367 101l90 178q156 -90 302 -90t147 90q0 59 -99 106l-172 84q-201 96 -200 275q0 125 88 195q89 70 247 69q158 0 328 -74l-82 -174q-147 61 -258 61t-110 -73q0 -61 106 -113l176 -84q190 -90 191 -264q-1 -135 -97 -211t-290 -76z" />
    <glyph glyph-name="Tcommaaccent" unicode="&#x162;" horiz-adv-x="1064" 
d="M1044 1434v-205h-356q-33 0 -51 8l-4 -4q6 -16 6 -51v-1182h-213v1182q0 35 6 51l-4 4q-18 -8 -51 -8h-357v205h1024z" />
    <glyph glyph-name="tcommaaccent" unicode="&#x163;" horiz-adv-x="643" 
d="M416 1452v-410q0 -72 -8 -108l6 -4q23 16 84 16h94v-192h-94q-61 0 -84 16l-6 -4q8 -35 8 -111v-655h-201v655q0 76 8 111l-6 4q-18 -16 -84 -16h-82v192h82q66 0 84 -16l6 4q-8 37 -8 108v273l188 137h13z" />
    <glyph glyph-name="Tcaron" unicode="&#x164;" horiz-adv-x="1064" 
d="M1044 1434v-205h-356q-33 0 -51 8l-4 -4q6 -16 6 -51v-1182h-213v1182q0 35 6 51l-4 4q-18 -8 -51 -8h-357v205h1024z" />
    <glyph glyph-name="tcaron" unicode="&#x165;" horiz-adv-x="643" 
d="M416 1452v-410q0 -72 -8 -108l6 -4q23 16 84 16h94v-192h-94q-61 0 -84 16l-6 -4q8 -35 8 -111v-655h-201v655q0 76 8 111l-6 4q-18 -16 -84 -16h-82v192h82q66 0 84 -16l6 4q-8 37 -8 108v273l188 137h13z" />
    <glyph glyph-name="Tbar" unicode="&#x166;" horiz-adv-x="1064" 
d="M1044 1434v-205h-356q-33 0 -51 8l-4 -4q6 -16 6 -51v-1182h-213v1182q0 35 6 51l-4 4q-18 -8 -51 -8h-357v205h1024z" />
    <glyph glyph-name="tbar" unicode="&#x167;" horiz-adv-x="643" 
d="M416 1452v-410q0 -72 -8 -108l6 -4q23 16 84 16h94v-192h-94q-61 0 -84 16l-6 -4q8 -35 8 -111v-655h-201v655q0 76 8 111l-6 4q-18 -16 -84 -16h-82v192h82q66 0 84 -16l6 4q-8 37 -8 108v273l188 137h13z" />
    <glyph glyph-name="Utilde" unicode="&#x168;" horiz-adv-x="1396" 
d="M1264 1434v-895q0 -262 -154 -415t-412 -153t-412 153t-153 415v895h221v-891q0 -166 93 -260q93 -95 251 -95t251 94t93 261v891h222z" />
    <glyph glyph-name="utilde" unicode="&#x169;" horiz-adv-x="1073" 
d="M950 946v-946h-198q0 106 22 197l-8 2q-96 -229 -326 -230q-154 1 -240 103t-87 282v592h204v-555q-1 -113 53 -172t158 -59t162 86q59 86 60 243v457h200z" />
    <glyph glyph-name="Umacron" unicode="&#x16a;" horiz-adv-x="1396" 
d="M1264 1434v-895q0 -262 -154 -415t-412 -153t-412 153t-153 415v895h221v-891q0 -166 93 -260q93 -95 251 -95t251 94t93 261v891h222z" />
    <glyph glyph-name="umacron" unicode="&#x16b;" horiz-adv-x="1073" 
d="M950 946v-946h-198q0 106 22 197l-8 2q-96 -229 -326 -230q-154 1 -240 103t-87 282v592h204v-555q-1 -113 53 -172t158 -59t162 86q59 86 60 243v457h200z" />
    <glyph glyph-name="Ubreve" unicode="&#x16c;" horiz-adv-x="1396" 
d="M1264 1434v-895q0 -262 -154 -415t-412 -153t-412 153t-153 415v895h221v-891q0 -166 93 -260q93 -95 251 -95t251 94t93 261v891h222z" />
    <glyph glyph-name="ubreve" unicode="&#x16d;" horiz-adv-x="1073" 
d="M950 946v-946h-198q0 106 22 197l-8 2q-96 -229 -326 -230q-154 1 -240 103t-87 282v592h204v-555q-1 -113 53 -172t158 -59t162 86q59 86 60 243v457h200z" />
    <glyph glyph-name="Uring" unicode="&#x16e;" horiz-adv-x="1396" 
d="M1264 1434v-895q0 -262 -154 -415t-412 -153t-412 153t-153 415v895h221v-891q0 -166 93 -260q93 -95 251 -95t251 94t93 261v891h222z" />
    <glyph glyph-name="uring" unicode="&#x16f;" horiz-adv-x="1073" 
d="M950 946v-946h-198q0 106 22 197l-8 2q-96 -229 -326 -230q-154 1 -240 103t-87 282v592h204v-555q-1 -113 53 -172t158 -59t162 86q59 86 60 243v457h200z" />
    <glyph glyph-name="Uhungarumlaut" unicode="&#x170;" horiz-adv-x="1396" 
d="M1264 1434v-895q0 -262 -154 -415t-412 -153t-412 153t-153 415v895h221v-891q0 -166 93 -260q93 -95 251 -95t251 94t93 261v891h222z" />
    <glyph glyph-name="uhungarumlaut" unicode="&#x171;" horiz-adv-x="1073" 
d="M950 946v-946h-198q0 106 22 197l-8 2q-96 -229 -326 -230q-154 1 -240 103t-87 282v592h204v-555q-1 -113 53 -172t158 -59t162 86q59 86 60 243v457h200z" />
    <glyph glyph-name="Uogonek" unicode="&#x172;" horiz-adv-x="1396" 
d="M1264 1434v-895q0 -262 -154 -415t-412 -153t-412 153t-153 415v895h221v-891q0 -166 93 -260q93 -95 251 -95t251 94t93 261v891h222z" />
    <glyph glyph-name="uogonek" unicode="&#x173;" horiz-adv-x="1073" 
d="M950 946v-946h-198q0 106 22 197l-8 2q-96 -229 -326 -230q-154 1 -240 103t-87 282v592h204v-555q-1 -113 53 -172t158 -59t162 86q59 86 60 243v457h200z" />
    <glyph glyph-name="Wcircumflex" unicode="&#x174;" horiz-adv-x="1949" 
d="M989 1454l287 -766q66 -174 74 -268h8q8 92 69 266l259 748h243l-563 -1454h-25l-325 839q-31 80 -37 176h-8q-6 -96 -37 -176l-326 -839h-24l-564 1454h244l258 -748q61 -174 70 -266h8q8 94 74 268l287 766h28z" />
    <glyph glyph-name="wcircumflex" unicode="&#x175;" horiz-adv-x="1445" 
d="M410 -10l-390 956h226l153 -428q37 -104 41 -168h9q8 55 57 172l190 439h54l190 -439q49 -117 57 -172h9q4 63 41 168l153 428h225l-389 -956h-53l-213 477q-39 84 -43 139h-8q-4 -55 -43 -139l-213 -477h-53z" />
    <glyph glyph-name="Ycircumflex" unicode="&#x176;" horiz-adv-x="1146" 
d="M680 0h-213v573l-457 861h252l211 -441q86 -178 98 -248h4q12 70 99 248l211 441h252l-457 -861v-573z" />
    <glyph glyph-name="ycircumflex" unicode="&#x177;" horiz-adv-x="1015" 
d="M995 946l-571 -1358h-209l201 473l-396 885h230l215 -522q41 -102 43 -184h8q2 72 35 151l225 555h219z" />
    <glyph glyph-name="Ydieresis" unicode="&#x178;" horiz-adv-x="1146" 
d="M680 0h-213v573l-457 861h252l211 -441q86 -178 98 -248h4q12 70 99 248l211 441h252l-457 -861v-573z" />
    <glyph glyph-name="Zacute" unicode="&#x179;" horiz-adv-x="1196" 
d="M506 209h655l-108 -209h-1026l-7 10l795 1243l-4 7q-47 -35 -158 -35h-547l105 209h950l4 -11l-792 -1245l4 -6q39 37 129 37z" />
    <glyph glyph-name="zacute" unicode="&#x17a;" horiz-adv-x="929" 
d="M395 756h-327l118 190h729l5 -8l-570 -778l4 -6q35 24 79 30t142 6h343l-117 -190h-785l-6 10l580 776l-4 7q-43 -25 -79 -31t-112 -6z" />
    <glyph glyph-name="Zdotaccent" unicode="&#x17b;" horiz-adv-x="1196" 
d="M506 209h655l-108 -209h-1026l-7 10l795 1243l-4 7q-47 -35 -158 -35h-547l105 209h950l4 -11l-792 -1245l4 -6q39 37 129 37z" />
    <glyph glyph-name="zdotaccent" unicode="&#x17c;" horiz-adv-x="929" 
d="M395 756h-327l118 190h729l5 -8l-570 -778l4 -6q35 24 79 30t142 6h343l-117 -190h-785l-6 10l580 776l-4 7q-43 -25 -79 -31t-112 -6z" />
    <glyph glyph-name="Zcaron" unicode="&#x17d;" horiz-adv-x="1196" 
d="M506 209h655l-108 -209h-1026l-7 10l795 1243l-4 7q-47 -35 -158 -35h-547l105 209h950l4 -11l-792 -1245l4 -6q39 37 129 37z" />
    <glyph glyph-name="zcaron" unicode="&#x17e;" horiz-adv-x="929" 
d="M395 756h-327l118 190h729l5 -8l-570 -778l4 -6q35 24 79 30t142 6h343l-117 -190h-785l-6 10l580 776l-4 7q-43 -25 -79 -31t-112 -6z" />
    <glyph glyph-name="Aringacute" unicode="&#x1fa;" horiz-adv-x="1425" 
d="M602 559h221q78 0 115 -4l2 2q-35 43 -66 117l-106 252q-45 109 -51 164h-8q-6 -55 -52 -164l-106 -252q-31 -74 -66 -117l2 -2q37 4 115 4zM20 0l682 1464h21l682 -1464h-240l-168 377h-569l-168 -377h-240z" />
    <glyph glyph-name="aringacute" unicode="&#x1fb;" horiz-adv-x="1026" 
d="M479 469q-92 0 -148 -47q-57 -47 -57 -123t56 -121t148 -45q93 0 154 46q60 46 60 121t-60 122q-61 47 -153 47zM524 977q188 0 284 -93q95 -93 95 -292v-592h-203q0 86 29 150l-8 4q-106 -184 -318 -185q-153 0 -247 91t-94 243t94 242t250 90q213 0 313 -158l6 4
q-10 37 -16 131q-12 178 -220 179q-113 0 -272 -52l-55 181q174 57 362 57z" />
    <glyph glyph-name="AEacute" unicode="&#x1fc;" horiz-adv-x="2482" 
d="M2392 1434v-201h-551q-33 0 -51 8l-4 -4q6 -16 6 -53v-256q0 -35 -6 -51l4 -5q18 8 51 9h483v-201h-483q-33 0 -51 8l-4 -4q6 -14 6 -53v-381q0 -37 -6 -53l4 -4q18 8 51 8h559v-201h-821v1434h813zM602 559h221q78 0 115 -4l2 2q-35 43 -66 117l-106 252
q-45 109 -51 164h-8q-6 -55 -52 -164l-106 -252q-31 -74 -66 -117l2 -2q37 4 115 4zM20 0l682 1464h21l682 -1464h-240l-168 377h-569l-168 -377h-240z" />
    <glyph glyph-name="aeacute" unicode="&#x1fd;" horiz-adv-x="2082" 
d="M1562 795q-110 1 -182 -59t-86 -167l4 -4q37 20 117 21h240q125 0 151 -19l4 4q-10 106 -74 165t-174 59zM1566 977q214 0 335 -134t120 -370v-39h-608q-94 0 -125 17l-4 -5l8 -24q16 -127 92 -195t201 -67q156 0 287 139l123 -133q-163 -197 -399 -197t-372 137
q-136 136 -136 364t132 368t346 139zM479 469q-92 0 -148 -47q-57 -47 -57 -123t56 -121t148 -45q93 0 154 46q60 46 60 121t-60 122q-61 47 -153 47zM524 977q188 0 284 -93q95 -93 95 -292v-592h-203q0 86 29 150l-8 4q-106 -184 -318 -185q-153 0 -247 91t-94 243t94 242
t250 90q213 0 313 -158l6 4q-10 37 -16 131q-12 178 -220 179q-113 0 -272 -52l-55 181q174 57 362 57z" />
    <glyph glyph-name="Oslashacute" unicode="&#x1fe;" horiz-adv-x="1638" 
d="M819 1247q-225 1 -369 -149t-144 -381t144 -381t369 -150t370 150q144 150 144 381t-144 381q-145 149 -370 149zM819 1464q326 0 537 -211t211 -537t-211 -536q-211 -211 -537 -211q-327 0 -537 211t-210 537q0 327 210 537t537 210z" />
    <glyph glyph-name="oslashacute" unicode="&#x1ff;" horiz-adv-x="1159" 
d="M580 780q-138 0 -222 -85t-84 -222t84 -222t222 -85t221 85q84 85 84 222t-84 222t-221 85zM580 977q223 0 370 -143q148 -142 148 -360t-148 -361t-370 -143t-370 142q-148 144 -149 361q0 217 148 361t371 143z" />
    <glyph glyph-name="Scommaaccent" unicode="&#x218;" horiz-adv-x="1013" 
d="M131 1118q1 160 107 253t295 93t378 -96l-96 -203q-147 84 -289 84q-164 0 -164 -123q0 -86 111 -172l256 -196q115 -88 169 -178t54 -209q0 -193 -125 -297t-333 -105q-254 0 -463 133l96 201q203 -117 369 -117q111 0 169 48t58 114t-35 118t-115 114l-243 192
q-199 156 -199 346z" />
    <glyph glyph-name="scommaaccent" unicode="&#x219;" horiz-adv-x="845" 
d="M408 -31q-194 0 -367 101l90 178q156 -90 302 -90t147 90q0 59 -99 106l-172 84q-201 96 -200 275q0 125 88 195q89 70 247 69q158 0 328 -74l-82 -174q-147 61 -258 61t-110 -73q0 -61 106 -113l176 -84q190 -90 191 -264q-1 -135 -97 -211t-290 -76z" />
    <glyph glyph-name="uni021A" unicode="&#x21a;" horiz-adv-x="1064" 
d="M1044 1434v-205h-356q-33 0 -51 8l-4 -4q6 -16 6 -51v-1182h-213v1182q0 35 6 51l-4 4q-18 -8 -51 -8h-357v205h1024z" />
    <glyph glyph-name="uni021B" unicode="&#x21b;" horiz-adv-x="1073" 
d="M950 946v-946h-198q0 106 22 197l-8 2q-96 -229 -326 -230q-154 1 -240 103t-87 282v592h204v-555q-1 -113 53 -172t158 -59t162 86q59 86 60 243v457h200z" />
    <glyph glyph-name="uni0401" unicode="&#x401;" 
d="M967 1434v-201h-551q-33 0 -51 8l-5 -4q6 -16 7 -53v-256q0 -35 -7 -51l5 -5q18 8 51 9h483v-201h-483q-33 0 -51 8l-5 -4q6 -14 7 -53v-381q0 -37 -7 -53l5 -4q18 8 51 8h559v-201h-821v1434h813z" />
    <glyph glyph-name="uni0403" unicode="&#x403;" horiz-adv-x="983" 
d="M963 1434v-201h-547q-33 0 -51 8l-5 -4q6 -16 7 -51v-1186h-213v1434h809z" />
    <glyph glyph-name="uni0404" unicode="&#x404;" horiz-adv-x="1380" 
d="M817 -31q-340 0 -543 204t-202 544q0 340 202 544q203 204 543 203q289 0 512 -147l-106 -191q-184 123 -418 123q-187 0 -315 -100t-168 -281q-8 -39 -17 -51l4 -4q18 6 62 6h596v-205h-596q-43 0 -62 7l-4 -5q8 -14 17 -51q40 -180 168 -280t315 -101q233 0 418 123
l106 -190q-223 -148 -512 -148z" />
    <glyph glyph-name="uni0405" unicode="&#x405;" horiz-adv-x="1013" 
d="M131 1118q1 160 107 253t295 93t378 -96l-96 -203q-147 84 -289 84q-164 0 -164 -123q0 -86 111 -172l256 -196q115 -88 169 -178t54 -209q0 -193 -125 -297t-333 -105q-254 0 -463 133l96 201q203 -117 369 -117q111 0 169 48t58 114t-35 118t-115 114l-243 192
q-199 156 -199 346z" />
    <glyph glyph-name="uni0406" unicode="&#x406;" horiz-adv-x="520" 
d="M367 1434v-1434h-213v1434h213z" />
    <glyph glyph-name="uni0407" unicode="&#x407;" horiz-adv-x="520" 
d="M367 1434v-1434h-213v1434h213z" />
    <glyph glyph-name="uni0408" unicode="&#x408;" horiz-adv-x="616" 
d="M463 1434v-1080q0 -188 -77 -276t-239 -88q-41 0 -96 6v201q31 -2 85 -2q54 1 84 33t30 118v1088h213z" />
    <glyph glyph-name="uni0409" unicode="&#x409;" horiz-adv-x="1519" 
d="M1366 1434v-1434h-213v1186q0 35 6 51l-4 4q-18 -8 -51 -8h-557q-33 0 -51 8l-4 -4q6 -16 6 -51v-832q0 -188 -77 -276t-239 -88q-57 0 -131 8v197q45 -5 111 -5t94 35t29 117v1092h1081z" />
    <glyph glyph-name="uni040A" unicode="&#x40a;" horiz-adv-x="1458" 
d="M1305 1434v-1434h-213v608q0 35 6 51l-4 5q-18 -8 -52 -9h-626q-33 0 -51 9l-5 -5q6 -16 7 -51v-608h-213v1434h213v-527q0 -35 -7 -51l5 -4q18 8 51 8h626q33 0 52 -8l4 4q-6 16 -6 51v527h213z" />
    <glyph glyph-name="uni040C" unicode="&#x40c;" horiz-adv-x="1271" 
d="M1083 -12q-221 0 -266 233l-47 232q-23 113 -72 159t-149 45h-127q-51 0 -64 7l-2 -5q10 -29 11 -81v-578h-213v1434h213v-523q0 -51 -11 -80l2 -2q18 6 64 7h127q94 0 144 47t75 159l45 201q45 203 287 203q66 0 108 -8v-199q-37 6 -63 6q-119 0 -139 -90l-39 -178
q-27 -125 -94 -173t-218 -52v-9q152 -4 223 -54t93 -173l41 -203q26 -125 112 -125q40 0 107 7v-199q-66 -8 -148 -8z" />
    <glyph glyph-name="uni040E" unicode="&#x40e;" horiz-adv-x="1271" 
d="M344 -18q-84 0 -174 10l2 207q80 -14 164 -15q127 0 207 174l-533 1076h254l303 -660q78 -168 88 -233h9q12 113 65 239l291 654h242l-504 -1112q-74 -176 -173 -259q-100 -81 -241 -81z" />
    <glyph glyph-name="uni040F" unicode="&#x40f;" horiz-adv-x="1458" 
d="M629 -287v240q0 35 6 51l-4 4q-18 -8 -51 -8h-426v1434h213v-1186q0 -35 -7 -51l5 -4q18 8 51 8h626q33 0 52 -8l4 4q-6 14 -6 51v1186h213v-1434h-426q-33 0 -52 8l-4 -4q6 -14 6 -51v-240h-200z" />
    <glyph glyph-name="uni0410" unicode="&#x410;" horiz-adv-x="1425" 
d="M602 559h221q78 0 115 -4l2 2q-35 43 -66 117l-106 252q-45 109 -51 164h-8q-6 -55 -52 -164l-106 -252q-31 -74 -66 -117l2 -2q37 4 115 4zM20 0l682 1464h21l682 -1464h-240l-168 377h-569l-168 -377h-240z" />
    <glyph glyph-name="uni0411" unicode="&#x411;" horiz-adv-x="1249" 
d="M670 201q130 0 196 60t66 171t-68 173t-194 63h-254q-33 0 -51 8l-5 -4q6 -14 7 -51v-371q0 -37 -7 -53l5 -4q18 8 51 8h254zM694 868q203 0 333 -112t130 -322t-130 -322t-333 -112h-540v1434h927v-201h-665q-33 0 -51 8l-5 -4q6 -16 7 -53v-269q0 -35 -7 -51l5 -4
q18 8 51 8h278z" />
    <glyph glyph-name="uni0412" unicode="&#x412;" horiz-adv-x="1265" 
d="M416 201h280q254 0 254 213q0 227 -280 227h-254q-33 0 -51 8l-5 -4q6 -14 7 -51v-344q0 -37 -7 -53l5 -4q18 8 51 8zM629 838q113 0 176 54t63 148t-57 144t-166 49h-229q-33 0 -51 8l-5 -4q6 -16 7 -53v-299q0 -37 -7 -51l5 -5q18 8 51 9h213zM154 0v1434h530
q184 0 294 -98t109 -263q0 -211 -180 -282q-47 -20 -102 -23v-8q63 0 104 -12q125 -29 195 -122t70 -229q0 -181 -120 -289t-319 -108h-581z" />
    <glyph glyph-name="uni0413" unicode="&#x413;" horiz-adv-x="983" 
d="M963 1434v-201h-547q-33 0 -51 8l-5 -4q6 -16 7 -51v-1186h-213v1434h809z" />
    <glyph glyph-name="uni0414" unicode="&#x414;" horiz-adv-x="1398" 
d="M440 184h480q33 0 51 -8l4 4q-6 14 -6 53v951q0 37 6 53l-4 4q-18 -8 -51 -8h-291q-33 0 -51 8l-5 -4q6 -16 7 -53v-115q0 -274 -54 -515t-143 -376l4 -4q18 10 53 10zM10 -287v471h105q37 0 55 -8l4 4q2 33 14 53q178 354 179 857v344h815v-1201q0 -37 -6 -53l4 -4
q18 8 53 8h104v-471h-200v221q0 39 8 54l-4 4q-18 -8 -54 -8h-827q-35 0 -51 8l-4 -4q6 -16 6 -54v-221h-201z" />
    <glyph glyph-name="uni0415" unicode="&#x415;" 
d="M967 1434v-201h-551q-33 0 -51 8l-5 -4q6 -16 7 -53v-256q0 -35 -7 -51l5 -5q18 8 51 9h483v-201h-483q-33 0 -51 8l-5 -4q6 -14 7 -53v-381q0 -37 -7 -53l5 -4q18 8 51 8h559v-201h-821v1434h813z" />
    <glyph glyph-name="uni0416" unicode="&#x416;" horiz-adv-x="1871" 
d="M156 -8q-61 0 -103 8v211q49 -4 64 -4q111 0 137 110l55 242q27 115 78 154t184 43v8q-150 8 -210 51t-89 164l-41 174q-18 86 -131 86q-18 0 -59 -4v199q80 6 102 6q125 0 189 -44t92 -151l59 -237q31 -158 213 -158h80q45 0 64 -6l2 2q-10 33 -11 82v506h209v-506
q0 -49 -10 -82l2 -2q18 6 64 6h80q176 0 213 158l59 237q25 106 89 151q65 44 192 44q23 0 102 -6v-199q-41 4 -59 4q-113 0 -132 -86l-41 -174q-29 -121 -89 -164t-210 -51v-8q132 -4 184 -43t79 -154l55 -242q27 -111 137 -110q14 0 64 4v-211q-41 -8 -103 -8
q-130 0 -198 53t-95 172l-61 287q-35 164 -186 164h-80q-39 0 -64 4l-2 -2q10 -33 10 -84v-586h-209v586q0 51 11 84l-2 2q-25 -4 -64 -4h-80q-152 0 -186 -164l-61 -287q-27 -119 -95 -172t-198 -53z" />
    <glyph glyph-name="uni0417" unicode="&#x417;" horiz-adv-x="1148" 
d="M639 758q82 0 141 -13q276 -61 277 -360q-1 -416 -529 -416q-283 0 -477 113l96 194q190 -100 394 -100q289 0 288 227q0 244 -358 244h-197v209h195q309 0 309 215q0 186 -241 186q-172 0 -375 -92l-76 199q250 100 475 100q446 0 447 -356q0 -322 -369 -342v-8z" />
    <glyph glyph-name="uni0418" unicode="&#x418;" horiz-adv-x="1511" 
d="M1358 1454v-1454h-213v768q0 178 20 256l-8 2q-33 -80 -113 -160l-872 -886h-18v1454h213v-766q0 -180 -21 -258l8 -2q33 80 113 159l872 887h19z" />
    <glyph glyph-name="uni0419" unicode="&#x419;" horiz-adv-x="1511" 
d="M1358 1454v-1454h-213v768q0 178 20 256l-8 2q-33 -80 -113 -160l-872 -886h-18v1454h213v-766q0 -180 -21 -258l8 -2q33 80 113 159l872 887h19z" />
    <glyph glyph-name="uni041A" unicode="&#x41a;" horiz-adv-x="1271" 
d="M1083 -12q-221 0 -266 233l-47 232q-23 113 -72 159t-149 45h-127q-51 0 -64 7l-2 -5q10 -29 11 -81v-578h-213v1434h213v-523q0 -51 -11 -80l2 -2q18 6 64 7h127q94 0 144 47t75 159l45 201q45 203 287 203q66 0 108 -8v-199q-37 6 -63 6q-119 0 -139 -90l-39 -178
q-27 -125 -94 -173t-218 -52v-9q152 -4 223 -54t93 -173l41 -203q26 -125 112 -125q40 0 107 7v-199q-66 -8 -148 -8z" />
    <glyph glyph-name="uni041B" unicode="&#x41b;" horiz-adv-x="1519" 
d="M1366 1434v-1434h-213v1186q0 35 6 51l-4 4q-18 -8 -51 -8h-557q-33 0 -51 8l-4 -4q6 -16 6 -51v-832q0 -188 -77 -276t-239 -88q-57 0 -131 8v197q45 -5 111 -5t94 35t29 117v1092h1081z" />
    <glyph glyph-name="uni041C" unicode="&#x41c;" horiz-adv-x="1802" 
d="M483 969q0 -129 -30 -232l-211 -737h-222l426 1454h31l385 -901q25 -59 35 -166h8q10 106 35 166l385 901h31l426 -1454h-221l-211 737q-31 102 -31 232h-8q-10 -98 -68 -230l-332 -753h-20l-332 753q-57 131 -67 230h-9z" />
    <glyph glyph-name="uni041D" unicode="&#x41d;" horiz-adv-x="1458" 
d="M1305 1434v-1434h-213v608q0 35 6 51l-4 5q-18 -8 -52 -9h-626q-33 0 -51 9l-5 -5q6 -16 7 -51v-608h-213v1434h213v-527q0 -35 -7 -51l5 -4q18 8 51 8h626q33 0 52 -8l4 4q-6 16 -6 51v527h213z" />
    <glyph glyph-name="uni041E" unicode="&#x41e;" horiz-adv-x="1638" 
d="M819 1247q-225 1 -369 -149t-144 -381t144 -381t369 -150t370 150q144 150 144 381t-144 381q-145 149 -370 149zM819 1464q326 0 537 -211t211 -537t-211 -536q-211 -211 -537 -211q-327 0 -537 211t-210 537q0 327 210 537t537 210z" />
    <glyph glyph-name="uni041F" unicode="&#x41f;" horiz-adv-x="1429" 
d="M1276 1434v-1434h-213v1186q0 35 6 51l-4 4q-18 -8 -51 -8h-598q-33 0 -51 8l-5 -4q6 -16 7 -51v-1186h-213v1434h1122z" />
    <glyph glyph-name="uni0420" unicode="&#x420;" horiz-adv-x="1118" 
d="M367 870q0 -37 -7 -53l5 -4q18 8 51 8h200q106 1 164 55t58 150t-58 152t-164 55h-200q-33 0 -51 8l-5 -4q6 -16 7 -53v-314zM614 1434q211 0 332 -109t121 -298t-118 -298t-316 -108h-217q-33 0 -51 8l-5 -4q6 -14 7 -52v-573h-213v1434h460z" />
    <glyph glyph-name="uni0421" unicode="&#x421;" horiz-adv-x="1396" 
d="M840 -31q-342 0 -555 207t-213 541q0 335 213 541t555 206q287 0 506 -157l-132 -187q-174 127 -395 127t-367 -147t-146 -383t146 -383q146 -148 367 -148t395 127l132 -186q-219 -158 -506 -158z" />
    <glyph glyph-name="uni0422" unicode="&#x422;" horiz-adv-x="1064" 
d="M1044 1434v-205h-356q-33 0 -51 8l-4 -4q6 -16 6 -51v-1182h-213v1182q0 35 6 51l-4 4q-18 -8 -51 -8h-357v205h1024z" />
    <glyph glyph-name="uni0423" unicode="&#x423;" horiz-adv-x="1271" 
d="M344 -18q-84 0 -174 10l2 207q80 -14 164 -15q127 0 207 174l-533 1076h254l303 -660q78 -168 88 -233h9q12 113 65 239l291 654h242l-504 -1112q-74 -176 -173 -259q-100 -81 -241 -81z" />
    <glyph glyph-name="uni0424" unicode="&#x424;" horiz-adv-x="1720" 
d="M956 1110v-786q0 -41 -10 -64l2 -2q2 0 64 4q186 4 296 128t109 327q1 203 -109 327t-296 127q-61 4 -64 5l-2 -2q10 -23 10 -64zM766 324v786q0 41 10 64l-4 2q-4 0 -61 -5q-186 -4 -296 -128q-110 -125 -110 -327t110 -326t296 -128q57 -4 61 -4l4 2q-10 23 -10 64z
M756 -82v88q0 35 10 62l-2 2q-18 -6 -72 -7q-264 -1 -442 187t-178 467t178 466t442 187q53 0 72 -6l2 2q-10 23 -10 61v89h209v-89q0 -39 -11 -61l2 -2q23 6 72 6q264 0 442 -187t178 -466t-178 -466t-442 -188q-49 0 -72 7l-2 -2q10 -27 11 -62v-88h-209z" />
    <glyph glyph-name="uni0425" unicode="&#x425;" horiz-adv-x="1286" 
d="M1204 1434l-346 -549q-47 -76 -86 -119v-4q41 -51 102 -150l392 -612h-250l-279 444q-82 131 -90 179h-8q-8 -47 -90 -179l-279 -444h-250l392 612q61 98 102 150v4q-39 43 -86 119l-346 549h250l217 -351q80 -127 90 -178h8q10 51 90 178l217 351h250z" />
    <glyph glyph-name="uni0426" unicode="&#x426;" horiz-adv-x="1495" 
d="M1233 -283v236q0 31 8 51l-4 4q-16 -8 -53 -8h-1030v1434h213v-1186q0 -31 -9 -51l4 -4q18 8 54 8h588q35 0 53 -8l4 4q-8 20 -8 51v1186h213v-1186q0 -31 -9 -51l5 -4q16 8 53 8h119v-484h-201z" />
    <glyph glyph-name="uni0427" unicode="&#x427;" horiz-adv-x="1247" 
d="M881 0v526q0 72 12 95l-4 4q-205 -76 -438 -76q-420 0 -420 459v426h213v-422q0 -262 227 -262q172 0 410 69v615h213v-1434h-213z" />
    <glyph glyph-name="uni0428" unicode="&#x428;" horiz-adv-x="2011" 
d="M154 0v1434h213v-1186q0 -31 -9 -51l4 -4q18 8 54 8h434q35 0 53 -8l4 4q-8 20 -8 51v1186h213v-1186q0 -31 -8 -51l4 -4q16 8 53 8h434q35 0 54 -8l4 4q-8 20 -8 51v1186h213v-1434h-1704z" />
    <glyph glyph-name="uni0429" unicode="&#x429;" horiz-adv-x="2091" 
d="M1907 201h123v-484h-201v236q0 31 8 51l-4 4q-18 -8 -53 -8h-1626v1434h213v-1186q0 -31 -9 -51l4 -4q18 8 54 8h434q35 0 53 -8l4 4q-8 20 -8 51v1186h213v-1186q0 -31 -8 -51l4 -4q16 8 53 8h434q35 0 54 -8l4 4q-8 20 -8 51v1186h213v-1186q0 -31 -9 -51l4 -4
q19 8 54 8z" />
    <glyph glyph-name="uni042A" unicode="&#x42a;" horiz-adv-x="1439" 
d="M907 201q125 0 194 60t69 171t-70 173t-193 63h-254q-33 0 -51 8l-4 -4q6 -14 6 -51v-371q0 -37 -6 -53l4 -4q18 8 51 8h254zM932 868q213 0 340 -118t127 -316t-127 -316t-340 -118h-541v1186q0 37 8 51l-4 4q-18 -8 -53 -8h-322v201h584v-519q0 -35 -6 -51l4 -4
q18 8 51 8h279z" />
    <glyph glyph-name="uni042B" unicode="&#x42b;" horiz-adv-x="1632" 
d="M670 201q126 0 194 60t68 171t-70 173t-192 63h-254q-33 0 -51 8l-5 -4q6 -14 7 -51v-371q0 -37 -7 -53l5 -4q18 8 51 8h254zM1266 1434h213v-1434h-213v1434zM694 868q213 0 340 -118t127 -316t-127 -316t-340 -118h-540v1434h213v-519q0 -35 -7 -51l5 -4q18 8 51 8h278
z" />
    <glyph glyph-name="uni042C" unicode="&#x42c;" horiz-adv-x="1202" 
d="M670 201q126 0 194 60t68 171t-70 173t-192 63h-254q-33 0 -51 8l-5 -4q6 -14 7 -51v-371q0 -37 -7 -53l5 -4q18 8 51 8h254zM694 868q213 0 340 -118t127 -316t-127 -316t-340 -118h-540v1434h213v-519q0 -35 -7 -51l5 -4q18 8 51 8h278z" />
    <glyph glyph-name="uni042D" unicode="&#x42d;" horiz-adv-x="1380" 
d="M563 -31q-289 0 -512 148l107 190q184 -123 417 -123q187 0 315 100t169 281q8 37 16 51l-4 5q-18 -6 -61 -7h-596v205h596q43 0 61 -6l4 4q-8 12 -16 51q-41 180 -169 280t-338 101q-210 0 -394 -123l-107 191q223 147 512 147q340 0 543 -204t203 -543
q0 -340 -203 -544t-543 -204z" />
    <glyph glyph-name="uni042E" unicode="&#x42e;" horiz-adv-x="2086" 
d="M1268 182q225 0 369 150t145 381q0 231 -144 381t-370 150q-225 0 -370 -150q-144 -150 -144 -381t144 -381t370 -150zM1282 1460q312 0 522 -211t211 -537q0 -326 -211 -536q-211 -211 -524 -211t-519 183t-237 475h-108q-33 0 -51 8l-5 -4q6 -16 7 -52v-575h-213v1434
h213v-564q0 -35 -7 -51l5 -4q18 8 51 8h110q37 283 241 460q203 177 515 177z" />
    <glyph glyph-name="uni042F" unicode="&#x42f;" horiz-adv-x="1257" 
d="M842 1233h-240q-98 0 -153 -52q-55 -51 -55 -143t53 -142q54 -50 155 -50h240q33 0 51 -8l4 4q-6 14 -6 51v291q0 37 6 53l-4 4q-18 -8 -51 -8zM604 1434h500v-1434h-213v590q0 37 6 55l-4 4q-16 -8 -49 -8h-51l-506 -641h-277l434 543q72 92 148 116v9q-45 -10 -72 -11
q-143 0 -250 113q-106 112 -106 280t118 276t322 108z" />
    <glyph glyph-name="uni0430" unicode="&#x430;" horiz-adv-x="1026" 
d="M479 469q-92 0 -148 -47q-57 -47 -57 -123t56 -121t148 -45q93 0 154 46q60 46 60 121t-60 122q-61 47 -153 47zM524 977q188 0 284 -93q95 -93 95 -292v-592h-203q0 86 29 150l-8 4q-106 -184 -318 -185q-153 0 -247 91t-94 243t94 242t250 90q213 0 313 -158l6 4
q-10 37 -16 131q-12 178 -220 179q-113 0 -272 -52l-55 181q174 57 362 57z" />
    <glyph glyph-name="uni0431" unicode="&#x431;" horiz-adv-x="1171" 
d="M594 168q135 0 219 86t84 223t-85 221t-219 84t-220 -87t-86 -222t86 -220t221 -85zM1110 480q0 -226 -144 -368t-384 -143q-242 0 -381 164t-140 461q0 548 345 673q68 26 178 53q109 27 135 36q102 29 106 88h199q0 -109 -42 -164t-146 -86q-39 -12 -182 -43t-230 -76
q-178 -98 -186 -428h8q37 152 140 234t257 84q211 2 339 -129q128 -130 128 -356z" />
    <glyph glyph-name="uni0432" unicode="&#x432;" horiz-adv-x="999" 
d="M596 182q119 0 119 113t-121 113h-211q-41 0 -57 8l-2 -2q10 -27 10 -54v-131q0 -27 -10 -53l2 -2q16 8 57 8h213zM334 713v-105q0 -27 -10 -53l2 -2q16 8 57 8h184q53 0 85 29t32 78q0 96 -119 96h-182q-41 0 -57 8l-2 -2q10 -20 10 -57zM938 262q0 -118 -84 -190
t-219 -72h-502v946h498q133 0 205 -60t71 -173q0 -137 -108 -191q-47 -25 -121 -26v-9q68 0 119 -12q141 -41 141 -213z" />
    <glyph glyph-name="uni0433" unicode="&#x433;" horiz-adv-x="757" 
d="M133 0v946h615v-186h-365q-41 0 -57 8l-2 -2q10 -20 10 -53v-713h-201z" />
    <glyph glyph-name="uni0434" unicode="&#x434;" horiz-adv-x="1093" 
d="M406 184h296q41 0 58 -8l2 2q-10 27 -10 53v488q0 27 10 53l-2 2q-16 -8 -58 -8h-170q-41 0 -57 8l-2 -2q10 -27 10 -53v-41q0 -130 -41 -276t-100 -224l2 -4q20 10 62 10zM20 -287v471h80q33 0 47 -8l3 2q-2 20 12 51q72 137 101 256q30 119 30 267v194h647v-715
q0 -27 -10 -53l2 -2q16 8 57 8h64v-471h-183v238q0 27 11 53l-2 2q-16 -8 -58 -8h-567q-41 0 -57 8l-2 -2q10 -27 10 -53v-238h-185z" />
    <glyph glyph-name="uni0435" unicode="&#x435;" 
d="M536 795q-110 1 -182 -59t-86 -167l4 -4q37 20 117 21h240q125 0 151 -19l4 4q-10 106 -74 165t-174 59zM540 977q214 0 334 -134t121 -370v-39h-608q-94 0 -125 17l-4 -5l8 -24q16 -127 92 -195t201 -67q156 0 287 139l123 -133q-163 -197 -399 -197t-372 137
q-136 136 -136 364t132 368t346 139z" />
    <glyph glyph-name="uni0436" unicode="&#x436;" horiz-adv-x="1421" 
d="M41 -6v174h53q45 0 65 13q19 13 31 52l37 134q19 63 65 92t136 30v9q-164 6 -201 116l-30 86q-18 46 -40 62t-67 16h-45v174h100q139 0 181 -96l69 -168q27 -70 53 -92t84 -23h27q39 0 64 -4l2 2q-10 33 -11 82v293h193v-293q0 -49 -10 -82l2 -2q25 4 63 4h27q59 0 85 23
t52 92l70 168q41 96 180 96h100v-174h-45q-45 0 -67 -15t-39 -63l-31 -86q-37 -111 -201 -116v-9q90 -3 136 -31t65 -91l37 -134q11 -39 31 -52t65 -13h53v-174h-118q-154 0 -189 123l-49 168q-20 73 -50 101t-85 28h-27q-39 0 -63 4l-2 -2q10 -33 10 -86v-330h-193v330
q0 53 11 86l-2 2q-25 -4 -64 -4h-27q-55 0 -85 -29t-50 -100l-49 -168q-35 -123 -188 -123h-119z" />
    <glyph glyph-name="uni0437" unicode="&#x437;" horiz-adv-x="905" 
d="M844 260q0 -139 -108 -215t-319 -76q-212 0 -376 97l82 174q152 -86 313 -86q109 0 158 30t49 98t-43 100t-139 32h-133v180h121q139 0 139 98t-164 99q-135 0 -295 -76l-74 174q207 88 382 88q175 1 269 -63t93 -170t-63 -165q-62 -58 -177 -67v-8q285 -16 285 -244z
" />
    <glyph glyph-name="uni0438" unicode="&#x438;" horiz-adv-x="1103" 
d="M133 -12v958h201v-364q0 -133 -10 -236l8 -2q25 57 104 141l471 473h64v-958h-201v365q0 133 10 235l-8 2q-25 -57 -104 -141l-471 -473h-64z" />
    <glyph glyph-name="uni0439" unicode="&#x439;" horiz-adv-x="1103" 
d="M133 -12v958h201v-364q0 -133 -10 -236l8 -2q25 57 104 141l471 473h64v-958h-201v365q0 133 10 235l-8 2q-25 -57 -104 -141l-471 -473h-64z" />
    <glyph glyph-name="uni043A" unicode="&#x43a;" horiz-adv-x="1011" 
d="M852 -6q-158 0 -195 123l-47 168q-18 73 -47 101t-86 28h-88q-39 0 -63 4l-2 -2q10 -33 10 -86v-330h-201v946h201v-293q0 -49 -10 -82l2 -2q25 4 63 4h88q59 0 84 22t51 93l70 168q39 96 184 96h101v-180h-43q-45 0 -67 -14t-40 -58l-33 -86q-39 -115 -200 -116v-9
q90 -1 136 -29t64 -93l39 -134q11 -39 29 -49t68 -10h51v-180h-119z" />
    <glyph glyph-name="uni043B" unicode="&#x43b;" horiz-adv-x="1081" 
d="M958 946v-946h-200v713q0 27 10 53l-2 2q-16 -8 -57 -8h-250q-41 0 -58 8l-2 -2q10 -27 11 -53v-394q0 -326 -310 -325h-80v182h78q59 0 85 35t26 119v616h749z" />
    <glyph glyph-name="uni043C" unicode="&#x43c;" horiz-adv-x="1363" 
d="M653 -10l-178 401q-55 127 -61 162h-8q-4 -51 -41 -164l-129 -389h-216l345 956h53l221 -495q31 -66 39 -113h8q8 47 39 113l221 495h53l344 -956h-215l-129 389q-37 113 -41 164h-8q-6 -35 -61 -162l-178 -401h-58z" />
    <glyph glyph-name="uni043D" unicode="&#x43d;" horiz-adv-x="1148" 
d="M815 946h201v-946h-201v365q0 33 10 53l-2 2q-16 -8 -57 -8h-383q-41 0 -57 8l-2 -2q10 -20 10 -53v-365h-201v946h201v-301q0 -33 -10 -53l2 -2q16 8 57 8h383q41 0 57 -8l2 2q-10 20 -10 53v301z" />
    <glyph glyph-name="uni043E" unicode="&#x43e;" horiz-adv-x="1159" 
d="M580 780q-138 0 -222 -85t-84 -222t84 -222t222 -85t221 85q84 85 84 222t-84 222t-221 85zM580 977q223 0 370 -143q148 -142 148 -360t-148 -361t-370 -143t-370 142q-148 144 -149 361q0 217 148 361t371 143z" />
    <glyph glyph-name="uni043F" unicode="&#x43f;" horiz-adv-x="1087" 
d="M965 946v-946h-201v713q0 33 10 53l-2 2q-16 -8 -57 -8h-342q-41 0 -58 8l-2 -2q10 -20 11 -53v-713h-201v946h842z" />
    <glyph glyph-name="uni0440" unicode="&#x440;" horiz-adv-x="1191" 
d="M918 473q0 147 -76 231t-210 84t-220 -88t-86 -227t86 -227t220 -88t210 84t76 231zM672 977q202 0 330 -141q128 -140 128 -362t-129 -363t-329 -142q-244 0 -348 215l-9 -2q18 -68 19 -198v-394h-201v1356h195q0 -131 -13 -182l9 -2q106 215 348 215z" />
    <glyph glyph-name="uni0441" unicode="&#x441;" horiz-adv-x="956" 
d="M582 -31q-232 1 -376 141t-145 363q1 223 145 363t376 141q178 0 323 -96l-94 -170q-109 71 -239 71t-214 -86t-84 -223t84 -223t214 -86t239 72l94 -170q-145 -97 -323 -97z" />
    <glyph glyph-name="uni0442" unicode="&#x442;" horiz-adv-x="913" 
d="M10 946h893v-186h-297q-41 0 -57 8l-2 -2q10 -20 10 -53v-713h-201v713q0 33 11 53l-2 2q-16 -8 -58 -8h-297v186z" />
    <glyph glyph-name="uni0443" unicode="&#x443;" horiz-adv-x="1015" 
d="M995 946l-571 -1358h-209l201 473l-396 885h230l215 -522q41 -102 43 -184h8q2 72 35 151l225 555h219z" />
    <glyph glyph-name="uni0444" unicode="&#x444;" horiz-adv-x="1720" 
d="M1192 158q116 0 180 83t64 233t-65 232t-179 82t-180 -82q-64 -82 -64 -233t64 -233t180 -82zM530 158q115 0 180 83q64 83 64 233t-64 232q-65 82 -180 82q-116 0 -180 -82t-64 -233t65 -233q64 -82 179 -82zM766 -410v410q0 139 18 203l-8 2q-92 -236 -309 -236
q-180 0 -288 136q-107 135 -107 367t107 369q108 136 288 136q217 0 309 -236l8 2q-18 66 -18 203v488h188v-488q0 -139 -18 -203l8 -2q92 236 309 236q180 0 288 -136q108 -135 108 -367t-108 -368t-288 -137q-217 0 -309 236l-8 -2q18 -66 18 -203v-410h-188z" />
    <glyph glyph-name="uni0445" unicode="&#x445;" horiz-adv-x="1028" 
d="M20 0l310 430q7 7 25 31t32 28v7q-18 8 -53 57l-273 393h238l129 -190q76 -111 82 -168h8q6 57 82 168l129 190h238l-273 -393q-35 -49 -53 -57v-7q17 -4 35 -30q18 -25 22 -29l310 -430h-238l-172 240q-70 96 -80 155h-8q-10 -59 -80 -155l-172 -240h-238z" />
    <glyph glyph-name="uni0446" unicode="&#x446;" horiz-adv-x="1107" 
d="M885 -287v240q0 33 10 53l-2 2q-16 -8 -57 -8h-703v946h201v-713q0 -33 -10 -53l2 -2q16 8 57 8h311q41 0 58 -8l2 2q-10 20 -11 53v713h201v-713q0 -33 -10 -53l2 -2q16 8 57 8h74v-473h-182z" />
    <glyph glyph-name="uni0447" unicode="&#x447;" horiz-adv-x="974" 
d="M651 946h201v-946h-201v299q0 78 13 102l-5 2q-154 -55 -311 -55t-243 84q-85 84 -85 260v254h201v-231q0 -94 41 -135t132 -41t257 47v360z" />
    <glyph glyph-name="uni0448" unicode="&#x448;" horiz-adv-x="1626" 
d="M1292 946h201v-946h-1360v946h201v-713q0 -33 -10 -53l2 -2q16 8 57 8h281q41 0 57 -8l2 2q-10 20 -10 53v713h200v-713q0 -33 -10 -53l2 -2q16 8 58 8h280q41 0 57 -8l3 2q-10 20 -11 53v713z" />
    <glyph glyph-name="uni0449" unicode="&#x449;" horiz-adv-x="1656" 
d="M1434 -287v240q0 33 10 53l-2 2q-16 -8 -58 -8h-1251v946h201v-713q0 -33 -10 -53l2 -2q16 8 57 8h281q41 0 57 -8l2 2q-10 20 -10 53v713h200v-713q0 -33 -10 -53l2 -2q16 8 58 8h280q41 0 57 -8l3 2q-10 20 -11 53v713h201v-713q0 -33 -10 -53l2 -2q16 8 57 8h74v-473
h-182z" />
    <glyph glyph-name="uni044A" unicode="&#x44a;" horiz-adv-x="1140" 
d="M737 186q70 0 110 32t40 87q0 121 -150 121h-174q-41 0 -57 8l-2 -2q10 -27 10 -53v-146q0 -27 -10 -53l2 -2q16 8 57 8h174zM754 612q160 0 253 -82t93 -221t-96 -224t-252 -85h-439v713q0 27 11 53l-2 2q-16 -8 -58 -8h-254v186h504v-287q0 -27 -10 -53l2 -2q16 8 57 8
h191z" />
    <glyph glyph-name="uni044B" unicode="&#x44b;" horiz-adv-x="1312" 
d="M549 186q67 0 101 31t34 88q0 121 -135 121h-166q-41 0 -57 8l-2 -2q10 -27 10 -53v-146q0 -27 -10 -53l2 -2q16 8 57 8h166zM979 946h201v-946h-201v946zM567 612q152 0 241 -82t89 -221t-92 -224t-240 -85h-432v946h201v-287q0 -27 -10 -53l2 -2q16 8 57 8h184z" />
    <glyph glyph-name="uni044C" unicode="&#x44c;" horiz-adv-x="937" 
d="M549 186q67 0 101 31t34 88q0 121 -135 121h-166q-41 0 -57 8l-2 -2q10 -27 10 -53v-146q0 -27 -10 -53l2 -2q16 8 57 8h166zM567 612q152 0 241 -82t89 -221t-92 -224t-240 -85h-432v946h201v-287q0 -27 -10 -53l2 -2q16 8 57 8h184z" />
    <glyph glyph-name="uni044D" unicode="&#x44d;" horiz-adv-x="962" 
d="M891 474q0 -228 -132 -366t-343 -139q-211 0 -365 90l86 177q127 -72 264 -72q88 0 159 46t89 108t31 77l-2 2q-18 -10 -55 -10h-336v172h336q37 0 55 -10l2 2q-14 23 -33 81t-88 104q-71 46 -183 46t-239 -71l-86 176q154 90 365 90t343 -138q132 -137 132 -365z" />
    <glyph glyph-name="uni044E" unicode="&#x44e;" horiz-adv-x="1542" 
d="M963 166q137 0 221 85t84 222t-84 222t-221 85t-221 -85t-85 -222q1 -137 85 -222t221 -85zM975 977q211 0 358 -143q147 -142 147 -360t-146 -361q-148 -143 -359 -143t-352 115q-141 116 -170 298h-78q-41 0 -58 8l-2 -2q10 -20 11 -53v-336h-193v946h193v-332
q0 -33 -11 -53l2 -2q16 8 58 8h78q33 182 172 296t350 114z" />
    <glyph glyph-name="uni044F" unicode="&#x44f;" horiz-adv-x="1019" 
d="M686 573v146q0 27 10 53l-2 2q-16 -8 -57 -8h-178q-147 0 -148 -119q0 -57 39 -89t109 -32h178q41 0 57 -8l2 2q-10 27 -10 53zM887 946v-946h-201v305q0 27 10 53l-2 2q-16 -8 -57 -8h-47l-316 -352h-243v8l237 254q63 68 107 90v6q-29 -2 -43 2q-109 18 -171 96
q-63 78 -63 206q0 126 90 205t250 79h449z" />
    <glyph glyph-name="uni0451" unicode="&#x451;" 
d="M536 795q-110 1 -182 -59t-86 -167l4 -4q37 20 117 21h240q125 0 151 -19l4 4q-10 106 -74 165t-174 59zM540 977q214 0 334 -134t121 -370v-39h-608q-94 0 -125 17l-4 -5l8 -24q16 -127 92 -195t201 -67q156 0 287 139l123 -133q-163 -197 -399 -197t-372 137
q-136 136 -136 364t132 368t346 139z" />
    <glyph glyph-name="uni0453" unicode="&#x453;" horiz-adv-x="757" 
d="M133 0v946h615v-186h-365q-41 0 -57 8l-2 -2q10 -20 10 -53v-713h-201z" />
    <glyph glyph-name="uni0454" unicode="&#x454;" horiz-adv-x="962" 
d="M547 -31q-211 1 -343 139t-132 365t132 365t343 139q211 0 364 -90l-86 -176q-127 72 -264 71q-88 0 -158 -46t-88 -104t-32 -81l2 -2q18 10 55 10h336v-172h-336q-37 0 -55 10l-2 -2q13 -15 31 -77t88 -108t159 -46q137 0 264 72l86 -177q-153 -90 -364 -90z" />
    <glyph glyph-name="uni0455" unicode="&#x455;" horiz-adv-x="845" 
d="M408 -31q-194 0 -367 101l90 178q156 -90 302 -90t147 90q0 59 -99 106l-172 84q-201 96 -200 275q0 125 88 195q89 70 247 69q158 0 328 -74l-82 -174q-147 61 -258 61t-110 -73q0 -61 106 -113l176 -84q190 -90 191 -264q-1 -135 -97 -211t-290 -76z" />
    <glyph glyph-name="uni0457" unicode="&#x457;" horiz-adv-x="0" 
 />
    <glyph glyph-name="uni0458" unicode="&#x458;" horiz-adv-x="466" 
d="M334 946v-987q0 -203 -97 -301t-276 -98h-14v196h14q172 0 172 203v987h201zM346 1434v-271h-225v271h225z" />
    <glyph glyph-name="uni0459" unicode="&#x459;" horiz-adv-x="1081" 
d="M958 946v-946h-200v713q0 27 10 53l-2 2q-16 -8 -57 -8h-250q-41 0 -58 8l-2 -2q10 -27 11 -53v-394q0 -326 -310 -325h-80v182h78q59 0 85 35t26 119v616h749z" />
    <glyph glyph-name="uni045A" unicode="&#x45a;" horiz-adv-x="1148" 
d="M815 946h201v-946h-201v365q0 33 10 53l-2 2q-16 -8 -57 -8h-383q-41 0 -57 8l-2 -2q10 -20 10 -53v-365h-201v946h201v-301q0 -33 -10 -53l2 -2q16 8 57 8h383q41 0 57 -8l2 2q-10 20 -10 53v301z" />
    <glyph glyph-name="uni045C" unicode="&#x45c;" horiz-adv-x="1011" 
d="M852 -6q-158 0 -195 123l-47 168q-18 73 -47 101t-86 28h-88q-39 0 -63 4l-2 -2q10 -33 10 -86v-330h-201v946h201v-293q0 -49 -10 -82l2 -2q25 4 63 4h88q59 0 84 22t51 93l70 168q39 96 184 96h101v-180h-43q-45 0 -67 -14t-40 -58l-33 -86q-39 -115 -200 -116v-9
q90 -1 136 -29t64 -93l39 -134q11 -39 29 -49t68 -10h51v-180h-119z" />
    <glyph glyph-name="uni045E" unicode="&#x45e;" horiz-adv-x="1015" 
d="M995 946l-571 -1358h-209l201 473l-396 885h230l215 -522q41 -102 43 -184h8q2 72 35 151l225 555h219z" />
    <glyph glyph-name="uni0490" unicode="&#x490;" horiz-adv-x="983" 
d="M963 1434v-201h-547q-33 0 -51 8l-5 -4q6 -16 7 -51v-1186h-213v1434h809z" />
    <glyph glyph-name="uni0491" unicode="&#x491;" horiz-adv-x="757" 
d="M133 0v946h615v-186h-365q-41 0 -57 8l-2 -2q10 -20 10 -53v-713h-201z" />
    <glyph glyph-name="Wgrave" unicode="&#x1e80;" horiz-adv-x="1949" 
d="M989 1454l287 -766q66 -174 74 -268h8q8 92 69 266l259 748h243l-563 -1454h-25l-325 839q-31 80 -37 176h-8q-6 -96 -37 -176l-326 -839h-24l-564 1454h244l258 -748q61 -174 70 -266h8q8 94 74 268l287 766h28z" />
    <glyph glyph-name="wgrave" unicode="&#x1e81;" horiz-adv-x="1445" 
d="M410 -10l-390 956h226l153 -428q37 -104 41 -168h9q8 55 57 172l190 439h54l190 -439q49 -117 57 -172h9q4 63 41 168l153 428h225l-389 -956h-53l-213 477q-39 84 -43 139h-8q-4 -55 -43 -139l-213 -477h-53z" />
    <glyph glyph-name="Wacute" unicode="&#x1e82;" horiz-adv-x="1949" 
d="M989 1454l287 -766q66 -174 74 -268h8q8 92 69 266l259 748h243l-563 -1454h-25l-325 839q-31 80 -37 176h-8q-6 -96 -37 -176l-326 -839h-24l-564 1454h244l258 -748q61 -174 70 -266h8q8 94 74 268l287 766h28z" />
    <glyph glyph-name="wacute" unicode="&#x1e83;" horiz-adv-x="1445" 
d="M410 -10l-390 956h226l153 -428q37 -104 41 -168h9q8 55 57 172l190 439h54l190 -439q49 -117 57 -172h9q4 63 41 168l153 428h225l-389 -956h-53l-213 477q-39 84 -43 139h-8q-4 -55 -43 -139l-213 -477h-53z" />
    <glyph glyph-name="Wdieresis" unicode="&#x1e84;" horiz-adv-x="1949" 
d="M989 1454l287 -766q66 -174 74 -268h8q8 92 69 266l259 748h243l-563 -1454h-25l-325 839q-31 80 -37 176h-8q-6 -96 -37 -176l-326 -839h-24l-564 1454h244l258 -748q61 -174 70 -266h8q8 94 74 268l287 766h28z" />
    <glyph glyph-name="wdieresis" unicode="&#x1e85;" horiz-adv-x="1445" 
d="M410 -10l-390 956h226l153 -428q37 -104 41 -168h9q8 55 57 172l190 439h54l190 -439q49 -117 57 -172h9q4 63 41 168l153 428h225l-389 -956h-53l-213 477q-39 84 -43 139h-8q-4 -55 -43 -139l-213 -477h-53z" />
    <glyph glyph-name="Ygrave" unicode="&#x1ef2;" horiz-adv-x="1146" 
d="M680 0h-213v573l-457 861h252l211 -441q86 -178 98 -248h4q12 70 99 248l211 441h252l-457 -861v-573z" />
    <glyph glyph-name="ygrave" unicode="&#x1ef3;" horiz-adv-x="1015" 
d="M995 946l-571 -1358h-209l201 473l-396 885h230l215 -522q41 -102 43 -184h8q2 72 35 151l225 555h219z" />
    <glyph glyph-name="endash" unicode="&#x2013;" horiz-adv-x="813" 
d="M721 645v-192h-629v192h629z" />
    <glyph glyph-name="emdash" unicode="&#x2014;" horiz-adv-x="813" 
d="M721 645v-192h-629v192h629z" />
    <glyph glyph-name="ff" unicode="&#xfb00;" horiz-adv-x="1318" 
d="M1268 1452v-188h-15q-86 0 -131 -44t-45 -149v-70q-4 -57 -8 -67l6 -4q18 16 84 16h107v-192h-107q-66 0 -84 16l-6 -4q8 -35 8 -111v-655h-200v655q0 76 8 111l-4 4q-23 -16 -86 -16h-84v192h84q63 0 86 -16l4 4q-2 8 -8 63v54q0 211 107 306q108 95 255 95h29z
M608 1452v-188h-14q-86 0 -131 -44t-45 -149v-70q-4 -57 -8 -67l6 -4q18 16 84 16h106v-192h-106q-66 0 -84 16l-6 -4q8 -35 8 -111v-655h-201v655q0 76 8 111l-4 4q-23 -16 -86 -16h-84v192h84q63 0 86 -16l4 4q-2 8 -8 63v54q0 211 108 306t255 95h28z" />
    <glyph glyph-name="fi" unicode="&#xfb01;" horiz-adv-x="1126" 
d="M993 946v-946h-200v946h200zM1006 1434v-271h-226v271h226zM608 1452v-188h-14q-86 0 -131 -44t-45 -149v-70q-4 -57 -8 -67l6 -4q18 16 84 16h106v-192h-106q-66 0 -84 16l-6 -4q8 -35 8 -111v-655h-201v655q0 76 8 111l-4 4q-23 -16 -86 -16h-84v192h84q63 0 86 -16
l4 4q-2 8 -8 63v54q0 211 108 306t255 95h28z" />
  </font>
</defs>
</svg>
