<?xml version="1.0" encoding="utf-8"?>
<!-- Generator: Adobe Illustrator 20.1.0, SVG Export Plug-In . SVG Version: 6.00 Build 0)  -->
<svg version="1.1" id="Layer_1" xmlns="http://www.w3.org/2000/svg" xmlns:xlink="http://www.w3.org/1999/xlink" x="0px" y="0px"
	 viewBox="0 0 600 600" style="enable-background:new 0 0 600 600;" xml:space="preserve">
<path d="M553.4,381.4c5.9,1.7,9.9-0.9,11.5-6.3l0.7-2.5l-17.7-5.2l-0.7,2.5C545.6,375.3,547.5,379.7,553.4,381.4z M529.1,445.9
	c2.3,1.4,4.2,0.5,5.7-2.1l2.2-3.6l-6.6-4l-2.2,3.6C526.8,442.4,526.9,444.5,529.1,445.9z M300,0C134.3,0,0,134.3,0,300
	s134.3,300,300,300s300-134.3,300-300S465.7,0,300,0z M584.1,307.9l-8.9,0.1l-0.2-13.1l-4.3,0.1l0.2,11.5l-8.5,0.1l-0.2-11.5
	l-5.3,0.1l0.2,13.9l-8.9,0.1l-0.3-23.7l35.9-0.5L584.1,307.9z M579.4,248.8l-15.6,2.4l17.5,9.5l1.9,12.5L564.2,262l-16.1,19.2
	l-2.1-13.4l14.3-16l-16.4,2.6l-1.5-9.6l35.5-5.5L579.4,248.8z M575,228l-8.5,2.6l-3.8-12.6l-4.1,1.2l3.4,11l-8.1,2.5l-3.4-11
	l-5.1,1.6l4.1,13.3l-8.5,2.6l-6.9-22.6l34.4-10.5L575,228z M564.5,195.8l-8.2,3.6l-5.3-12l-3.9,1.7l4.7,10.6l-7.7,3.4l-4.7-10.6
	l-4.9,2.2l5.6,12.7l-8.2,3.6l-9.6-21.6l32.9-14.5L564.5,195.8z M441,425.9c2.4-2.7,4.7-5.4,6.9-8.2c6,17.5,9.1,36.3,9.1,55.6
	c-3.6,3.3-7.3,6.4-11.1,9.4C447.2,463.1,445.4,444,441,425.9z M429.5,437.6c2.6-2.4,5.2-4.9,7.6-7.5c4.4,18,6,37,4.2,56.3
	c-3.9,3-7.8,5.8-11.8,8.4C432.5,475.3,432.3,456,429.5,437.6z M451.5,413.2c2.2-2.8,4.2-5.8,6.2-8.7c7.4,16.9,12.2,35.3,13.8,54.5
	c-2,2.2-4,4.3-6.1,6.4c-1.3,1.3-2.7,2.7-4.1,4C460.9,449.7,457.4,430.8,451.5,413.2z M460.8,399.7c1.9-3,3.7-6.1,5.4-9.2
	c8.9,16.2,15.2,34,18.5,53c-3,3.8-6,7.5-9.3,11.2C473.3,435.1,468.3,416.6,460.8,399.7z M455,273.4c-10.1-3.5-20.4-6.1-30.8-7.8
	c-0.3-0.3-0.5-0.6-0.8-0.8l-6.8-3.8c21,0.6,41.9,5.1,61.4,13.2C470.9,273.7,462.4,273.5,455,273.4z M251.5,487.9
	c-12.4,11.1-26.6,20.5-42.3,27.7c-4.5-1.9-8.9-3.9-13.3-6.1c21-8.2,40.1-19.8,56.3-34.1C251.5,479.9,251.3,484.2,251.5,487.9z
	 M252,493.6c0,0.1,0,0.2,0.1,0.3c0.5,2.4,1.9,5.2,3.9,7.9c0.4,0.1,0.8,0.2,1.2,0.2c-8.8,7.8-18.4,14.7-28.8,20.6
	c-4.6-1.5-9.2-3.1-13.7-4.9C228.2,511.1,240.7,503,252,493.6z M262.5,503.2c4.1,0.7,8.2,1.4,12.4,1.9c-8.1,8.5-17.1,16.3-26.9,23.1
	c-4.7-1.1-9.4-2.3-14.1-3.6C244.3,518.1,253.9,511,262.5,503.2z M263.4,452.2c-4.1,3.7-6.8,8.6-8.7,13.8c-17.6,17.8-39.2,32-64,40.9
	c-4.3-2.3-8.5-4.7-12.6-7.2c43.4-12.6,79.9-39.6,103.3-76.5c3.9-6.1,7.3-12.4,10.3-18.8l2.8-1.6c-4.3,12-9.9,23.5-16.7,34.2
	C273.5,440.7,270.6,445.6,263.4,452.2z M171.6,168.9c-2.6-2.3-5.3-4.3-8-5.9c-0.8-0.4-1.7-0.8-2.6-1.1c-3-15.8-3.9-32-2.4-48.3
	c3.9-3,7.9-5.8,11.9-8.5C167.2,126.7,167.6,148.3,171.6,168.9z M348.5,371.7l0.8-0.4c5.6,14.8,9.3,30.5,10.7,46.7
	c0.1,0.9,0.1,1.8,0.2,2.7c-1.6,0.8-3.1,1.5-4.7,2.2C355.8,405.4,353.4,388.1,348.5,371.7z M342,375.4l0.7-0.4
	c4.7,16.4,6.9,33.4,6.7,50.4c-1.6,0.6-3.2,1.2-4.8,1.8C346.4,409.8,345.6,392.3,342,375.4z M335.3,379.2l0.7-0.4
	c3.2,16.7,3.9,33.6,2.2,50.4c-1.6,0.5-3.3,0.9-5,1.3C336.6,413.5,337.3,396.2,335.3,379.2z M353.8,176.4c1.6,0.7,3.2,1.4,4.7,2.1
	c-11.7,9.5-22,20.3-30.7,32.3l-1.1-0.6C334.3,197.8,343.4,186.5,353.8,176.4z M321,207l-1.2-0.7c6.3-12.3,14.1-23.7,23.1-34.1
	c1.6,0.5,3.3,1.1,4.9,1.7C337.3,183.9,328.4,195,321,207z M362.2,183.2c0.7-0.6,1.4-1.2,2.1-1.7c1.5,0.8,3,1.7,4.5,2.5
	c-3.1,2.1-6.2,4.3-9.1,6.6c-9.4,7.3-17.8,15.3-25.2,24l-1.1-0.6C341.6,202.8,351.3,192.4,362.2,183.2z M374.5,187.6
	c1.4,0.9,2.8,1.9,4.2,2.9c-3.3,1.8-6.6,3.7-9.8,5.8c-10.2,6.5-19.4,14-27.7,22.2l-0.9-0.5C350.4,206.3,361.9,196.1,374.5,187.6z
	 M377.7,202.6c-10.7,5.6-20.6,12.3-29.5,19.7l-0.9-0.5c11-10.7,23.4-19.9,36.8-27.4c1.3,1,2.6,2.1,3.9,3.2
	C384.5,199.2,381.1,200.9,377.7,202.6z M393,202.2c1.3,1.2,2.5,2.4,3.7,3.6c-14.7,5-28.6,12-41.2,20.7l-1.1-0.6
	C366.2,216.3,379.2,208.3,393,202.2z M355,368l0.6-0.4c7.2,15.1,12.2,31.1,14.8,47.4c-1.4,0.9-2.9,1.7-4.4,2.5
	c-0.3-3.7-0.6-7.5-1.1-11.2C363.1,392.9,359.7,380.1,355,368z M361.3,364.3l0.8-0.5c8.1,14,14.2,29,18.1,44.6c-1.4,1-2.8,2-4.2,3
	C373.4,395,368.4,379.1,361.3,364.3z M361.9,230.1c12.3-8.1,25.5-14.7,39.3-19.4c1.1,1.3,2.3,2.6,3.4,3.9
	c-14.6,3.6-28.5,9-41.4,16.2L361.9,230.1z M405.7,220.5c1-0.3,2-0.5,2.9-0.8c1.1,1.4,2.1,2.8,3.1,4.3c-14,2.2-27.5,6-40.3,11.5
	l-1.7-0.9C381.1,228.6,393.1,223.9,405.7,220.5z M415.3,229.6c0.9,1.5,1.8,3,2.6,4.5c-12.7,0.8-25.2,3.1-37.2,6.7l-2-1.2
	C390.5,234.9,402.8,231.5,415.3,229.6z M395.9,344.4l2.1-1.2c6.9,6.1,13.4,12.7,19.3,19.8c0.1,1.6,0,3.2-0.3,4.7
	c-0.3,0.5-0.6,1-0.9,1.5C410.1,360.3,403.4,352,395.9,344.4z M412.6,374.8c-1,1.4-1.9,2.8-3,4.2c-6-10.9-13.1-21.1-21.2-30.2l1.7-1
	C398.5,356,406,365,412.6,374.8z M391.6,246.8l-2.9-1.6c10.6-2.8,21.4-4.6,32.3-5.3c0.5,1,1,2,1.5,3c0.7,0.6,1.4,1.2,2.1,1.7
	c-1.7,0-3.3-0.1-5-0.1C410.2,244.5,400.8,245.3,391.6,246.8z M417.4,152.1c17.9-6.1,36.7-9.2,55.9-9.1c3.3,3.6,6.4,7.3,9.5,11.1
	c-4.2-0.3-8.5-0.5-12.7-0.5c-7.6,0-15.1,0.5-22.5,1.3c-0.9-0.9-1.8-1.9-2.8-2.8c-0.2-0.1-0.5-0.1-0.6-0.1c-4.5-0.4-13.1,4.2-17,6.5
	c-0.5,0.1-1.1,0.2-1.6,0.4C423,156.6,420.2,154.3,417.4,152.1z M412.9,148.6c-2.9-2.1-5.8-4.2-8.8-6.1c17-7.5,35.5-12.4,54.9-14
	c2.2,2,4.3,4,6.4,6.1c1.3,1.3,2.7,2.7,4,4.1C449.6,139.1,430.6,142.6,412.9,148.6z M399.3,139.4c-3-1.9-6.2-3.7-9.3-5.4
	c16.3-9,34.3-15.5,53.5-18.8c3.8,3,7.5,6,11.2,9.3C435,126.7,416.3,131.8,399.3,139.4z M384.8,131.3c-3.2-1.6-6.4-3.1-9.6-4.5
	c15.5-10.4,32.9-18.4,51.8-23.4c4.1,2.6,8,5.4,12,8.3C419.6,115.5,401.4,122.2,384.8,131.3z M369.7,124.6c-3.3-1.3-6.6-2.5-10-3.6
	c14.6-11.7,31.2-21.3,49.6-27.9c4.3,2.3,8.5,4.7,12.6,7.2C403,105.8,385.5,114,369.7,124.6z M354.1,119.2c-3.4-1-6.8-1.9-10.3-2.7
	c13.5-13,29.2-23.9,47-32.1c4.5,1.9,8.9,3.9,13.3,6.1C385.7,97.6,368.9,107.3,354.1,119.2z M338.1,115.2c-3.5-0.7-7-1.3-10.6-1.8
	c12.5-14.3,27.4-26.5,44.2-36.1c4.6,1.5,9.2,3.1,13.7,4.9C367.7,90.9,351.8,102.1,338.1,115.2z M331.5,169c1.6,0.4,3.3,0.8,4.9,1.3
	c-2.4,2.8-4.8,5.7-7.1,8.6c-5.9,7.7-11,15.8-15.3,24.1l-1.4-0.8C317.7,190.5,324,179.3,331.5,169z M318.6,176.8
	c-4.6,7.2-8.5,14.6-11.8,22.2l-1.6-0.9c3.9-10.9,8.8-21.4,14.7-31.3c1.7,0.2,3.3,0.5,5,0.8C322.7,170.6,320.6,173.7,318.6,176.8z
	 M307.8,175.7c-3.2,6.3-6.1,12.7-8.4,19.2l-1.9-1.1c2.8-9.7,6.3-19.1,10.7-28.2c1.7,0.1,3.4,0.2,5,0.4
	C311.4,169.1,309.5,172.4,307.8,175.7z M297,175.4c-1.2,2.9-2.3,5.8-3.3,8.7c0-3.7,0.9-7.4,2.9-10.8c0.9-1.5,1.9-2.8,3-4
	C298.7,171.4,297.8,173.4,297,175.4z M300,264.1c19.9,0,36.1,16.1,36.1,35.9c0,19.8-16.1,35.9-36.1,35.9
	c-19.9,0-36.1-16.1-36.1-35.9C263.9,280.2,280.1,264.1,300,264.1z M278.4,112.6c8.2-16.8,19.3-32.5,33.2-46.3
	c4.8,0.2,9.7,0.6,14.5,1.2c-14.8,13-27.3,27.9-37.1,44.2C285.4,111.9,281.9,112.2,278.4,112.6z M276.2,413.2l5.2-3
	c-12.8,24.3-31.3,45.4-54.1,61.2c2.6-3.8,5.9-10.1,9.3-16.7C252.3,443,265.6,428.9,276.2,413.2z M259,425.8
	c-5,6-10.4,11.6-16.1,16.8c1.5-2.8,2.9-5.4,4.2-7.7c2.2-3.8,4.4-6.4,6.5-8.3l-0.4-0.1l1.8-1c2.1-1.7,3.9-2.6,5.3-3l2.8-1.6
	C261.7,422.5,260.4,424.1,259,425.8z M256.4,116.5c-3.5,0.8-6.9,1.7-10.3,2.7c5.3-18.2,13.6-35.5,24.7-51.3
	c4.8-0.6,9.7-1.1,14.5-1.4C273,81.9,263.3,98.7,256.4,116.5z M241.7,117.5c-2-2.2-4.9-5.1-7.8-6.8c3.9-13.7,9.5-26.9,16.8-39.4
	c4.8-1,9.5-1.9,14.3-2.6C254.8,84,247,100.5,241.7,117.5z M229.6,109.2c-1.8-0.5-3.7-1-5.3-1.5c-1.7,0.7-3.4,1.3-5,2.1
	c2.7-11.4,6.6-22.5,11.7-33.2c4.7-1.4,9.3-2.7,14.1-3.9C238.6,84.4,233.4,96.6,229.6,109.2z M214.2,111.9c-3.8,1.7-7.5,3.6-11.2,5.5
	c1.7-11.5,4.7-23,8.8-34.1c4.5-1.8,9.1-3.5,13.7-5C220.6,89.3,216.8,100.5,214.2,111.9z M211.6,201.6c-2.8-7.8-5.1-15.7-6.8-23.6
	c1.2,1.9,2.2,3.6,3.2,5.3c5.6,9.7,4.7,16.3,4,18.7l0,0.9C211.9,202.4,211.7,202,211.6,201.6z M211.9,218.9l0,6.7
	c-13.5-22.4-21.8-47.8-24-74.2c2.5,4.3,6,9.8,9.6,15.2c1.9,16.3,6,32.2,12.3,47.4C210.5,215.7,211.2,217.3,211.9,218.9z
	 M198.1,120.1c-3.6,2-7.1,4.1-10.6,6.4c0.7-11.5,2.6-23.1,5.7-34.6c4.3-2.2,8.7-4.3,13.2-6.3C202.5,96.9,199.8,108.5,198.1,120.1z
	 M202.6,222.3c2.8,5.4,5.9,10.5,9.2,15.4l0,3.9c-5.9-7.2-11.2-14.9-16-23.2c-1.8-3.2-3.6-6.4-5.2-9.7c-1.1-5.6-3.9-10.5-6.1-20.1
	c-1-4.7-3.3-8.9-6.3-12.7c-6.3-24-7.3-49.2-2.8-74c4.1-2.6,8.3-5.1,12.6-7.4C177.3,138.5,182.4,183.6,202.6,222.3z M183.2,237.8
	c-0.7-0.8-1.3-1.6-2-2.4c0.8-1.5,1.7-3,2.6-4.5c2.1,3.2,4.4,6.3,6.8,9.4c6.4,8.3,13.5,15.9,21.1,22.6l0,1.9
	C201.3,257,191.8,248,183.2,237.8z M211.7,272.8l0,1.4c-13.1-7.8-25-17.4-35.5-28.3c0.7-1.6,1.4-3.1,2.2-4.7
	C188,253.3,199.2,263.9,211.7,272.8z M189.1,227.9c-0.6-0.8-1.1-1.7-1.7-2.5c1-1.4,1.9-2.8,2.9-4.2c1.9,3.4,3.8,6.7,5.9,9.9
	c4.7,7.4,9.9,14.2,15.5,20.6l0,2.6C203.4,246.3,195.8,237.5,189.1,227.9z M173.5,252.1c2.7,2.8,5.5,5.5,8.4,8.2
	c9.3,8.4,19.2,15.7,29.7,21.6l0,1.1c-13.3-6.3-25.8-14.3-37.4-24c-0.8-0.7-1.6-1.4-2.4-2.1C172.3,255.3,172.9,253.7,173.5,252.1z
	 M178.9,270.7c10.3,7.9,21.3,14.4,32.7,19.5l0,1c-14.2-5.1-27.8-12.2-40.4-21c-0.9-0.6-1.8-1.3-2.6-1.9c0.4-1.7,0.8-3.3,1.3-5
	C172.8,265.8,175.8,268.3,178.9,270.7z M182.1,360c-1,0.1-2.1,0.2-3.1,0.2c-0.8-1.5-1.5-3.1-2.2-4.7c3.9,0.1,7.8,0,11.7-0.1
	c7.8-0.4,15.4-1.2,22.8-2.6l0,2.1C201.8,357.4,192,359.1,182.1,360z M208.6,362.2c-3.9,3.8-9.2,6.1-15.1,6.1c-3.5,0-6.8-0.8-9.8-2.3
	c3.3-0.3,6.6-0.6,9.8-1C198.7,364.2,203.7,363.3,208.6,362.2z M174.1,349.3c-0.6-1.6-1.2-3.2-1.8-4.8c3.9,0.4,7.8,0.7,11.7,0.9
	c9.3,0.4,18.4,0,27.3-1.1l0,1.7C199,348.5,186.5,349.6,174.1,349.3z M173.5,338.6c-1.1-0.1-2.1-0.2-3.2-0.3c-0.5-1.7-1-3.3-1.4-5
	c3.8,0.8,7.7,1.4,11.6,1.9c10.4,1.3,20.7,1.7,30.9,1.1l0,1.5C198.9,339.4,186.2,339.7,173.5,338.6z M170.6,327.4
	c-1.1-0.2-2.1-0.4-3.2-0.6c-0.4-1.7-0.7-3.5-1-5.2c14.7,4.3,29.9,6.6,44.9,6.8l0,1.4C197.9,330.6,184.2,329.8,170.6,327.4z
	 M168.7,316c-1-0.3-2.1-0.6-3.1-0.9c-0.2-1.7-0.4-3.4-0.5-5.2c3.6,1.4,7.3,2.7,11.1,3.9c11.7,3.6,23.5,6,35.2,7l0,1.1
	C197.1,321.8,182.8,319.8,168.7,316z M167.8,304.5c-1-0.4-2-0.8-3-1.1c0-1.1-0.1-2.2-0.1-3.3c0-0.6,0-1.2,0-1.8
	c3.5,1.7,7.1,3.3,10.7,4.8c11.8,4.9,23.9,8.3,36,10.3l0,1C196.7,313,182.1,309.7,167.8,304.5z M165,291.5c0.1-1.7,0.2-3.4,0.4-5.1
	c3.3,2,6.8,3.9,10.2,5.7c11.6,6,23.6,10.5,35.8,13.6l0,0.8C195.3,303.8,179.6,298.7,165,291.5z M169,281.5c-0.9-0.5-1.9-1.1-2.8-1.6
	c0.3-1.7,0.6-3.4,0.9-5.1c3.2,2.3,6.4,4.5,9.7,6.6c11.1,7,22.8,12.6,34.7,16.7l0,0.9C196.8,295.1,182.5,289.3,169,281.5z
	 M162.4,429.6c2.5,2.6,5,5.1,7.6,7.5c-18,4.4-37,6-56.4,4.2c-3-3.9-5.8-7.8-8.5-11.9C124.4,432.4,143.7,432.4,162.4,429.6z
	 M171.8,441.6c-0.9,2.8-2,6.8-2,10.1c-14,3.6-28.5,5.4-43.2,5.3c-3.3-3.6-6.4-7.3-9.5-11.1C135.8,447.2,154.2,445.7,171.8,441.6z
	 M170.6,456.1c0.6,2.3,1.1,4.7,1.6,6.5c1,0.8,2.1,1.6,3.1,2.4c-11,3.3-22.5,5.5-34.3,6.5c-2.2-2-4.3-4-6.4-6.1
	c-1.3-1.3-2.7-2.7-4-4.1C144.4,461,157.8,459.2,170.6,456.1z M179.9,468.4c3.4,2.4,6.9,4.7,10.4,6.9c-10.8,4.2-22.1,7.4-33.8,9.4
	c-3.8-3-7.5-6.1-11.2-9.3C157.2,474.2,168.7,471.8,179.9,468.4z M195.1,478.2c2.7,1.6,5.5,3.1,8.3,4.6c3.3-0.4,6.5-1.2,9.4-2.2
	c-12.3,6.8-25.5,12.3-39.6,16c-4-2.6-8-5.4-11.9-8.3C173,485.9,184.3,482.5,195.1,478.2z M292.2,424.3c4.5-8.7,8.1-17.6,11-26.6
	l1.8-1c-2.9,13.1-7.4,25.7-13.2,37.7c-1.7-0.1-3.4-0.2-5-0.4C288.6,430.9,290.5,427.6,292.2,424.3z M303,424.6
	c4.4-10.6,7.6-21.4,9.6-32.3l1.4-0.8c-1.5,13.7-4.6,27.4-9.5,40.7c-0.3,0.8-0.6,1.6-0.9,2.4c-1.2,0-2.4,0.1-3.6,0.1
	c-0.5,0-1,0-1.5,0C300.1,431.3,301.6,428,303,424.6z M320.8,387.6l1.1-0.6c0,14.8-2,29.7-5.9,44.4c-0.2,0.8-0.5,1.7-0.7,2.5
	c-1.7,0.2-3.5,0.3-5.2,0.5C315.9,419.2,319.6,403.4,320.8,387.6z M324.6,422.1c2.9-13.1,4.1-26.1,3.8-38.9l0.7-0.4
	c1.6,16.5,0.8,33.1-2.3,49.2c-1.6,0.3-3.3,0.6-4.9,0.9C322.9,429.4,323.8,425.8,324.6,422.1z M334.3,503.7c4.1-0.7,8.2-1.5,12.2-2.4
	c-4.7,10.7-10.4,21-17.3,30.8c-4.8,0.6-9.6,1.1-14.5,1.4C322.3,524,328.8,514,334.3,503.7z M351.9,500c2.1-0.5,4.2-1.1,6.3-1.7
	c2.5-5.9,2.1-18.5,2.1-18.5l-1.2,0c0.1-0.2,0.1-0.4,0.2-0.7c3.4-1.1,6.7-2.3,10-3.6c-3.6,18.3-10.2,36.3-20,53.1
	c-4.7,1-9.5,1.9-14.3,2.6C341.7,521.3,347.3,510.8,351.9,500z M374.6,473.4c3.3-1.4,6.5-2.9,9.7-4.5c-2,18.6-7,37-15.3,54.7
	c-4.6,1.4-9.3,2.7-14,3.8C364.6,510,371,491.7,374.6,473.4z M382.4,393.5c-3.7-11.7-8.6-22.7-14.5-32.9l0.9-0.5
	c8.7,12.7,15.6,26.6,20.6,41.1c-1.3,1.1-2.6,2.2-3.9,3.2C384.6,400.7,383.5,397.1,382.4,393.5z M374.4,356.8l1.2-0.7
	c8.2,10.4,15.3,21.9,21.1,34.2c0.4,0.9,0.8,1.8,1.2,2.7c-1.2,1.3-2.4,2.5-3.7,3.7C389.3,382.5,382.7,369,374.4,356.8z M381.3,352.9
	l1.4-0.8c8.9,9.8,16.5,20.6,22.9,32.1c-1.1,1.3-2.2,2.7-3.3,4C396.7,375.5,389.6,363.6,381.3,352.9z M403.6,457.9c3-2,6-4,8.9-6.2
	c1.2,18.9-0.6,37.9-5.7,56.4c-4.3,2.2-8.7,4.3-13.2,6.3C400,495.6,403.2,476.6,403.6,457.9z M417,448.3c2.8-2.2,5.6-4.5,8.2-6.8
	c2.9,18.4,2.7,37.5-0.7,56.6c-4.1,2.6-8.3,5-12.5,7.3C416.7,486.2,418.2,466.9,417,448.3z M479.5,360.3c11.5,14.4,20.9,30.8,27.4,49
	c-2.3,4.3-4.7,8.5-7.2,12.6c-5.5-18.8-13.7-36.1-23.9-51.5C477.1,367.1,478.3,363.7,479.5,360.3z M481.3,354.9c1-3.4,2-6.9,2.9-10.4
	c12.7,13.3,23.4,28.9,31.5,46.3c-1.9,4.5-3.9,8.9-6,13.2C502.5,385.8,492.8,369.3,481.3,354.9z M485.4,338.9c0.1-0.3,0.2-0.7,0.2-1
	c1.9-0.3,5.9-1,9.4-2.4c10.6,10.6,20,22.7,27.7,36.2c-1.5,4.6-3.1,9.2-4.9,13.7C509.2,367.8,498.1,352.2,485.4,338.9z M499.2,333.2
	c0.3-0.2,0.5-0.4,0.7-0.7c1.9-2,4.1-4.1,5.8-5.8c0-0.2,0.1-0.5,0.1-0.7c8.1,7.8,15.6,16.5,22.3,26c-1.1,4.7-2.3,9.4-3.6,14.1
	C517.1,353.9,508.6,343,499.2,333.2z M506.5,320.4c0.4-4.1,0.7-8.3,0.8-12.5c8.8,7.1,17,15.1,24.4,24c-0.7,4.8-1.5,9.6-2.4,14.3
	C522.4,336.7,514.7,328.1,506.5,320.4z M507.4,302.3c0-0.7,0-1.5,0-2.2c0-3.4-0.1-6.8-0.3-10.2c9.4,6.3,18.2,13.5,26.4,21.8
	c-0.2,4.8-0.6,9.6-1.2,14.5C524.7,317.2,516.3,309.3,507.4,302.3z M409.2,254.5c-1.3,0-2.6,0-3.9,0.1l-4.5-2.5
	c15.5-2,31.2-1.8,46.7,0.4c1.9,0.4,3.9,1,6.2,1.7c3,0.9,6.1,1.3,9.2,1.3c25.5,6.1,49.8,18,70.8,35.8c0.2,4.8,0.2,9.7,0.1,14.5
	C498.4,271.7,453.1,254.5,409.2,254.5z M491.6,244.8c2.7-2.2,5.3-4.6,6.4-6.5c-0.2-0.6-0.4-1.2-0.6-1.7c10.7,3.6,21.2,8.3,31.2,14.2
	c1,4.7,1.9,9.5,2.6,14.3C518.6,256.5,505.2,249.8,491.6,244.8z M532.1,270.8c0.6,4.8,1,9.6,1.4,14.5c-18-14.5-37.9-25.1-58.5-31.8
	c4.1-1.2,8-2.9,11.3-4.6c0.3-0.2,0.6-0.4,0.9-0.6C502.8,253.4,518,260.9,532.1,270.8z M495.6,231.2c-1.4-4-2.9-7.9-4.6-11.7
	c11.1,2.7,22,6.6,32.4,11.5c1.4,4.6,2.7,9.3,3.9,14C517,239.3,506.4,234.7,495.6,231.2z M488.8,214.3c-1.7-3.8-3.6-7.5-5.6-11.2
	c11.2,1.7,22.4,4.6,33.4,8.6c1.8,4.5,3.5,9,5,13.6C510.9,220.6,499.9,216.9,488.8,214.3z M480.5,198.2c-2.1-3.6-4.2-7.2-6.5-10.7
	c11.4,0.7,22.8,2.6,34.1,5.7c2.2,4.3,4.3,8.7,6.3,13.2C503.2,202.6,491.8,199.8,480.5,198.2z M470.8,182.8c-2.4-3.4-4.8-6.7-7.4-10
	c11.4-0.3,23,0.6,34.6,2.7c2.6,4.1,5,8.3,7.3,12.5C493.9,185.2,482.3,183.5,470.8,182.8z M519.3,117.4l6.4,9.5l-13.1,15.8l0.1,0.1
	l20.4-5l4.6,6.8l-12.2,17l0.1,0.1l19.5-6.2l6.4,9.5l-37,9.4l-4.5-6.7l12.9-17.9l-0.1-0.1l-21.4,5.3l-4.5-6.7L519.3,117.4z
	 M465.7,168.3c-2,0-3.9,0-5.9,0.1c-2.6-3.2-5.4-6.3-8.2-9.3c11.4-1.3,23-1.4,34.8-0.4c3,3.9,5.8,7.8,8.5,11.9
	C485.1,169.1,475.4,168.3,465.7,168.3z M491.7,90.5l-18.3,19.9l10,9.2l-6,6.6l-17.1-15.8l24.3-26.4L491.7,90.5z M449.9,58.2l8.5,6
	l-11.9,17c-1.9,2.7-2.4,5.7,0.9,8.1c3.3,2.3,6,0.9,7.9-1.9l11.9-17l8.5,6l-12.1,17.2c-5.4,7.7-12.8,10-21.9,3.6
	c-9-6.3-9.4-14.1-4-21.8L449.9,58.2z M424.2,43.6c9.6,4.7,14,15.1,9,25.2c-4.9,10.2-15.8,13.1-25.4,8.5c-9.6-4.7-14-15.1-9-25.2
	C403.8,41.9,414.6,39,424.2,43.6z M368.1,47.9c3.2,4.2,6.1,6.5,9.4,7.6c1.8,0.6,3,0.5,3.4-0.6c0.3-0.8-0.2-1.5-1.1-2.3l-6.3-6.1
	c-3.3-3.3-4.4-7.3-3-11.6c1.9-6.1,7.5-9,16.1-6.3c3.6,1.1,7.1,3,10.8,6.6l-6.6,7c-2.3-2.8-5.3-4.7-7.5-5.4c-1.5-0.5-2.2-0.3-2.5,0.6
	c-0.2,0.6,0,1.3,1.2,2.4l5.9,5.8c3,3,5,6.3,3.3,11.7c-2.2,7-8.1,9.4-16.9,6.6c-5.1-1.6-9.4-4.4-13.3-8.4L368.1,47.9z M366.1,75.6
	c-16.9,10.2-31.8,22.7-44.3,37.1c-3.5-0.4-7.1-0.7-10.7-0.9c11.2-15.3,25-28.8,40.9-39.8C356.7,73,361.4,74.2,366.1,75.6z
	 M305.5,111.5c-1.8-0.1-3.7-0.1-5.5-0.1c-1.7,0-3.5,0-5.2,0.1c9.7-16,22.1-30.7,37.1-43.2c4.8,0.7,9.6,1.5,14.3,2.4
	C330.1,82.5,316.5,96.3,305.5,111.5z M310.4,15.5l7.6,0.7l15,20.8l0.1,0l1.9-19.2l9.7,0.9l-3.5,35.7l-7.6-0.7l-15-20.8l-0.1,0
	l-1.9,19.2l-9.7-0.9L310.4,15.5z M272.6,113.4c-3.5,0.5-7,1.1-10.4,1.8c6.7-17.4,16.4-34,29-48.9c4.9-0.2,9.7-0.2,14.6-0.1
	C292.1,80.4,281,96.3,272.6,113.4z M284.8,16.2c9.5-0.5,13.8,4.8,14.2,11c0.3,4.8-1.9,9.2-7.1,11.2l10.7,12.8l-12.1,0.7l-10-12.8
	l0.7,13.3l-9.7,0.5l-2-35.9L284.8,16.2z M258.3,18.6l1.7,8.8L247,29.8l0.8,4.2l11.4-2.1l1.6,8.3l-11.3,2.1l1,5.2l13.7-2.6l1.7,8.8
	l-23.3,4.4l-6.6-35.3L258.3,18.6z M203.2,32.5l4.2,12.4L219,41l-4.2-12.4l9.2-3.1l11.5,34l-9.2,3.1l-4.4-13.2l-11.6,3.9l4.4,13.2
	l-9.2,3.1l-11.5-34L203.2,32.5z M185.3,39.4l4,8l-8,4l12.1,24.2l-8.7,4.4l-12.1-24.2l-8,4l-4-8L185.3,39.4z M141.5,63.8
	c7.9-5.3,14.4-3,17.8,2.2c2.7,4,3.1,8.8-0.3,13.2l15.7,5.5l-10.1,6.8l-15.1-5.9l7.5,11.1l-8.1,5.5l-20.1-29.8L141.5,63.8z
	 M131.5,179.6c-2.4,3.4-4.8,6.8-7,10.3c-4.2-10.7-7.3-21.9-9.2-33.4c3-3.8,6.1-7.5,9.3-11.2C125.8,157.1,128.2,168.5,131.5,179.6z
	 M128.5,141c2-2.2,4-4.3,6.1-6.4c1.3-1.3,2.7-2.7,4.1-4c0.3,11.9,1.6,23.5,4,34.8c-2.7,3.1-5.3,6.3-7.8,9.6
	C131.6,164.1,129.5,152.7,128.5,141z M121.6,194.6c-2.1,3.6-4.1,7.2-6.1,10.9c-5.1-10.3-9.1-21.1-12.1-32.3c2.6-4,5.4-8,8.3-12
	C114,172.7,117.3,183.9,121.6,194.6z M113,210.4c-1.8,3.7-3.5,7.5-5.1,11.4c-5.9-9.8-10.9-20.2-14.8-31.1c2.3-4.3,4.7-8.5,7.2-12.6
	C103.6,189.4,107.9,200.2,113,210.4z M105.9,227c-1.5,3.9-2.8,7.8-4.1,11.8c-6.7-9.1-12.6-19-17.4-29.6c1.9-4.5,3.9-8.9,6.1-13.3
	C94.7,206.9,99.9,217.3,105.9,227z M100.3,244.2c-0.2,0.8-0.5,1.7-0.7,2.5c0,0.5,0.1,0.9,0.3,1.2c1.5,3.4,7.6,7.5,11.8,10.1
	c1,1.1,2,2.2,3,3.2c-0.7,3.5-1.4,7-1.9,10.6c-14-12.4-26-27-35.4-43.6c1.5-4.6,3.1-9.2,4.9-13.7C87.4,225.1,93.4,235,100.3,244.2z
	 M111.9,277.5c-0.4,3.6-0.8,7.1-1,10.7c-15-11.1-28.2-24.6-39-40.3c1.1-4.7,2.3-9.4,3.7-14.1C85.6,250.5,97.9,265.2,111.9,277.5z
	 M110.7,293.9c-0.1,2-0.1,4.1-0.1,6.1c0,1.6,0,3.2,0.1,4.8c-15.9-9.7-30.2-22.1-42.4-36.7c0.7-4.8,1.5-9.6,2.4-14.3
	C82.3,269.6,95.8,283,110.7,293.9z M110.9,310.5c0.2,3.6,0.5,7.2,0.9,10.8c-16.7-8.3-32-19.4-45.4-32.9c0.2-4.8,0.6-9.7,1.2-14.5
	C80.3,288.5,94.9,300.8,110.9,310.5z M112.5,327c0.5,3.5,1.1,7.1,1.8,10.5c-17.1-6.7-33.4-16.3-48.1-28.6c-0.2-4.9-0.2-9.7-0.1-14.6
	C80.1,307.7,95.8,318.7,112.5,327z M115.6,343.2c0.8,3.5,1.8,7,2.8,10.5c-17.9-5.3-34.9-13.5-50.4-24.5c-0.6-4.8-1.1-9.7-1.4-14.5
	C81.7,326.8,98.2,336.4,115.6,343.2z M120.1,359.1c1.1,3.4,2.4,6.8,3.7,10.2c-18.3-3.7-36-10.4-52.5-20c-1-4.8-1.9-9.5-2.6-14.3
	C84.8,345.7,102.1,353.8,120.1,359.1z M126,374.6c1.4,3.3,3,6.6,4.6,9.8c-18.6-2.1-36.9-7.2-54.1-15.4c-1.4-4.7-2.7-9.3-3.9-14.1
	C89.6,364.3,107.6,370.9,126,374.6z M133.2,389.5c1.7,3.2,3.5,6.3,5.4,9.4c-18.8-0.4-37.4-4-55.3-10.6c-1.8-4.5-3.5-9.1-5-13.7
	C96.1,382.4,114.6,387.4,133.2,389.5z M141.8,403.7c2,3,4.1,6,6.2,8.8c-18.8,1.2-37.7-0.7-56.2-5.7c-2.2-4.3-4.3-8.7-6.3-13.2
	C104,399.9,123,403.2,141.8,403.7z M146.3,161.3c-2.3-11.3-3.4-22.9-3.4-34.6c3.6-3.3,7.3-6.4,11.1-9.5c-1,14.5-0.3,28.8,2,42.7
	c-2.5-0.9-5-1.6-6.9-1.7C148.2,159.2,147.3,160.2,146.3,161.3z M105.9,91c7.8-7.3,19.1-7.6,26.8,0.7c7.7,8.3,6.5,19.5-1.3,26.8
	c-7.8,7.3-19.1,7.6-26.8-0.7C96.9,109.5,98.1,98.3,105.9,91z M68.9,133.8l25.6-1.6l0.1-0.1l-15.3-11.8l6-7.7l28.4,22l-4.6,6
	l-25.6,1.6l-0.1,0.1l15.3,11.8l-6,7.7l-28.4-22L68.9,133.8z M44.5,174.6l24.2,12l6-12.1l8,4l-10.3,20.9l-32.2-15.9L44.5,174.6z
	 M31.8,204.8l38.5-1.8l-3.4,10.2l-7.1,0l-3.9,11.6l5.7,4.2l-3.4,10.2l-29.7-24.6L31.8,204.8z M17.6,264l21.7-13.6l0-0.1l-19-3.1
	l1.6-9.6l35.5,5.7l-1.2,7.5l-21.7,13.6l0,0.1l19,3.1l-1.6,9.6l-35.5-5.7L17.6,264z M33.3,282c11.3,0,18.8,8.4,18.8,19.1
	c0,10.7-7.4,19.2-18.7,19.2c-11.3,0-18.8-8.4-18.8-19.1C14.6,290.5,22,282,33.3,282z M16.9,329.6l35.7-4.3l1.2,9.7l-35.7,4.3
	L16.9,329.6z M19,347.5l8.7-1.9l1.9,8.8l26.4-5.8l2.1,9.5l-26.4,5.8l1.9,8.8l-8.7,1.9L19,347.5z M31.3,394.2l28.8-25.6l3.8,10.1
	l-5.5,4.4l4.3,11.5l7.1-0.3l3.8,10.1L35,403.9L31.3,394.2z M57.4,449.1l8.4-24.3l-0.1-0.1L49,434.3l-4.8-8.5L75.4,408l3.8,6.6
	l-8.4,24.3l0.1,0.1l16.8-9.6l4.8,8.5l-31.2,17.8L57.4,449.1z M96.5,479c-2.3,2-5.6,1.7-7.6-0.6c-1.9-2.3-1.7-5.6,0.6-7.6
	c2.3-2,5.7-1.6,7.6,0.6C99.1,473.7,98.8,477.1,96.5,479z M94.6,412c18.9,4.7,38.1,6.3,56.9,5.1c2.2,2.8,4.6,5.6,7,8.3
	c-18.6,2.9-37.7,2.6-56.5-0.8C99.4,420.4,96.9,416.2,94.6,412z M133.5,531.1l7.3-17.1l-0.1-0.1l-12.7,6.5l-5-4l3.6-13.8l-0.1-0.1
	l-15.1,10.8l-7.7-6.2l30.4-21.7l5.6,4.5l-4.5,16.4l0,0l15-8l5.6,4.5l-14.6,34.4L133.5,531.1z M173.4,544.3l-14.1-8.2
	c-0.5,2.4,0.8,4.1,3.5,5.7c1.8,1.1,3.8,1.6,5.9,1.9l-1.3,7.3c-3.4-0.5-6.2-1.6-8.5-3c-7.8-4.5-10.2-11.1-6.1-18.1
	c4.2-7.3,11-8.2,17.5-4.5c6.4,3.7,8.5,9.8,4,17.5L173.4,544.3z M174.5,555.4l15.3-32.5l8.6,4l-15.3,32.5L174.5,555.4z M221.3,561.4
	c-2.9,8.1-9.2,10.1-14.9,8.1c-3.5-1.3-5.3-3.5-5.9-6.1l-0.1,0l-1,2.8l-8.9-3.2l12.2-33.8l8.9,3.2l-5.2,14.3l0.1,0
	c2.1-1.6,4.9-2.3,8.4-1C220.7,547.8,224.3,553.3,221.3,561.4z M252.6,568.8c-1.7,7.5-8.3,11.1-16.1,9.3c-7.8-1.8-12.2-7.8-10.5-15.3
	s8.3-11.1,16.1-9.3C249.9,555.2,254.3,561.3,252.6,568.8z M280.5,505.6c4.1,0.4,8.2,0.6,12.3,0.8c-7.2,9.1-15.5,17.6-24.7,25.3
	c-4.8-0.7-9.6-1.5-14.4-2.4C263.5,522.2,272.4,514.2,280.5,505.6z M283.2,584.3l-9.1-1l0.4-3.6l-0.1,0c-2.4,2.7-4.8,3.9-8.1,3.6
	c-5.1-0.5-8.7-4-8-10.1l1.6-15.2l9.7,1l-1.3,12.4c-0.3,2.8,1,4.1,2.7,4.3c2.1,0.2,3.7-1.1,4.1-4.8l1.2-11.1l9.4,1L283.2,584.3z
	 M274,532.4c9.1-8,17.3-16.7,24.5-25.9c0.5,0,1,0,1.6,0c3.6,0,7.2-0.1,10.8-0.3c-6.4,9.7-13.9,18.9-22.4,27.4
	C283.6,533.4,278.8,533,274,532.4z M308.3,568.2l-0.6,0.4c-4.5,0-6.8,1.7-6.8,7l0,8.8l-9.5,0l0.1-23.7l9.2-0.8l0,3.6h0.1
	c1.5-4,4.2-5,7.5-5h0.1L308.3,568.2z M294.3,533.8c8.4-8.8,15.8-18.1,22.1-27.9c4.1-0.3,8.2-0.8,12.3-1.3
	c-5.5,10.2-12.1,20-19.9,29.2C304,533.9,299.2,533.9,294.3,533.8z M331.1,582.8l-1.2-12.2c-0.3-2.8-1.4-4-3.7-3.8
	c-2.3,0.2-3.6,1.8-3.3,5.3l1.1,11.4l-9.5,0.9l-2.3-23.6l9.1-0.9l0.3,3.5l0.1,0c1.8-3,4.2-4.7,7.7-5.1c5.1-0.5,8.9,2.2,9.6,8.7
	l1.4,14.8L331.1,582.8z M360.7,571.3c2.1-0.4,3.9-1.4,5.6-2.6l3.9,6.2c-2.8,1.9-5.7,3-8.3,3.5c-8.8,1.9-15-1.3-16.7-9.3
	c-1.8-8.2,2.7-13.5,9.9-15.1c7.2-1.5,12.8,1.5,14.7,10.3l0.3,1.6l-16,3.4C355.5,571.6,357.6,572,360.7,571.3z M389.6,466.2
	c3.1-1.7,6.2-3.4,9.2-5.3c-0.4,18.7-3.8,37.5-10.5,55.8c-4.5,1.8-9.1,3.5-13.6,5C382.5,503.8,387.5,485,389.6,466.2z M394.5,568.6
	l-3-7.3l6.6-13.5c1.2-2.5,2.5-4.9,1.6-7.2c-0.7-1.7-2.1-2.2-3.9-1.5c-2.3,0.9-2.6,2.9-1.9,4.7l-8.8,3.6c-2.4-5.9-1.2-12.6,7.8-16.3
	c7.5-3,13.4-1.1,15.8,5c1.7,4.2,0.8,8.1-1.8,12.9l-3.7,6.7l11.8-4.8l3.3,8.1L394.5,568.6z M438.6,549.3c-8.1,4.5-16.3,1.4-21.9-8.6
	c-5.6-10-3.9-18.5,4.3-23.1c8.1-4.5,16.3-1.5,21.8,8.5C448.4,536.2,446.7,544.8,438.6,549.3z M458.6,536.2l-14.7-21l-0.9,0.6
	l-5.1-7.4l8.5-5.9l19.8,28.4L458.6,536.2z M484.9,517.2c-6.3,5.3-13.8,5.6-19.5-1.2c-3.7-4.4-4.8-8.7-4.9-15.3l-0.1-9.1l8.9-7.5
	l-0.8,17.7l0.2,0c0.3-2,1.8-3.7,3-4.8c4.1-3.5,10.7-3.9,15.4,1.8C491.1,503.6,492.3,510.9,484.9,517.2z M488.3,438.8
	c-3.8-19.2-10.5-37.2-19.4-53.4c1.6-3.2,3.1-6.4,4.6-9.7c10.2,15.4,18.1,32.6,23,51.2C493.9,430.9,491.2,434.9,488.3,438.8z
	 M507.9,482.2c-2,2.2-5.3,2.5-7.6,0.5c-2.3-2-2.5-5.4-0.5-7.6c2-2.2,5.3-2.5,7.6-0.5C509.7,476.6,509.9,479.9,507.9,482.2z
	 M541.5,449.5c-5,8.1-11.9,8.6-17.2,5.4c-4.1-2.5-6.4-6.8-5.2-12.2l-16.6,1.5l6.4-10.4l16.2-0.9l-11.4-7l5.1-8.3l30.6,18.8
	L541.5,449.5z M554.7,426.3l-8.2-3.6l5.3-12L548,409l-4.7,10.5l-7.7-3.4l4.7-10.5l-4.9-2.2l-5.7,12.7l-8.2-3.6l9.6-21.6l32.8,14.6
	L554.7,426.3z M573.2,377.5c-3.4,11.7-12,16.9-22.7,13.7c-10.7-3.1-15.1-12.2-11.7-23.8l3.4-11.8l34.5,10.1L573.2,377.5z M582.8,327
	l-21.3,14.3l0,0.1l19.1,2.5l-1.2,9.7l-35.6-4.6l1-7.5l21.3-14.3l0-0.1l-19.1-2.5l1.2-9.7l35.6,4.6L582.8,327z M474,504.7
	c-2.1,1.8-2.3,4.1-0.7,6.1c1.7,2,4.1,2.1,6.1,0.3c2.1-1.8,2.3-4.1,0.7-6.1C478.4,503.1,476,503,474,504.7z M42.8,395.4l11.8-0.5
	l-2.6-6.9L42.8,395.4z M151.3,72.2c-1.5-2.2-3.6-2.1-6.1-0.5l-3.5,2.4l4.3,6.4l3.5-2.4C152,76.4,152.8,74.4,151.3,72.2z
	 M166.8,530.4c-1.7-1-3.8-0.8-5.2,1.4l6.5,3.8C169.4,533.3,168.5,531.4,166.8,530.4z M33.4,310c5.6,0,9-3.8,9-8.9
	c0-5.1-3.4-8.9-9-8.9c-5.6,0-9,3.8-9,8.9C24.4,306.3,27.8,310,33.4,310z M49.3,220l2.3-7l-11.8-0.1L49.3,220z M124.7,111.4
	c3.7-3.5,4.2-8.5,0.4-12.6c-3.8-4.1-8.9-4-12.6-0.5c-3.7,3.5-4.2,8.5-0.4,12.6C115.9,114.9,121,114.8,124.7,111.4z M240.3,561.5
	c-2.6-0.6-4.9,0.6-5.5,3.2c-0.6,2.7,1,4.7,3.5,5.3c2.6,0.6,4.9-0.6,5.5-3.2C244.4,564.1,242.9,562.1,240.3,561.5z M356,560.2
	c-1.9,0.4-3.4,2-3,4.5l7.4-1.6C359.8,560.6,357.9,559.8,356,560.2z M412.1,68.6c4.6,2.2,9.5,0.8,11.9-4.2c2.5-5,0.5-9.7-4.1-12
	c-4.6-2.2-9.5-0.8-11.9,4.2C405.6,61.6,407.6,66.3,412.1,68.6z M284.3,32.6c3-0.2,4.7-1.5,4.5-4.2c-0.1-2.7-2-3.7-5-3.5l-4.3,0.2
	l0.4,7.7L284.3,32.6z M209.4,552.5c-2.5-0.9-4.9-0.1-5.8,2.5c-1,2.7,0.4,4.8,2.9,5.7c2.5,0.9,4.9,0.1,5.8-2.5
	C213.2,555.5,211.8,553.4,209.4,552.5z M425.4,525.6c-2.9,1.6-3.5,4.6-0.3,10.4c3.2,5.8,6.1,6.9,9,5.3s3.4-4.7,0.2-10.5
	C431.1,525.1,428.3,524,425.4,525.6z"/>
</svg>
