<?xml version="1.0" encoding="utf-8"?>
<!-- Generator: Adobe Illustrator 20.1.0, SVG Export Plug-In . SVG Version: 6.00 Build 0)  -->
<svg version="1.1" id="Layer_1" xmlns="http://www.w3.org/2000/svg" xmlns:xlink="http://www.w3.org/1999/xlink" x="0px" y="0px"
	 viewBox="0 0 600 600" style="enable-background:new 0 0 600 600;" xml:space="preserve">
<path d="M149.2,158.2c1.7,0.1,3.8,0.7,6,1.5c-1.6-9.8-2.5-19.7-2.6-29.8c-3.5,3-6.9,6.2-10.2,9.4c0.6,7.7,1.7,15.2,3.3,22.7
	C146.9,160.7,148,159.4,149.2,158.2z M241,116.8c4-12.9,9.4-25.5,16.2-37.5c-4.5,0.9-9.1,1.9-13.5,3c-4.3,9-7.9,18.4-10.5,28
	C236,111.7,238.9,114.5,241,116.8z M271.6,113.5c6.5-13.5,14.7-26.4,24.5-38.2c-4.6,0.1-9.3,0.3-13.9,0.6
	c-8.8,12.2-15.9,25.5-21.1,39.5C264.6,114.7,268.1,114.1,271.6,113.5z M255.5,116.7c5.3-14,12.3-27.6,21.1-40.2
	c-4.6,0.5-9.2,1.1-13.7,1.8c-7.7,12.9-13.6,26.8-17.6,41.1C248.6,118.4,252,117.5,255.5,116.7z M224.3,107.7
	c1.4,0.4,2.9,0.8,4.5,1.3c2.5-8.5,5.6-16.9,9.4-25.1c-4.5,1.3-8.9,2.7-13.2,4.2c-2.7,7.2-4.9,14.6-6.7,22.1
	C220.3,109.3,222.3,108.5,224.3,107.7z M201.6,97.7c-4.2,2-8.3,4.2-12.3,6.4c-1.4,7.6-2.3,15.3-2.7,22.9c3.4-2.2,6.9-4.4,10.5-6.4
	C198.1,113,199.6,105.3,201.6,97.7z M219.6,89.9c-4.3,1.7-8.6,3.4-12.8,5.3c-2.1,7.5-3.7,15-4.7,22.6c3.6-1.9,7.3-3.8,11-5.5
	C214.8,104.9,216.9,97.4,219.6,89.9z M212,201.9c0.7-2.4,1.6-8.9-4-18.7c-1.1-1.9-2.4-4.1-3.9-6.3c1.9,9,4.5,17.9,7.9,26.6
	L212,201.9z M187,149.8c2,24.5,9.3,48.5,21.5,70.3c1.1,2,2.3,3.9,3.4,5.8l0-6.5c-0.1-0.1-0.1-0.3-0.2-0.4c-7.8-16.9-12.8-35-15-53.5
	C192.9,159.8,189.3,154.1,187,149.8z M368.9,124.3c12.2-8.3,25.6-15.2,39.8-20.5c-4-2.2-8.2-4.4-12.3-6.4
	c-13.5,6.1-26.2,14-37.6,23.3C362.2,121.8,365.6,123,368.9,124.3z M384.1,131c12.9-7.2,26.7-12.9,41.3-16.9
	c-3.8-2.6-7.8-5.1-11.7-7.4c-14,4.9-27.2,11.6-39.3,19.8C377.6,127.9,380.9,129.4,384.1,131z M288,111.8c7.6-12.9,16.9-25,27.7-35.9
	c-4.6-0.3-9.3-0.5-13.9-0.6c-9.8,11.4-18,24-24.4,37.4C280.9,112.4,284.4,112.1,288,111.8z M353.3,119c11.5-9.4,24.2-17.5,38-24
	c-4.2-1.9-8.5-3.7-12.8-5.3c-13,7.3-24.9,16.3-35.5,26.5C346.4,117.1,349.9,118,353.3,119z M326.7,113.3c3.5,0.5,7,1.1,10.5,1.8
	c10.7-10.4,22.7-19.6,35.8-27.3c-4.4-1.5-8.8-2.9-13.2-4.1C347.5,92.1,336.3,102.1,326.7,113.3z M300,111.4c1.5,0,3,0,4.4,0.1
	c8.7-12.1,19-23.3,30.7-33.3c-4.6-0.7-9.2-1.3-13.8-1.8c-10.8,10.5-20,22.3-27.6,35.1C295.9,111.5,297.9,111.4,300,111.4z
	 M310.3,111.7c3.6,0.2,7.1,0.5,10.6,0.9c9.7-11.3,20.9-21.6,33.4-30.4c-4.5-1.1-9-2.1-13.6-3C329.1,88.7,318.9,99.7,310.3,111.7z
	 M163.6,163c2.4,1.5,4.8,3.3,7.2,5.3c-3.2-16.4-4.2-33.5-2.8-50.6c-3.7,2.7-7.4,5.6-11,8.5c-0.1,11.9,1,23.8,3.3,35.4
	C161.5,162.1,162.6,162.6,163.6,163z M211.3,335.4c-3.6,0.2-7.3,0.4-10.9,0.4c-4.9,0-9.8-0.2-14.7-0.7c-5.7-0.5-11.3-1.3-16.9-2.4
	c0.4,1.6,0.8,3.3,1.3,4.9c4.9,0.5,9.9,0.8,14.9,0.8c8.8,0.1,17.6-0.5,26.3-1.7L211.3,335.4z M211.6,289.6c-5.4-2.4-10.8-5-16-8.1
	c-4.2-2.4-8.4-5.1-12.4-7.9c-4.6-3.2-9.1-6.7-13.3-10.4c-0.5,1.6-0.9,3.3-1.3,4.9c4,2.9,8.1,5.6,12.4,8.1
	c9.8,5.8,20.1,10.6,30.7,14.3L211.6,289.6z M211.5,297.5c-5.8-1.9-11.5-4.2-17.1-6.8c-4.4-2.1-8.8-4.3-13-6.8
	c-4.9-2.8-9.6-5.9-14.2-9.2c-0.3,1.7-0.6,3.3-0.9,5c4.2,2.5,8.6,4.8,13,7c10.4,5,21.2,8.9,32.2,11.7L211.5,297.5z M211.3,343.5
	c-2.4,0.3-4.9,0.6-7.3,0.8c-4.9,0.4-9.8,0.6-14.7,0.6c-5.7,0-11.4-0.3-17.1-0.9c0.6,1.6,1.1,3.2,1.8,4.8c5,0.1,10-0.1,14.9-0.5
	c7.6-0.6,15.1-1.6,22.5-3.2L211.3,343.5z M211.4,320.1c-5.3-0.4-10.5-1-15.8-2c-4.8-0.8-9.6-1.9-14.4-3.2
	c-5.5-1.5-10.9-3.3-16.2-5.3c0.1,1.7,0.3,3.4,0.5,5.1c4.8,1.3,9.6,2.5,14.5,3.4c10.4,2,20.9,2.9,31.4,3L211.4,320.1z M211.4,327.7
	c-4.6,0-9.1-0.2-13.7-0.6c-4.9-0.4-9.7-1.1-14.6-1.9c-5.6-1-11.2-2.3-16.7-3.9c0.3,1.7,0.6,3.4,0.9,5c4.9,0.9,9.8,1.6,14.8,2.1
	c9.8,1,19.6,1.1,29.3,0.4L211.4,327.7z M211.4,312.6c-5.7-0.9-11.4-2-17-3.6c-4.7-1.3-9.4-2.7-14-4.4c-5.3-1.9-10.5-4.2-15.6-6.6
	c0,0.7,0,1.4,0,2.1c0,1,0,2,0,3c4.6,1.7,9.3,3.3,14.1,4.6c10.7,3,21.6,4.9,32.6,5.8L211.4,312.6z M192.9,368.2c2-0.4,4-0.9,6.1-1.4
	c1.8-0.5,3.6-1,5.4-1.5c2-1.1,3.8-2.6,5.3-4.3c-3.6,0.9-7.2,1.7-10.9,2.3c-5.3,0.9-10.6,1.6-15.9,2
	C185.8,367.1,189.3,368.1,192.9,368.2z M211.5,305.1c-5.9-1.4-11.7-3.1-17.5-5.2c-4.6-1.7-9.1-3.5-13.6-5.6c-5.1-2.4-10.1-5.1-15-8
	c-0.2,1.7-0.3,3.4-0.4,5.1c4.4,2.1,9,4.1,13.6,5.8c10.7,4.1,21.7,7,32.9,8.8L211.5,305.1z M178.2,241.4c-0.7,1.5-1.4,3-2.1,4.6
	c3.4,3.5,7,6.8,10.7,10c7.8,6.7,16.1,12.6,24.9,17.8l0-1.3c-3.9-2.7-7.7-5.6-11.4-8.7c-3.7-3.1-7.3-6.4-10.8-10
	C185.5,249.9,181.7,245.7,178.2,241.4z M184.6,188.7c2.3,10.1,5.2,15,6.2,21c3.3,6.4,7,12.7,11.1,18.7c3.1,4.6,6.4,8.9,9.9,13.2
	l0-3.7c-2.4-3.5-4.7-7.1-6.8-10.8c-20.5-35.6-27.8-78.1-20.6-120c-4,2.4-7.9,4.9-11.7,7.5c-2,20.4-0.3,41,4.9,60.6
	C180.9,179.1,183.4,183.6,184.6,188.7z M211.8,251.5c-1.3-1.4-2.5-2.8-3.8-4.3c-3.1-3.7-6.1-7.6-8.9-11.7c-3.2-4.6-6.1-9.3-8.9-14.2
	c-1,1.4-1.9,2.7-2.9,4.1c2.7,4,5.6,7.9,8.7,11.6c4.9,6,10.1,11.6,15.7,16.8L211.8,251.5z M211.7,262.7c-2.7-2.4-5.4-4.8-7.9-7.4
	c-3.4-3.4-6.8-7.1-9.9-10.9c-3.6-4.3-6.9-8.8-10.1-13.4c-0.9,1.4-1.7,2.9-2.5,4.4c3.1,3.7,6.3,7.4,9.7,10.9
	c6.4,6.6,13.4,12.6,20.7,18.1L211.7,262.7z M211.2,351.9c-1,0.2-2,0.4-3.1,0.6c-4.8,0.8-9.7,1.5-14.6,1.9
	c-5.7,0.5-11.4,0.7-17.1,0.6c0.7,1.6,1.4,3.1,2.2,4.6c5-0.4,9.9-1,14.8-1.8c6-1,11.9-2.3,17.7-3.9L211.2,351.9z M398.6,139
	c13.4-6,27.7-10.5,42.5-13.2c-3.6-2.9-7.3-5.7-11-8.4c-14.3,3.7-28,9.2-40.8,16.3C392.4,135.3,395.5,137.1,398.6,139z M211.6,282.4
	l0-1c-4.8-2.7-9.5-5.6-14.1-8.8c-4-2.8-7.9-5.8-11.7-9c-4.3-3.6-8.4-7.5-12.3-11.5c-0.6,1.6-1.2,3.2-1.7,4.8
	c3.7,3.2,7.6,6.2,11.6,9.1C192.3,272.4,201.7,277.9,211.6,282.4z M332.3,430.8c1.7-0.4,3.3-0.9,5-1.3c0.5-5.1,0.8-10.3,0.9-15.5
	c0.2-11.6-0.9-23.2-3.1-34.6l-0.7,0.4c0.7,6.2,1.1,12.4,1.1,18.7c0,4.9-0.2,9.8-0.7,14.7C334.3,419.2,333.4,425,332.3,430.8z M300,0
	C134.3,0,0,134.3,0,300s134.3,300,300,300s300-134.3,300-300S465.7,0,300,0z M584,307.9l-8.9,0.1l-0.2-13.1l-4.3,0.1l0.2,11.5
	l-8.5,0.1l-0.2-11.5l-5.3,0.1l0.2,13.9l-8.9,0.1l-0.3-23.7l35.9-0.5L584,307.9z M579.4,248.9l-15.6,2.4l17.5,9.5l1.9,12.5L564.2,262
	l-16.1,19.2l-2.1-13.4l14.3-16l-16.4,2.6l-1.5-9.6l35.5-5.5L579.4,248.9z M575,228.1l-8.5,2.6l-3.8-12.6l-4.1,1.2l3.4,11l-8.1,2.5
	l-3.4-11l-5.1,1.6l4.1,13.3l-8.5,2.6l-6.9-22.6l34.4-10.5L575,228.1z M533.9,300c0,129.2-104.7,233.9-233.9,233.9
	S66.1,429.2,66.1,300S170.8,66.1,300,66.1S533.9,170.8,533.9,300z M564.5,195.9l-8.2,3.6l-5.3-12l-3.9,1.7l4.7,10.6l-7.7,3.4
	l-4.7-10.6l-4.9,2.2l5.6,12.7l-8.2,3.6l-9.6-21.6l32.9-14.5L564.5,195.9z M519.3,117.4l6.4,9.5l-13.1,15.8l0.1,0.1l20.4-5l4.6,6.8
	l-12.2,17l0.1,0.1l19.5-6.2l6.4,9.5l-37,9.4l-4.5-6.7l12.9-17.9l-0.1-0.1l-21.4,5.3l-4.5-6.7L519.3,117.4z M491.7,90.5l-18.3,19.9
	l10,9.2l-6,6.6l-17.1-15.8l24.3-26.4L491.7,90.5z M449.9,58.2l8.5,6l-11.9,17c-1.9,2.7-2.4,5.7,0.9,8.1c3.3,2.3,6,0.9,7.9-1.9
	l11.9-17l8.5,6l-12.1,17.2c-5.4,7.7-12.8,10-21.9,3.6c-9-6.3-9.4-14.1-4-21.8L449.9,58.2z M424.2,43.7c9.6,4.7,14,15.1,9,25.2
	c-4.9,10.2-15.8,13.1-25.4,8.5c-9.6-4.7-14-15.1-9-25.2C403.8,42,414.6,39,424.2,43.7z M368,48c3.2,4.2,6.1,6.5,9.4,7.6
	c1.8,0.6,3,0.5,3.4-0.6c0.3-0.8-0.2-1.5-1.1-2.3l-6.3-6.1c-3.3-3.3-4.4-7.3-3-11.6c1.9-6.1,7.5-9,16.1-6.3c3.6,1.1,7.1,3,10.8,6.6
	l-6.6,7c-2.3-2.8-5.3-4.7-7.5-5.4c-1.5-0.5-2.2-0.3-2.5,0.6c-0.2,0.6,0,1.3,1.2,2.4l5.9,5.8c3,3,5,6.3,3.3,11.7
	c-2.2,7-8.1,9.4-16.9,6.6c-5.1-1.6-9.4-4.4-13.3-8.4L368,48z M310.4,15.5l7.6,0.7l15,20.8l0.1,0l1.9-19.2l9.7,0.9l-3.5,35.7
	l-7.6-0.7l-15-20.8l-0.1,0l-1.9,19.2l-9.7-0.9L310.4,15.5z M284.8,16.2c9.5-0.5,13.8,4.8,14.2,11c0.3,4.8-1.9,9.2-7.1,11.2
	l10.7,12.8l-12.1,0.7l-10-12.8l0.7,13.3l-9.7,0.5l-2-35.9L284.8,16.2z M258.3,18.6l1.7,8.8L247,29.8l0.8,4.2l11.3-2.1l1.6,8.3
	l-11.3,2.1l1,5.2L264,45l1.7,8.8l-23.3,4.4l-6.6-35.3L258.3,18.6z M203.2,32.6l4.2,12.4L219,41l-4.2-12.4l9.2-3.1l11.5,34l-9.2,3.1
	l-4.5-13.2l-11.6,3.9l4.5,13.2l-9.2,3.1l-11.5-34L203.2,32.6z M185.3,39.5l4,8l-8,4l12.1,24.2l-8.7,4.4l-12.1-24.2l-8,4l-4-8
	L185.3,39.5z M141.5,63.9c7.9-5.3,14.4-3,17.8,2.2c2.7,4,3.1,8.8-0.3,13.2l15.7,5.5l-10.1,6.8l-15.1-5.9l7.5,11.1l-8.1,5.5
	l-20.1-29.8L141.5,63.9z M105.9,91.1c7.8-7.3,19.1-7.6,26.8,0.7c7.7,8.3,6.5,19.5-1.3,26.8c-7.8,7.3-19.1,7.6-26.8-0.7
	C96.9,109.6,98.1,98.3,105.9,91.1z M68.8,133.9l25.6-1.6l0.1-0.1l-15.3-11.8l6-7.7l28.4,22l-4.6,6l-25.6,1.6l-0.1,0.1l15.3,11.8
	l-6,7.7l-28.4-22L68.8,133.9z M44.5,174.7l24.2,12l6-12.1l8,4l-10.3,20.9l-32.2-15.9L44.5,174.7z M31.7,204.8l38.5-1.8l-3.4,10.2
	l-7.1,0l-3.9,11.6l5.7,4.2l-3.4,10.2l-29.7-24.6L31.7,204.8z M17.5,264l21.7-13.6l0-0.1l-19-3.1l1.6-9.6l35.5,5.7l-1.2,7.5
	l-21.7,13.6l0,0.1l19,3.1l-1.6,9.6l-35.5-5.7L17.5,264z M33.3,282c11.3,0,18.8,8.4,18.8,19.1s-7.4,19.2-18.7,19.2
	c-11.3,0-18.8-8.4-18.8-19.1C14.6,290.6,22,282.1,33.3,282z M16.9,329.7l35.7-4.3l1.2,9.7l-35.7,4.3L16.9,329.7z M19,347.5l8.7-1.9
	l1.9,8.8l26.4-5.8l2.1,9.5l-26.4,5.8l1.9,8.8l-8.7,1.9L19,347.5z M31.3,394.2l28.8-25.6l3.8,10.1l-5.5,4.4l4.3,11.5l7.1-0.3
	l3.8,10.1L35,404L31.3,394.2z M57.4,449.2l8.4-24.3l-0.1-0.1L49,434.4l-4.8-8.5l31.2-17.8l3.8,6.6L70.7,439l0.1,0.1l16.8-9.6
	l4.8,8.5l-31.2,17.8L57.4,449.2z M96.5,479c-2.3,2-5.6,1.7-7.6-0.6c-1.9-2.3-1.7-5.6,0.6-7.6c2.3-2,5.7-1.6,7.6,0.6
	C99.1,473.7,98.8,477.1,96.5,479z M133.5,531.1l7.3-17.1l-0.1-0.1l-12.7,6.5l-5-4l3.6-13.8l-0.1-0.1l-15.1,10.8l-7.7-6.2l30.4-21.7
	l5.6,4.5l-4.5,16.4l0,0l15-8l5.6,4.5l-14.6,34.4L133.5,531.1z M173.4,544.3l-14.1-8.2c-0.5,2.4,0.8,4.1,3.5,5.7
	c1.8,1.1,3.8,1.6,5.9,1.9l-1.3,7.3c-3.4-0.5-6.2-1.6-8.5-3c-7.8-4.5-10.2-11.1-6.1-18.1c4.2-7.3,11-8.2,17.5-4.5
	c6.4,3.7,8.5,9.8,4,17.5L173.4,544.3z M174.5,555.4l15.3-32.5l8.6,4l-15.3,32.5L174.5,555.4z M221.3,561.4
	c-2.9,8.1-9.2,10.1-14.9,8.1c-3.5-1.3-5.3-3.5-5.9-6.1l-0.1,0l-1,2.8l-8.9-3.2l12.2-33.8l8.9,3.2l-5.2,14.3l0.1,0
	c2.1-1.6,4.9-2.3,8.4-1C220.7,547.8,224.3,553.3,221.3,561.4z M252.6,568.8c-1.7,7.5-8.3,11.1-16.1,9.3c-7.8-1.8-12.2-7.8-10.5-15.3
	c1.7-7.5,8.3-11.1,16.1-9.3C249.9,555.2,254.3,561.3,252.6,568.8z M283.2,584.3l-9.1-1l0.4-3.6l-0.1,0c-2.4,2.7-4.8,3.9-8.1,3.6
	c-5.1-0.5-8.7-4-8-10.1l1.6-15.2l9.7,1l-1.3,12.4c-0.3,2.8,1,4.1,2.7,4.3c2.1,0.2,3.7-1.1,4.1-4.8l1.2-11.1l9.4,1L283.2,584.3z
	 M308.3,569.2l-0.6-0.1c-4.5,0-6.8,1.5-6.8,6.7l0,8.6l-9.5-0.1l0.1-23.7l9.2,0.2l0,4.6h0.1c1.5-4,4.2-5,7.5-5h0.1L308.3,569.2z
	 M331.1,582.8l-1.2-12.2c-0.3-2.8-1.4-4-3.7-3.8c-2.3,0.2-3.6,1.8-3.3,5.3l1.1,11.4l-9.5,0.9l-2.3-23.6l9.1-0.9l0.3,3.5l0.1,0
	c1.8-3,4.2-4.7,7.7-5.1c5.1-0.5,8.9,2.2,9.6,8.7l1.4,14.8L331.1,582.8z M360.7,571.3c2.1-0.4,3.9-1.4,5.6-2.6l3.9,6.2
	c-2.8,1.9-5.7,3-8.3,3.5c-8.8,1.9-15-1.3-16.7-9.3c-1.8-8.2,2.7-13.5,9.9-15.1c7.2-1.5,12.8,1.5,14.7,10.3l0.3,1.6l-16,3.4
	C355.5,571.6,357.6,572,360.7,571.3z M394.5,568.6l-3-7.3l6.6-13.5c1.2-2.5,2.5-4.9,1.6-7.2c-0.7-1.7-2.1-2.2-3.9-1.5
	c-2.3,0.9-2.7,2.9-1.9,4.7l-8.8,3.6c-2.4-5.9-1.2-12.6,7.8-16.2c7.5-3,13.4-1.1,15.8,5c1.7,4.2,0.8,8.1-1.8,12.9l-3.7,6.7l11.8-4.8
	l3.3,8.1L394.5,568.6z M438.6,549.3c-8.1,4.5-16.3,1.4-21.9-8.6c-5.6-10-3.9-18.5,4.3-23.1c8.1-4.5,16.3-1.5,21.8,8.5
	C448.4,536.2,446.7,544.8,438.6,549.3z M458.6,536.2l-14.7-21l-0.9,0.6l-5.1-7.4l8.5-5.9l19.8,28.4L458.6,536.2z M484.9,517.2
	c-6.3,5.3-13.8,5.6-19.5-1.2c-3.7-4.4-4.8-8.7-4.9-15.3l-0.1-9.1l8.9-7.5l-0.8,17.7l0.2,0c0.3-2,1.8-3.7,3-4.8
	c4.1-3.5,10.7-3.9,15.4,1.8C491.1,503.6,492.3,510.9,484.9,517.2z M507.9,482.2c-2,2.2-5.3,2.5-7.6,0.5c-2.3-2-2.5-5.4-0.5-7.6
	c2-2.2,5.3-2.5,7.6-0.5C509.7,476.6,509.9,479.9,507.9,482.2z M541.5,449.6c-5,8.1-11.9,8.6-17.1,5.4c-4.1-2.5-6.4-6.8-5.2-12.2
	l-16.6,1.5l6.4-10.4l16.2-0.9l-11.4-7l5.1-8.3l30.6,18.8L541.5,449.6z M554.7,426.4l-8.2-3.6l5.3-12L548,409l-4.7,10.5l-7.7-3.4
	l4.7-10.5l-4.9-2.2l-5.7,12.7l-8.2-3.6l9.6-21.6l32.8,14.6L554.7,426.4z M573.2,377.6c-3.4,11.7-12,16.9-22.7,13.7
	c-10.7-3.1-15.1-12.2-11.7-23.8l3.4-11.8l34.5,10.1L573.2,377.6z M582.8,327l-21.3,14.3l0,0.1l19.1,2.5l-1.2,9.7l-35.6-4.6l1-7.5
	l21.3-14.3l0-0.1l-19.1-2.5l1.2-9.7l35.6,4.6L582.8,327z M299.5,405c-1.7,4.6-3.5,9.1-5.6,13.6c-2.5,5.3-5.2,10.4-8.2,15.4
	c1.7,0.2,3.4,0.3,5.1,0.5c2.2-4.6,4.2-9.2,6-14c2.8-7.5,5.1-15.1,6.9-22.9l-2,1.1C300.9,400.7,300.2,402.9,299.5,405z M302.5,434.6
	c1.8-4.8,3.4-9.6,4.8-14.5c2.6-9.2,4.4-18.5,5.4-27.8l-1.4,0.8c-0.7,3.8-1.6,7.6-2.6,11.4c-1.3,4.7-2.7,9.4-4.4,14
	c-2,5.5-4.3,10.8-6.9,16.1c0.9,0,1.8,0,2.6,0C300.8,434.7,301.6,434.7,302.5,434.6z M324.8,415.9c-1,5.8-2.4,11.5-4,17.2
	c1.7-0.3,3.4-0.6,5.1-0.9c1-5.1,1.7-10.2,2.2-15.3c1.1-11.2,1.1-22.4,0.1-33.5l-0.9,0.5c0.1,5.8,0,11.6-0.5,17.4
	C326.3,406.2,325.6,411,324.8,415.9z M300,264.1c-19.9,0-36.1,16.1-36.1,35.9c0,19.8,16.2,35.9,36.1,35.9
	c19.9,0,36.1-16.1,36.1-35.9C336.1,280.2,319.9,264.1,300,264.1z M228.3,469.9c19.1-13.7,35.3-31.3,47.5-51.9
	c1.3-2.2,2.6-4.5,3.8-6.8l-5.4,3.1c-0.3,0.5-0.6,1-1,1.4c-10,14.2-22.1,26.8-35.9,37.5C234.1,459.6,231,465.8,228.3,469.9z
	 M317.7,419c2-10.4,2.9-20.9,3-31.3l-1,0.6c-0.4,5-1,10.1-1.9,15.1c-0.8,4.8-1.9,9.6-3.2,14.4c-1.5,5.7-3.4,11.2-5.5,16.7
	c1.7-0.1,3.4-0.3,5.1-0.4C315.6,429,316.8,424,317.7,419z M247.1,434.9c-0.9,1.5-1.9,3.3-2.8,5.1c5.8-5.5,11.3-11.4,16.3-17.8
	l-0.3,0.2c-1.4,0.5-3.2,1.4-5.3,3l-1.8,1l0.4,0.1C251.5,428.5,249.3,431.1,247.1,434.9z M412.3,148.2c13.9-4.8,28.4-8,43.4-9.4
	c-3.3-3.2-6.8-6.4-10.3-9.3c-14.5,2.4-28.6,6.7-41.9,12.6C406.5,144,409.4,146.1,412.3,148.2z M399.6,232.5
	c-7.2,1.8-14.3,4.1-21.1,6.9l2,1.2c1.6-0.5,3.3-1,4.9-1.4c4.7-1.3,9.5-2.3,14.4-3.2c6-1,12-1.7,18.1-2.1c-0.9-1.5-1.7-3-2.7-4.5
	C410,230.2,404.8,231.2,399.6,232.5z M333,183.8c-5.1,7.1-9.6,14.6-13.6,22.3l1.2,0.7c1.8-3,3.7-6,5.7-8.9c2.8-4,5.8-7.9,9-11.7
	c3.7-4.4,7.6-8.6,11.7-12.6c-1.6-0.6-3.2-1.2-4.8-1.7C339,175.8,335.9,179.7,333,183.8z M424.4,244.4c-0.6-0.5-1.2-1-1.9-1.6
	c-0.5-1.1-1-2.1-1.6-3.2c-5.3,0.4-10.6,1-15.9,1.8c-5.6,0.9-11.1,2.1-16.6,3.6l2.9,1.6c4.5-0.8,9-1.4,13.6-1.8
	C411.4,244.4,417.9,244.3,424.4,244.4z M424.1,265.6c10.5,1.6,20.9,4.3,30.9,7.8c7.4,0.1,16,0.4,23.1,0.8
	c-19.4-8.1-40.3-12.7-61.6-13.3l6.9,3.9C423.6,265,423.8,265.3,424.1,265.6z M397.5,343.5l-2.1,1.2c3.2,3.2,6.3,6.6,9.3,10.2
	c4,4.7,7.6,9.7,11.1,14.9c0.4-0.7,0.8-1.3,1.2-2c0.2-1.3,0.3-2.6,0.3-3.9c-3.1-3.7-6.3-7.4-9.7-10.9
	C404.4,349.7,401,346.5,397.5,343.5z M348.4,425.8c0.1-5.2-0.1-10.4-0.5-15.7c-0.9-11.8-3-23.4-6.2-34.6l-0.7,0.4
	c1.3,6.2,2.3,12.6,2.9,19.1c0.4,4.9,0.6,9.8,0.6,14.7c0,6-0.4,11.9-1,17.8C345.2,427,346.8,426.4,348.4,425.8z M359.2,421.1
	c-0.4-5.2-1-10.4-1.8-15.6c-1.9-11.6-5-22.8-9.1-33.7l-0.7,0.4c1.8,6.1,3.3,12.2,4.5,18.6c0.8,4.8,1.5,9.7,1.9,14.6
	c0.5,6,0.7,11.9,0.6,17.9C356.1,422.6,357.7,421.9,359.2,421.1z M384.7,405c1.3-1.1,2.7-2.2,4-3.3c-1.7-5-3.7-10-5.9-14.9
	c-4.2-9.2-9.1-18-14.8-26.3l-0.9,0.5c2.4,4.2,4.7,8.5,6.8,13c2.1,4.4,3.9,8.9,5.6,13.6C381.6,393.3,383.3,399.1,384.7,405z
	 M370.6,202.3c-8.5,5.8-16.3,12.3-23.6,19.4l1,0.5c3.7-3.1,7.5-6.1,11.6-8.9c4-2.8,8.1-5.4,12.4-7.9c5.1-2.9,10.4-5.6,15.8-8
	c-1.3-1.1-2.6-2.2-4-3.3C379.2,196.7,374.8,199.4,370.6,202.3z M363,400.2c1,5.9,1.7,11.9,2.1,17.9c1.5-0.8,3-1.7,4.5-2.6
	c-0.8-5.2-1.9-10.4-3.2-15.5c-2.8-11.1-6.7-21.8-11.6-31.9l-0.7,0.4c2.2,5.6,4.2,11.4,5.8,17.3C361.1,390.5,362.1,395.3,363,400.2z
	 M378.8,208.9c-8.7,4.9-17,10.6-24.7,16.8l1.1,0.6c3.7-2.6,7.6-5.1,11.6-7.4c4.2-2.4,8.6-4.7,13.1-6.8c5.4-2.5,10.9-4.7,16.5-6.6
	c-1.2-1.2-2.5-2.4-3.7-3.6C388,204,383.3,206.3,378.8,208.9z M326.3,210l1.1,0.6c2.4-3.4,5-6.7,7.7-10c3.1-3.7,6.4-7.3,9.9-10.8
	c4.1-4.1,8.4-7.9,12.9-11.6c-1.5-0.7-3.1-1.4-4.7-2.1c-3.6,3.5-7,7.1-10.3,11C336.8,194.3,331.2,202,326.3,210z M375.2,412
	c1.4-1,2.9-1.9,4.2-2.9c-1.3-5.1-2.8-10.2-4.5-15.3c-3.6-10.3-8.2-20.1-13.6-29.4l-0.8,0.5c2.4,5,4.6,10.1,6.6,15.4
	c1.7,4.6,3.1,9.3,4.4,14C373.1,400.1,374.3,406,375.2,412z M397.3,393.6c-2.2-4.9-4.6-9.7-7.2-14.4c-4.5-8-9.6-15.6-15.2-22.7
	l-1.1,0.7c2.2,3.3,4.3,6.6,6.3,10c2.4,4.2,4.7,8.6,6.8,13.1c2.6,5.5,4.8,11.2,6.8,17C394.9,396,396.1,394.8,397.3,393.6z
	 M371.2,235.3c2.8-1.2,5.7-2.4,8.6-3.5c4.6-1.7,9.3-3.1,14-4.4c5.8-1.6,11.7-2.8,17.7-3.7c-1-1.4-2-2.8-3-4.2
	c-5.1,1.3-10.2,2.8-15.1,4.5c-8.2,2.9-16.1,6.4-23.7,10.4L371.2,235.3z M405.1,384.7c-2.6-4.7-5.4-9.3-8.5-13.8
	c-4.5-6.5-9.4-12.7-14.6-18.6l-1.4,0.8c1.7,2.2,3.4,4.4,5,6.7c2.8,4,5.4,8.1,7.9,12.4c3.1,5.3,5.8,10.8,8.2,16.4
	C402.9,387.4,404,386.1,405.1,384.7z M386.4,216.1c-8.7,3.9-17,8.5-24.8,13.8l1.3,0.7c3.5-2,7.1-3.8,10.7-5.5
	c4.4-2.1,8.9-3.9,13.6-5.6c5.6-2,11.4-3.7,17.2-5.2c-1.1-1.3-2.2-2.6-3.4-3.9C396.1,212.1,391.2,214,386.4,216.1z M312.3,179.7
	c-2.9,5.9-5.3,12-7.5,18.2l1.7,0.9c0.6-1.4,1.2-2.7,1.8-4.1c2.1-4.4,4.3-8.8,6.8-13c2.8-4.9,5.9-9.6,9.2-14.2
	c-1.7-0.3-3.3-0.6-5-0.8C316.8,170.9,314.5,175.2,312.3,179.7z M322.7,181.3c-4,6.7-7.5,13.7-10.5,20.8l1.4,0.8
	c1.2-2.3,2.4-4.6,3.8-6.9c2.4-4.2,5.1-8.4,7.9-12.4c3.3-4.7,6.8-9.1,10.5-13.4c-1.6-0.4-3.3-0.9-5-1.2
	C328,172.9,325.3,177,322.7,181.3z M301.8,179c-1.8,4.8-3.4,9.6-4.7,14.5l1.9,1.1c0-0.1,0-0.1,0.1-0.2c1.7-4.6,3.5-9.1,5.6-13.6
	c2.4-5.1,5-10,7.9-14.9c-1.7-0.2-3.4-0.3-5.1-0.4C305.5,169.9,303.6,174.4,301.8,179z M354.5,194.2c4.5-3.7,9.1-7.2,13.9-10.5
	c-1.5-0.9-3-1.7-4.5-2.5c-3.9,3.2-7.7,6.6-11.3,10.1c-7.1,7-13.6,14.5-19.4,22.5l1,0.6c3-3.5,6.1-7,9.4-10.3
	C347.1,200.7,350.7,197.4,354.5,194.2z M142,166.2c-1.7-7.5-2.9-15.1-3.6-22.9c-3.2,3.3-6.4,6.8-9.3,10.3c1.2,7.6,3,15,5.2,22.2
	C136.8,172.5,139.3,169.3,142,166.2z M293.8,182.5c0.2-0.6,0.4-1.2,0.6-1.8c1.2-3.4,2.6-6.8,4.1-10.1c-0.7,0.8-1.3,1.7-1.9,2.6
	C294.9,176.3,294,179.4,293.8,182.5z M351.8,208.4c3.7-3.1,7.6-6.1,11.7-8.9c4.8-3.4,9.8-6.4,14.9-9.3c-1.4-1-2.8-2-4.3-2.9
	c-4.2,2.9-8.3,5.9-12.2,9.1c-7.9,6.5-15.2,13.6-21.8,21.3l0.9,0.5C344.4,214.9,348,211.6,351.8,208.4z M507.5,300c0,0.8,0,1.5,0,2.3
	c5.4,4.3,10.6,8.9,15.6,13.8c0.3-4.6,0.5-9.3,0.6-13.9c-5.2-4.5-10.7-8.6-16.4-12.4C507.3,293.2,507.5,296.6,507.5,300z
	 M486.2,248.8c-3.3,1.7-7.1,3.4-11.1,4.6c16.6,5.5,32.6,13.4,47.3,23.6c-0.5-4.6-1.1-9.2-1.8-13.7c-10.6-6.3-21.8-11.3-33.3-15.2
	C486.9,248.3,486.6,248.6,486.2,248.8z M459.5,167.9c7.2-0.2,14.5-0.1,21.8,0.5c-2.7-3.7-5.6-7.4-8.5-11c-7.2-0.1-14.5,0.3-21.6,1.1
	C454,161.6,456.8,164.7,459.5,167.9z M453.7,254.1c-2.9-0.9-5.4-1.5-7.6-2c-12-1.6-24.1-2-36.3-1.1c-3.1,0.2-6.1,0.6-9.1,0.9
	l4.5,2.5c1.4,0,2.8-0.1,4.2-0.1c41.1,0,81.5,15,114.3,42.1c-0.1-4.6-0.3-9.3-0.6-13.9c-18-12.9-38.3-22.1-59.7-27.3
	C460,255.4,456.8,255.1,453.7,254.1z M495.5,230.9c6.6,2.2,13.2,4.7,19.6,7.7c-1.3-4.4-2.7-8.9-4.2-13.2c-6.6-2.5-13.2-4.5-20-6.1
	C492.6,223,494.1,226.9,495.5,230.9z M463.1,172.3c2.6,3.3,5.1,6.6,7.5,10.1c7.1,0.4,14.3,1.1,21.4,2.4c-2.4-4-4.9-7.9-7.5-11.7
	C477.4,172.4,470.2,172.2,463.1,172.3z M488.7,214c6.8,1.6,13.6,3.6,20.3,6c-1.7-4.3-3.4-8.6-5.3-12.8c-6.8-1.9-13.7-3.4-20.6-4.4
	C485,206.5,486.9,210.2,488.7,214z M480.3,197.8c7,1,14,2.4,21,4.2c-2-4.2-4.2-8.3-6.4-12.3c-7-1.3-14-2.2-21.1-2.6
	C476,190.6,478.2,194.2,480.3,197.8z M498,238.2c-1.1,1.9-3.6,4.2-6.3,6.4c9.6,3.5,18.9,7.8,27.9,13c-0.9-4.5-1.9-9.1-3-13.5
	c-6.3-3-12.7-5.6-19.3-7.8C497.6,236.9,497.8,237.6,498,238.2z M460.5,400.1c5.7,13.1,10,26.9,12.6,41.3c2.9-3.6,5.7-7.3,8.4-11
	c-3.5-13.8-8.8-27.1-15.6-39.5C464.3,394,462.4,397.1,460.5,400.1z M468.7,385.8c6.8,12.5,12.3,25.9,16.1,40
	c2.6-3.8,5.1-7.8,7.4-11.7c-4.7-13.5-11.1-26.2-18.9-38C471.9,379.4,470.4,382.6,468.7,385.8z M451.1,413.7
	c4.6,13.6,7.7,27.8,9,42.4c3.2-3.3,6.4-6.8,9.3-10.3c-2.3-14.1-6.4-27.8-12.1-40.8C455.4,407.9,453.3,410.8,451.1,413.7z
	 M475.6,370.8c7.9,11.8,14.5,24.7,19.5,38.4c2.3-4,4.4-8.2,6.4-12.3c-5.9-13-13.3-25.1-22.1-36.1C478.2,364.1,477,367.4,475.6,370.8
	z M505.8,326.1c0,0.2,0,0.4-0.1,0.6c-1.7,1.7-3.9,3.9-5.8,5.8c-0.3,0.3-0.6,0.5-0.9,0.8c6.4,6.6,12.3,13.8,17.7,21.4
	c1.1-4.5,2.1-9,3-13.5C515.4,335.8,510.7,330.8,505.8,326.1z M481.2,355.2c8.9,11.1,16.5,23.3,22.8,36.5c1.9-4.2,3.7-8.5,5.3-12.8
	c-7-12.4-15.5-23.8-25.2-34C483.2,348.3,482.2,351.7,481.2,355.2z M506.4,320.5c5,4.7,9.8,9.7,14.3,15c0.7-4.6,1.3-9.2,1.8-13.8
	c-4.8-4.9-9.9-9.5-15.2-13.8C507.1,312.2,506.8,316.4,506.4,320.5z M485.6,337.9c-0.1,0.4-0.2,0.8-0.3,1.2
	c9.8,10.3,18.5,21.8,25.8,34.3c1.5-4.4,2.9-8.8,4.1-13.2c-6.1-8.9-13-17.1-20.5-24.6C491.4,336.9,487.5,337.6,485.6,337.9z
	 M209.4,552.5c-2.5-0.9-4.9-0.1-5.8,2.5c-1,2.7,0.4,4.8,2.9,5.7c2.5,0.9,4.9,0.1,5.8-2.5C213.2,555.5,211.8,553.4,209.4,552.5z
	 M49.3,220l2.3-7L39.8,213L49.3,220z M240.3,561.5c-2.6-0.6-4.9,0.6-5.5,3.2c-0.6,2.7,1,4.7,3.5,5.3s4.9-0.6,5.5-3.2
	C244.4,564.1,242.9,562.1,240.3,561.5z M356,560.2c-1.9,0.4-3.4,2-3,4.5l7.4-1.6C359.8,560.6,357.9,559.8,356,560.2z M417,151.7
	c2.8,2.2,5.6,4.5,8.3,6.9c1.2-0.3,2.3-0.6,3.5-0.8c4.3-2.4,11.6-6.1,15.5-5.7c0.1,0,0.4,0,0.6,0.1c0.8,0.8,1.6,1.6,2.3,2.3
	c7.2-0.9,14.5-1.4,21.9-1.4c-3-3.5-6.2-6.9-9.4-10.2C445.1,144,430.7,147,417,151.7z M440.6,426.4c3.4,13.9,5.2,28.4,5.3,43.1
	c3.5-3,6.9-6.2,10.2-9.4c-1.1-14.3-4-28.4-8.6-41.9C445.3,421,443,423.7,440.6,426.4z M166.8,530.4c-1.7-1-3.8-0.8-5.2,1.4l6.5,3.8
	C169.4,533.3,168.5,531.4,166.8,530.4z M42.8,395.5l11.8-0.5l-2.6-6.9L42.8,395.5z M124.7,111.4c3.7-3.5,4.2-8.5,0.4-12.6
	c-3.8-4.1-8.9-4-12.6-0.5c-3.7,3.5-4.2,8.5-0.4,12.6C115.9,115,121,114.9,124.7,111.4z M33.4,310.1c5.6,0,9-3.8,9-8.9
	c0-5.1-3.4-8.9-9-8.9c-5.6,0-9,3.8-9,8.9S27.8,310.1,33.4,310.1z M529.1,446c2.3,1.4,4.2,0.5,5.7-2.1l2.2-3.6l-6.6-4l-2.2,3.6
	C526.7,442.4,526.9,444.6,529.1,446z M151.3,72.2c-1.5-2.2-3.6-2.1-6.1-0.5l-3.5,2.4l4.3,6.4l3.5-2.4
	C152,76.5,152.8,74.5,151.3,72.2z M553.4,381.5c5.9,1.7,9.9-1,11.5-6.3l0.7-2.5l-17.7-5.2l-0.7,2.5
	C545.5,375.3,547.5,379.7,553.4,381.5z M412.1,68.6c4.6,2.2,9.5,0.8,11.9-4.2c2.4-5,0.5-9.7-4.1-12c-4.6-2.2-9.5-0.8-11.9,4.2
	C405.6,61.7,407.5,66.4,412.1,68.6z M474,504.7c-2.1,1.8-2.3,4.1-0.7,6.1c1.7,2,4.1,2.1,6.1,0.3c2.1-1.8,2.3-4.1,0.7-6.1
	C478.4,503.1,476,503,474,504.7z M425.4,525.6c-2.9,1.6-3.5,4.6-0.3,10.4s6.1,6.9,9,5.3c2.9-1.6,3.4-4.7,0.2-10.5
	C431.1,525.1,428.3,524,425.4,525.6z M284.3,32.6c3-0.2,4.7-1.5,4.6-4.2c-0.1-2.7-2-3.7-5-3.5l-4.3,0.2l0.4,7.7L284.3,32.6z
	 M158.1,424.9c-2.4-2.7-4.6-5.4-6.9-8.2c-14.7,1.1-29.7,0.4-44.7-2.2c2.4,4,4.9,7.9,7.5,11.7C128.8,427.7,143.6,427.2,158.1,424.9z
	 M147.7,412.1c-2.1-2.9-4.2-5.8-6.1-8.7c-14.8-0.2-29.6-2.2-44.3-6c2,4.2,4.2,8.3,6.4,12.3C118.3,412.4,133.1,413.2,147.7,412.1z
	 M125.9,374.4c-14.5-2.8-28.8-7.3-42.5-13.6c1.3,4.4,2.7,8.9,4.2,13.2c13.8,5.2,28.2,8.6,42.8,10.1
	C128.8,380.9,127.3,377.7,125.9,374.4z M115.6,343.2c-13.8-5.3-27.1-12.2-39.5-20.8c0.5,4.6,1.1,9.2,1.8,13.7
	c12.7,7.5,26.3,13.3,40.4,17.4C117.3,350.1,116.4,346.6,115.6,343.2z M120,359c-14.2-4-28-9.8-41.1-17.3c0.9,4.5,1.9,9.1,3,13.5
	c13.3,6.4,27.4,11,41.7,13.8C122.4,365.7,121.2,362.4,120,359z M133.1,389.2c-14.7-1.5-29.3-4.8-43.6-9.9c1.7,4.3,3.4,8.6,5.3,12.8
	c14.3,4,28.9,6.1,43.5,6.3C136.6,395.4,134.8,392.4,133.1,389.2z M172,441.1c-13.8,3.3-28,5.1-42.5,5.2c3,3.5,6.2,6.9,9.4,10.2
	c10.5-0.8,20.9-2.6,31-5.3C169.9,447.8,171.1,443.8,172,441.1z M172.2,462.7c-0.4-2-1-4.5-1.7-6.9c-9,2.2-18.2,3.8-27.6,4.7
	c3.3,3.2,6.8,6.4,10.3,9.3c7.4-1.2,14.7-2.9,21.9-5.1C174.1,464.1,173.1,463.4,172.2,462.7z M130.9,180.3
	c-2.3-7.3-4.1-14.8-5.5-22.4c-2.9,3.6-5.7,7.3-8.4,11c1.9,7.4,4.3,14.6,7.1,21.6C126.3,187.1,128.6,183.6,130.9,180.3z M162,429.2
	c-14.6,2.3-29.6,3-44.7,1.7c2.7,3.7,5.6,7.4,8.5,11c14.8,0.2,29.5-1.6,43.8-5.2C167,434.3,164.5,431.8,162,429.2z M105.6,227.7
	c-4-6.4-7.7-13-11-20c-1.9,4.2-3.7,8.5-5.3,12.8c3.7,6.6,7.8,12.9,12.3,18.8C102.9,235.4,104.2,231.5,105.6,227.7z M112.7,211.2
	c-3.5-6.7-6.6-13.7-9.3-20.9c-2.3,4-4.4,8.2-6.4,12.3c3.1,6.9,6.7,13.5,10.6,19.9C109.2,218.6,110.9,214.9,112.7,211.2z
	 M121.2,195.3c-2.9-7-5.4-14.3-7.4-21.8c-2.6,3.8-5.1,7.8-7.4,11.7c2.5,7.2,5.5,14.1,8.9,20.8C117.1,202.5,119.1,198.9,121.2,195.3z
	 M112.7,272.1c0.5-3.5,1.1-7,1.9-10.5c-1.4-1.4-2.7-2.8-4.1-4.3c-4.1-2.6-9.3-6.3-10.7-9.4c-0.1-0.3-0.2-0.7-0.3-1.2
	c0.2-0.6,0.4-1.3,0.5-1.9c-4.6-6-8.8-12.3-12.7-18.9c-1.5,4.4-2.9,8.8-4.1,13.2C91.6,251.4,101.6,262.5,112.7,272.1z M112.5,327
	c-13.3-6.4-25.9-14.5-37.6-24.2c0.1,4.6,0.3,9.3,0.6,13.9c12,8.6,25.1,15.6,38.8,20.8C113.6,334,113,330.5,112.5,327z M111,288.4
	c0.2-3.6,0.5-7.1,1-10.6c-11.2-9.7-21.3-20.8-30.1-33.2c-1.1,4.5-2.1,9-3,13.6C88.2,269.7,99,279.8,111,288.4z M110.9,310.7
	c-12.7-7.6-24.6-16.7-35.4-27.4c-0.3,4.6-0.5,9.3-0.6,13.9c11.2,9.7,23.6,17.7,36.8,24.1C111.4,317.7,111.1,314.2,110.9,310.7z
	 M110.6,300c0-1.9,0-3.9,0.1-5.8c-12-8.7-23.1-18.8-32.9-30.4c-0.7,4.6-1.3,9.2-1.8,13.8c10.4,10.6,22,19.7,34.6,27.3
	C110.6,303.2,110.6,301.6,110.6,300z M403,458.3c-0.3,14.5-2.3,29-6,43.4c4.2-2,8.3-4.2,12.3-6.4c2.7-14.2,3.5-28.7,2.5-43
	C408.9,454.3,406,456.4,403,458.3z M388.8,466.6c-1.6,14.4-4.8,28.8-9.8,42.8c4.3-1.7,8.6-3.4,12.8-5.3c3.9-14,6-28.3,6.3-42.7
	C395,463.2,391.9,464.9,388.8,466.6z M373.9,473.7c-2.8,14.3-7.3,28.3-13.5,41.9c4.5-1.3,8.9-2.7,13.2-4.2
	c5.1-13.6,8.5-27.8,10-42.1C380.4,470.8,377.2,472.3,373.9,473.7z M358.5,479.4c0,0.1-0.1,0.2-0.1,0.4l2,0c0,0,0.5,12.6-2.1,18.5
	c-2.4,0.7-4.7,1.3-7.1,1.9c-2.9,6.8-6.1,13.4-9.8,19.8c4.5-0.9,9.1-1.9,13.5-3c6.3-13.1,10.9-27,13.6-41.2
	C365.2,477.1,361.9,478.3,358.5,479.4z M333.5,503.8c-3.5,6.5-7.3,12.9-11.5,19.1c4.6-0.5,9.2-1.1,13.7-1.8
	c3.7-6.3,7.1-12.8,9.9-19.5C341.7,502.4,337.6,503.2,333.5,503.8z M429,438.1c2.2,14.2,2.8,28.8,1.6,43.5c3.7-2.7,7.4-5.6,11-8.5
	c0.2-14.4-1.5-28.7-4.9-42.5C434.1,433.2,431.6,435.7,429,438.1z M315.7,505.9c-4,6.2-8.4,12.3-13.2,18.1c4.6-0.1,9.3-0.3,13.9-0.6
	c4.3-6,8.2-12.3,11.7-18.7C323.9,505.2,319.8,505.6,315.7,505.9z M179.5,468.1c-7.2,2.2-14.5,4.1-22,5.4c3.6,2.9,7.3,5.7,11,8.4
	c7.3-1.9,14.4-4.2,21.3-7C186.3,472.8,182.9,470.5,179.5,468.1z M389.6,348.1l-1.7,1c0.9,1,1.8,2,2.7,3.1c3.1,3.7,6.1,7.6,8.9,11.7
	c3.5,5.1,6.7,10.3,9.7,15.7c1-1.4,2-2.8,3-4.2c-3-4.5-6.2-8.9-9.7-13.1C398.5,357.2,394.1,352.5,389.6,348.1z M416.4,448.7
	c1,14.4,0.3,29.1-2.2,43.6c4-2.4,7.9-4.9,11.7-7.5c1.4-14.4,1-28.8-1.2-42.9C422,444.3,419.2,446.6,416.4,448.7z M300,506.5
	c-0.8,0-1.5,0-2.3,0c-4.6,5.9-9.5,11.6-14.8,16.9c4.6,0.3,9.3,0.5,13.9,0.6c4.8-5.6,9.3-11.6,13.3-17.7
	C306.7,506.4,303.4,506.5,300,506.5z M252.5,474.2c-13.3,12-28.5,22.2-45.2,30.1c4.2,1.9,8.5,3.7,12.8,5.3
	c11.3-6.4,21.8-14,31.3-22.6C251.4,483.2,251.6,478.8,252.5,474.2z M203.4,482.8c-3-1.6-5.9-3.2-8.7-4.9c-6.9,2.8-14.1,5.3-21.4,7.3
	c3.8,2.6,7.8,5.1,11.7,7.4c8.7-3.1,17.2-6.9,25.2-11.3C208,482,205.7,482.5,203.4,482.8z M255.4,464.1c1.8-4.5,4.4-8.7,8-11.9
	c5.3-4.8,8.2-8.7,11.1-11.9c4.4-6.6,8.3-13.4,11.7-20.6c2.5-5.3,4.8-10.6,6.8-16.1l-3.1,1.8c-2,4.1-4.1,8.2-6.4,12.3
	c-20.6,35.5-53.7,63.1-93.6,77.9c4,2.2,8.2,4.4,12.3,6.4C222.3,492.8,240.3,479.9,255.4,464.1z M279.7,505.5
	c-5.1,5.5-10.5,10.7-16.3,15.6c4.6,0.7,9.2,1.3,13.8,1.8c5.3-5.2,10.3-10.7,14.9-16.6C287.9,506.2,283.8,505.9,279.7,505.5z
	 M255.9,501.9c-1.9-2.7-3.4-5.5-3.9-7.9c-0.1-0.3-0.1-0.7-0.2-1c-8.2,6.9-17,13.2-26.4,18.7c4.4,1.5,8.8,2.9,13.2,4.1
	c6.2-4.2,12-8.8,17.5-13.8C256.2,501.9,256,501.9,255.9,501.9z M274.1,504.9c-4.1-0.5-8.2-1.1-12.3-1.9c-5.5,5-11.4,9.8-17.6,14.1
	c4.5,1.1,9,2.1,13.6,3C263.6,515.4,269,510.3,274.1,504.9z"/>
</svg>
